<?xml version="1.0" standalone="no"?>
<!DOCTYPE svg PUBLIC "-//W3C//DTD SVG 20010904//EN"
 "http://www.w3.org/TR/2001/REC-SVG-20010904/DTD/svg10.dtd">
<svg version="1.0" xmlns="http://www.w3.org/2000/svg"
 width="300.000000pt" height="300.000000pt" viewBox="0 0 300.000000 300.000000"
 preserveAspectRatio="xMidYMid meet">
<metadata>
Created by potrace 1.10, written by Peter Selinger 2001-2011
</metadata>
<g transform="translate(0.000000,300.000000) scale(0.100000,-0.100000)"
fill="#000000" stroke="none">
<path d="M2185 2939 c-66 -33 -111 -53 -101 -44 11 8 17 17 14 20 -10 10 -182
-112 -265 -189 -60 -54 -54 -26 13 67 31 43 54 80 51 83 -2 3 -19 -14 -36 -38
l-31 -42 6 72 c4 41 3 72 -2 72 -5 0 -11 -30 -12 -67 -2 -47 -10 -84 -27 -119
-25 -50 -32 -84 -18 -84 4 0 21 13 38 29 58 55 217 169 229 165 7 -3 75 27
152 65 76 38 132 70 124 70 -8 0 -69 -27 -135 -60z"/>
<path d="M1543 2828 c-18 -24 -24 -38 -16 -38 10 0 36 40 30 46 -2 3 -9 -1
-14 -8z"/>
<path d="M232 2785 c4 -18 0 -26 -14 -30 -10 -4 -16 -11 -12 -16 3 -5 9 -7 13
-4 14 8 9 -44 -5 -56 -18 -15 -18 -33 1 -26 11 5 12 1 5 -19 -13 -32 -13 -54
-1 -54 6 0 11 14 13 32 4 37 28 52 27 16 0 -22 -1 -22 -9 -3 -9 20 -9 20 -9 0
0 -11 3 -27 9 -35 7 -11 11 -9 20 14 14 37 4 70 -18 61 -12 -4 -10 1 6 18 23
25 31 47 10 29 -10 -8 -13 -4 -14 14 -1 13 2 24 6 24 5 0 2 14 -6 30 -19 36
-28 39 -22 5z"/>
<path d="M1561 2759 c17 -14 20 -22 11 -26 -18 -7 4 -33 28 -33 18 0 50 -30
50 -46 0 -5 9 -15 20 -22 23 -14 27 0 5 18 -15 13 -11 35 6 25 5 -4 9 1 9 11
0 14 -3 14 -15 4 -12 -10 -19 -10 -27 -2 -19 19 0 27 58 26 30 0 51 3 47 6
-16 15 -82 31 -116 28 -23 -1 -43 4 -55 15 -10 9 -24 17 -31 17 -7 0 -3 -9 10
-21z"/>
<path d="M1465 2716 c7 -42 5 -47 -26 -74 -19 -17 -45 -41 -60 -54 -14 -13
-48 -38 -77 -57 -29 -18 -52 -35 -52 -38 0 -4 121 61 160 87 64 43 83 25 28
-26 -55 -50 -66 -56 -133 -70 -36 -8 -84 -23 -106 -35 -43 -21 -49 -37 -8 -20
13 5 33 13 44 17 28 10 105 16 105 8 0 -3 -20 -36 -44 -73 -74 -113 -75 -115
-14 -78 55 33 77 55 116 116 l22 36 -6 -30 c-10 -48 -116 -275 -125 -269 -5 3
-7 10 -4 15 4 5 1 9 -4 9 -6 0 -11 5 -11 11 0 6 7 8 16 5 14 -5 15 -4 5 8 -6
7 -9 22 -5 32 5 18 5 18 -9 2 -9 -11 -28 -18 -51 -18 -44 0 -47 -12 -5 -27 27
-10 29 -14 19 -33 -7 -12 -16 -18 -23 -13 -7 4 -20 6 -29 5 -11 -2 -22 7 -30
22 -14 32 -22 33 -36 1 -6 -14 -18 -25 -27 -25 -22 0 -18 19 8 41 12 10 33 28
47 40 l25 20 -45 -4 c-40 -5 -47 -2 -68 24 -13 15 -25 39 -27 51 -3 13 -9 24
-14 26 -6 2 -8 9 -5 15 5 15 -32 77 -46 77 -5 0 -13 -17 -16 -38 -5 -34 -9
-38 -30 -34 -29 5 -30 -2 -3 -39 28 -40 19 -109 -15 -109 -12 0 -27 -5 -33
-11 -8 -8 -25 -8 -65 2 -29 7 -55 14 -57 15 -2 2 24 28 58 59 81 76 144 170
136 205 -4 14 -13 32 -21 40 -14 13 -17 13 -28 -2 -19 -26 -97 -16 -196 24
-105 44 -194 64 -285 66 l-70 1 90 -23 c91 -24 227 -76 260 -100 16 -11 12
-16 -39 -44 -68 -39 -73 -48 -10 -22 55 24 116 26 148 5 l24 -16 -49 -81 c-27
-45 -49 -86 -49 -91 0 -9 -45 -6 -110 8 -15 3 -11 0 10 -9 19 -8 45 -15 58
-15 26 -1 27 -7 7 -41 -24 -42 -17 -45 18 -6 l32 37 48 -17 49 -16 -56 -36
c-73 -47 -66 -52 9 -7 64 38 75 40 108 24 20 -9 20 -9 5 4 -24 19 -22 29 5 26
12 -2 27 0 34 4 15 9 43 -2 43 -17 -1 -6 -39 -36 -86 -66 -97 -63 -200 -151
-149 -127 60 27 151 74 203 103 60 34 71 27 72 -41 l1 -40 13 30 c7 17 16 45
19 63 6 30 5 33 -12 27 -11 -3 -22 -1 -26 5 -4 6 -13 9 -21 6 -18 -7 -18 8 0
23 14 12 18 51 6 51 -4 0 -5 14 -2 30 2 17 8 30 13 30 10 0 12 -11 10 -50 -1
-24 -1 -24 13 5 10 21 15 25 15 12 1 -10 5 -16 10 -13 5 3 14 0 20 -8 9 -11 8
-18 -4 -30 -9 -9 -22 -13 -28 -9 -7 3 -9 3 -5 -2 4 -4 0 -14 -10 -22 -13 -11
-14 -13 -2 -11 22 3 60 -12 60 -23 0 -6 -5 -7 -12 -3 -8 5 -9 2 -4 -11 5 -15
-47 -259 -59 -273 -2 -2 -14 8 -28 22 -24 24 -57 35 -57 20 0 -3 9 -19 21 -35
18 -25 18 -29 4 -29 -25 0 -12 -24 16 -30 21 -6 24 -11 22 -46 -2 -21 -8 -52
-14 -67 -7 -15 -9 -30 -5 -34 3 -3 12 9 19 28 31 77 31 77 35 37 5 -62 17 -43
14 22 -2 37 0 60 7 60 15 0 62 -21 94 -43 35 -24 36 -5 1 22 -30 24 -19 29 13
6 16 -11 22 -12 26 -2 2 6 5 -17 7 -53 3 -75 6 -129 8 -150 3 -26 39 53 46
100 3 25 10 99 16 165 13 166 18 187 41 180 11 -4 19 -2 19 4 0 6 -7 11 -15
11 -23 0 -19 16 26 97 30 54 45 73 56 69 10 -4 13 -2 10 8 -3 8 0 17 8 20 8 3
16 0 18 -7 2 -7 7 -9 11 -6 4 4 1 13 -6 20 -12 10 -6 24 36 80 50 67 51 68 58
41 8 -28 -6 -79 -27 -97 -6 -5 -35 -54 -63 -108 -46 -89 -52 -96 -62 -77 -6
11 -8 24 -5 29 3 5 -5 7 -16 4 -19 -5 -20 -8 -7 -17 8 -6 15 -13 14 -16 -2
-15 34 -51 45 -45 7 5 10 4 5 -3 -7 -12 23 -82 36 -82 12 0 9 11 -17 65 -14
28 -25 52 -25 55 0 3 16 14 35 24 19 10 32 23 29 28 -4 5 7 26 23 46 17 20 37
52 47 70 9 17 18 32 20 32 3 0 18 -19 35 -42 17 -23 31 -35 31 -26 0 8 -7 22
-16 29 -19 16 -34 52 -25 59 17 12 51 70 51 85 0 14 5 13 33 -7 34 -24 140
-127 170 -166 9 -12 26 -39 37 -60 11 -20 20 -30 20 -22 0 8 -7 28 -15 44 -8
15 -13 31 -10 36 9 14 -58 105 -128 172 -40 38 -66 67 -59 63 6 -3 12 -3 12 0
0 3 -19 15 -42 25 -34 15 -43 24 -43 45 -1 29 7 32 29 10 8 -8 21 -15 28 -15
7 0 24 -9 38 -20 36 -28 51 -24 16 4 l-28 24 64 11 c86 15 112 14 156 -5 40
-16 164 -45 170 -39 2 2 -22 11 -54 21 -33 9 -75 25 -94 35 -54 29 -89 32
-190 15 -51 -9 -95 -14 -98 -11 -8 8 100 115 110 109 4 -3 8 4 8 15 0 12 -3
21 -7 21 -5 0 -35 -31 -67 -69 -33 -38 -64 -67 -70 -65 -10 4 -24 48 -41 128
-6 25 -43 64 -77 82 -39 20 -40 19 -33 -30z m95 -99 c14 -51 9 -67 -14 -48
-10 8 -16 9 -21 1 -3 -5 -13 -10 -22 -10 -11 0 -8 6 11 21 14 11 26 26 26 33
0 17 -35 48 -44 39 -4 -4 -5 0 -2 10 4 9 8 24 11 33 8 25 39 -20 55 -79z m-40
4 c0 -12 -20 -25 -27 -18 -7 7 6 27 18 27 5 0 9 -4 9 -9z m-47 -76 c-3 -9 -8
-14 -10 -11 -3 3 -2 9 2 15 9 16 15 13 8 -4z m77 -12 c0 -10 3 -27 6 -39 5
-18 2 -20 -30 -16 -27 3 -35 8 -33 22 6 41 57 70 57 33z m-782 -36 c17 -10 32
-20 32 -23 0 -10 -45 9 -53 23 -5 7 -12 11 -17 8 -5 -3 -11 -1 -14 4 -8 13 13
8 52 -12z m138 -51 c-7 -28 -103 -133 -112 -123 -4 4 0 15 8 24 8 10 28 43 44
73 33 63 57 87 62 64 2 -9 1 -26 -2 -38z m504 19 c-14 -16 -50 -21 -50 -6 0 6
10 17 22 25 27 19 48 5 28 -19z m56 16 c-10 -16 5 -41 25 -41 34 0 22 -44 -32
-111 -28 -35 -58 -67 -67 -70 -8 -3 -16 -12 -18 -20 -3 -19 -114 -217 -114
-204 0 6 13 37 29 70 17 33 51 105 76 160 25 55 54 109 64 120 21 23 38 81 21
70 -5 -3 -10 -12 -10 -20 0 -8 -5 -17 -10 -20 -13 -8 -2 44 13 63 11 14 31 17
23 3z m-622 -25 c-3 -9 -10 -16 -15 -16 -14 0 -11 28 4 33 16 6 19 3 11 -17z
m744 -11 c-3 -3 -9 2 -12 12 -6 14 -5 15 5 6 7 -7 10 -15 7 -18z m-47 -8 c-10
-9 -11 -8 -5 6 3 10 9 15 12 12 3 -3 0 -11 -7 -18z m107 -43 c30 -30 32 -34
10 -21 -26 16 -28 16 -43 -5 -16 -24 -21 -13 -6 11 6 9 6 22 0 33 -15 28 -1
21 39 -18z m-68 5 c9 -16 8 -25 -6 -40 -26 -28 -34 -23 -34 21 0 45 21 55 40
19z m-269 -42 l-23 -22 17 28 c10 15 20 25 23 22 3 -3 -5 -16 -17 -28z m-307
9 c-3 -7 2 -21 11 -30 18 -17 16 -19 -9 -10 -16 6 -22 35 -9 47 10 11 13 8 7
-7z m-34 -16 c0 -5 -5 -10 -11 -10 -5 0 -7 5 -4 10 3 6 8 10 11 10 2 0 4 -4 4
-10z m810 -77 c0 -8 -9 0 -50 45 l-45 47 48 -45 c26 -24 47 -45 47 -47z m-190
57 c0 -5 -4 -10 -10 -10 -5 0 -10 -8 -11 -17 0 -11 -2 -13 -6 -5 -3 7 -2 19 1
27 6 17 26 20 26 5z m-593 -40 c-2 -8 -9 -14 -16 -12 -10 2 -12 -5 -7 -23 4
-14 4 -25 2 -25 -2 0 -11 -3 -19 -6 -12 -4 -14 0 -10 18 3 13 10 29 16 35 5 7
7 22 4 32 -4 17 -2 18 14 8 11 -7 18 -19 16 -27z m834 -47 c13 -16 12 -17 -3
-4 -10 7 -18 15 -18 17 0 8 8 3 21 -13z m-571 -43 c0 -5 -2 -10 -4 -10 -3 0
-8 5 -11 10 -3 6 -1 10 4 10 6 0 11 -4 11 -10z m29 -63 c0 -7 -9 -25 -20 -42
-11 -16 -22 -38 -25 -47 -4 -10 -11 -18 -17 -18 -6 0 -2 -6 8 -14 17 -12 18
-23 11 -132 -4 -65 -11 -137 -15 -159 -7 -38 -8 -39 -19 -18 -12 21 -18 173
-12 297 1 33 -2 61 -8 65 -12 7 -35 62 -28 68 2 2 15 1 30 -3 28 -7 33 -23 14
-42 -9 -9 -9 -12 -1 -12 7 0 15 9 18 20 5 15 12 19 26 15 22 -7 26 10 4 19 -8
3 -12 12 -9 20 5 12 11 13 25 5 10 -5 19 -15 18 -22z m-152 -7 c-3 -11 -1 -18
4 -14 5 3 9 -6 9 -19 0 -13 9 -32 20 -42 20 -18 28 -65 12 -65 -5 0 -17 9 -26
19 -13 15 -14 20 -4 25 7 3 2 3 -11 0 -17 -5 -21 -3 -16 6 5 8 4 11 -2 7 -6
-4 -8 -17 -6 -31 3 -13 0 -26 -5 -30 -6 -4 -8 2 -5 14 8 32 -7 23 -19 -11 -14
-41 -20 -31 -7 12 11 36 19 70 22 104 1 11 9 25 17 32 21 17 23 16 17 -7z
m-197 -14 c0 -2 -7 -7 -16 -10 -8 -3 -12 -2 -9 4 6 10 25 14 25 6z m-41 -29
c-2 -1 -13 -9 -24 -17 -19 -14 -19 -14 -6 3 7 9 18 17 24 17 6 0 8 -1 6 -3z
m260 -149 c8 -18 9 -16 4 11 -5 26 -3 32 7 26 8 -5 11 -21 7 -49 -3 -22 -2
-62 2 -88 l8 -48 -30 6 c-35 6 -59 32 -51 54 4 8 8 24 10 35 2 11 -1 8 -7 -7
-6 -16 -14 -28 -19 -28 -13 0 -20 29 -9 36 6 3 8 18 5 32 -3 15 -1 34 4 42 8
11 9 7 4 -14 -10 -42 12 -25 27 21 11 35 13 36 21 15 4 -12 12 -32 17 -44z
m-97 -41 c-9 -32 -7 -37 19 -56 37 -27 37 -42 2 -32 -20 6 -27 13 -25 26 3 13
-1 16 -12 12 -19 -7 -19 -6 -7 25 5 13 13 37 17 53 3 17 8 25 11 18 2 -6 0
-27 -5 -46z m-32 -86 c0 -16 -25 -19 -38 -5 -11 12 -8 14 13 14 14 0 25 -4 25
-9z m190 -158 c0 -32 -5 -28 -14 10 -4 19 -3 26 4 22 5 -3 10 -18 10 -32z"/>
<path d="M1220 2000 c0 -5 5 -10 10 -10 6 0 10 5 10 10 0 6 -4 10 -10 10 -5 0
-10 -4 -10 -10z"/>
<path d="M1208 1928 c-2 -29 2 -71 8 -93 11 -37 12 -32 8 49 -2 49 -6 91 -8
93 -2 3 -6 -20 -8 -49z"/>
<path d="M1131 1953 c-1 -6 -4 -20 -7 -30 -5 -17 -5 -17 6 0 6 10 9 23 6 30
-3 9 -5 9 -5 0z"/>
<path d="M1130 1880 c1 -8 7 -28 15 -45 l15 -30 -6 35 c-6 36 -24 66 -24 40z"/>
<path d="M1318 2721 l64 -28 -34 -27 c-45 -35 -29 -33 25 4 52 35 73 58 62 68
-4 4 -12 0 -18 -9 -9 -14 -12 -14 -29 3 -13 13 -33 18 -75 18 l-58 -1 63 -28z"/>
<path d="M1870 2730 c0 -5 5 -10 10 -10 6 0 10 5 10 10 0 6 -4 10 -10 10 -5 0
-10 -4 -10 -10z"/>
<path d="M156 2721 c-3 -5 1 -11 9 -15 8 -3 15 -1 15 4 0 13 -18 22 -24 11z"/>
<path d="M152 2666 c11 -8 15 -20 11 -34 -3 -13 -1 -22 6 -22 12 0 15 29 5 54
-3 9 -14 16 -23 16 -15 -1 -14 -2 1 -14z"/>
<path d="M1610 2635 c-7 -9 -11 -18 -8 -20 3 -3 11 1 18 10 7 9 11 18 8 20 -3
3 -11 -1 -18 -10z"/>
<path d="M790 2607 c0 -13 66 -77 78 -77 12 0 11 4 -4 21 -21 23 -74 63 -74
56z"/>
<path d="M176 2535 c-18 -18 -20 -33 -8 -53 6 -9 14 -6 32 13 22 23 22 27 8
41 -14 14 -17 14 -32 -1z m24 -23 c0 -5 -7 -9 -15 -9 -8 0 -15 4 -15 9 0 4 7
8 15 8 8 0 15 -4 15 -8z"/>
<path d="M260 2516 c0 -9 30 -14 35 -6 4 6 -3 10 -14 10 -12 0 -21 -2 -21 -4z"/>
<path d="M175 2464 c-11 -9 -29 -22 -39 -30 -11 -7 -17 -17 -13 -20 4 -4 16 1
27 11 18 17 20 17 26 0 4 -9 1 -20 -6 -25 -10 -6 -10 -9 1 -15 15 -10 59 38
58 63 0 13 -2 12 -9 -4 -9 -23 -30 -41 -30 -27 0 5 5 14 12 21 9 9 9 12 -1 12
-11 0 -11 3 -1 15 16 19 1 19 -25 -1z"/>
<path d="M1002 2458 c3 -7 13 -15 24 -17 25 -4 52 -28 75 -66 11 -17 19 -23
19 -14 0 21 -45 81 -73 96 -29 16 -50 16 -45 1z"/>
<path d="M250 2456 c0 -2 7 -9 15 -16 12 -10 15 -10 15 4 0 9 -7 16 -15 16 -8
0 -15 -2 -15 -4z"/>
<path d="M271 2400 c-1 -28 14 -57 21 -44 3 5 -1 23 -8 39 -13 29 -13 29 -13
5z"/>
<path d="M1740 2386 c0 -2 8 -10 18 -17 15 -13 16 -12 3 4 -13 16 -21 21 -21
13z"/>
<path d="M181 2284 c0 -12 -8 -27 -16 -34 -8 -7 -15 -17 -15 -22 0 -6 7 -5 15
2 24 20 19 -22 -6 -54 -20 -26 -20 -28 -4 -46 28 -31 35 -24 35 29 0 28 5 53
10 56 6 3 10 11 10 16 0 6 -4 7 -10 4 -5 -3 -10 -1 -10 4 0 6 10 11 23 11 12
0 30 12 40 25 15 22 16 25 2 25 -8 0 -15 -6 -15 -14 0 -32 -45 -29 -53 2 -4
13 -5 11 -6 -4z m-1 -136 c0 -16 -3 -19 -11 -11 -6 6 -8 16 -5 22 11 17 16 13
16 -11z"/>
<path d="M234 2225 c-12 -25 -17 -43 -10 -42 6 1 10 -8 8 -20 -4 -29 28 -32
35 -4 3 11 12 22 22 24 11 3 9 5 -6 6 -14 1 -23 -5 -23 -13 0 -8 -4 -17 -9
-20 -13 -8 -7 54 7 81 14 25 15 33 5 33 -5 0 -18 -20 -29 -45z"/>
<path d="M2543 2228 c-56 -60 -121 -144 -144 -190 -11 -22 -31 -43 -47 -49
-20 -8 -23 -12 -12 -19 8 -5 18 -6 22 -4 4 3 8 1 8 -5 0 -6 16 -3 37 6 26 11
55 14 93 10 63 -7 51 6 -23 24 -57 13 -57 11 16 116 59 85 101 153 95 153 -2
0 -22 -19 -45 -42z"/>
<path d="M1681 2224 c0 -11 3 -14 6 -6 3 7 2 16 -1 19 -3 4 -6 -2 -5 -13z"/>
<path d="M1661 2143 c-7 -32 -17 -75 -22 -96 -6 -21 -12 -50 -14 -65 -10 -65
-29 -157 -34 -162 -8 -7 -14 -31 -13 -53 0 -9 -6 -29 -14 -45 -7 -15 -14 -36
-14 -47 0 -26 -36 -80 -44 -67 -3 6 -3 18 0 29 6 14 4 16 -6 6 -11 -10 -16 -9
-26 5 -12 16 -13 15 -14 -6 0 -19 -4 -22 -27 -16 -16 3 -43 15 -61 25 -39 22
-66 25 -38 4 34 -26 129 -57 136 -45 8 13 60 -43 60 -65 0 -28 18 -15 45 31
23 39 31 45 52 41 19 -3 26 1 33 19 5 13 15 24 21 24 8 0 8 -4 -1 -15 -11 -13
-10 -14 4 -9 9 3 16 10 16 15 0 5 11 9 24 9 14 0 28 5 31 10 12 19 -26 23 -67
7 -22 -9 -45 -14 -51 -10 -6 4 -8 0 -5 -8 3 -9 -7 -20 -28 -30 -36 -18 -65
-10 -47 13 6 7 17 33 24 58 l13 45 6 -50 c3 -34 7 -44 12 -32 4 9 5 24 1 32
-7 21 14 192 37 290 30 125 41 198 32 207 -5 5 -14 -17 -21 -49z m-93 -545
c-3 -7 -15 -14 -29 -16 -23 -2 -23 -2 -5 13 24 18 39 20 34 3z"/>
<path d="M1515 2160 c-10 -11 -13 -20 -8 -20 13 0 38 29 31 35 -3 3 -13 -4
-23 -15z"/>
<path d="M400 2112 c0 -4 21 -18 48 -31 26 -13 85 -48 131 -78 l84 -54 -63
-30 c-65 -30 -79 -50 -19 -25 70 28 103 28 144 0 l38 -26 -17 26 c-13 21 -14
26 -3 26 24 0 78 -22 75 -30 -3 -9 -214 -166 -250 -186 -25 -15 -79 -66 -74
-71 2 -2 21 5 42 16 21 12 47 21 57 21 22 0 133 45 166 68 37 25 55 22 67 -13
13 -35 7 -65 -12 -65 -27 0 -182 -88 -279 -159 -110 -80 -119 -88 -90 -76 11
4 28 8 37 9 9 0 15 3 12 7 -4 7 127 106 196 147 l34 21 28 -26 c15 -15 28 -32
28 -39 0 -7 4 -14 9 -16 4 -1 18 -30 29 -63 12 -33 21 -52 22 -42 0 29 -22
111 -32 118 -6 4 2 29 16 58 25 49 43 65 43 38 0 -7 3 -26 7 -42 7 -29 7 -29
-13 -11 -12 11 -21 16 -21 11 0 -4 11 -18 25 -31 25 -23 26 -31 29 -139 1 -69
43 -26 45 47 1 39 14 41 56 8 74 -59 125 -131 150 -213 8 -23 14 -33 14 -22 2
41 -59 147 -121 211 -33 35 -67 64 -75 64 -7 0 -13 9 -13 20 0 11 -7 23 -15
26 -11 5 -12 10 -2 25 9 14 8 32 -5 81 -10 40 -14 82 -11 116 6 60 -8 69 -32
22 -9 -17 -21 -28 -26 -24 -7 4 4 21 25 43 23 24 36 46 36 64 l0 27 35 -14
c19 -8 35 -11 35 -6 0 5 -10 11 -22 15 -13 3 -33 11 -45 17 -17 8 -26 8 -38
-2 -12 -10 -21 -9 -48 4 -19 8 -60 18 -93 22 -43 4 -73 15 -110 39 -69 45
-234 127 -234 117z m465 -222 c-3 -5 1 -10 10 -10 14 0 14 -2 -1 -25 -10 -15
-26 -25 -40 -25 -27 0 -32 -15 -8 -24 9 -3 14 -12 11 -19 -2 -6 0 -20 5 -29
13 -26 3 -22 -33 13 l-31 31 -12 -24 c-7 -13 -19 -22 -29 -20 -9 2 -17 -1 -17
-6 0 -5 -9 -12 -20 -15 -28 -7 -25 8 8 32 15 11 35 28 44 37 9 9 24 14 32 11
10 -4 13 -1 9 9 -3 8 -1 14 4 12 5 -2 22 12 37 30 26 30 44 43 31 22z m33
-122 c-13 -25 -19 -108 -7 -108 4 0 7 -9 6 -20 -1 -23 -17 -28 -17 -5 0 7 -8
19 -17 24 -10 6 -13 11 -7 11 6 0 9 13 6 31 -3 20 0 34 9 40 10 6 11 9 2 9 -7
0 -13 5 -13 11 0 6 6 9 14 6 8 -3 17 1 20 9 3 8 8 14 11 14 3 0 0 -10 -7 -22z
m-238 -43 c-7 -8 -17 -15 -23 -15 -6 0 -2 8 9 19 22 21 33 19 14 -4z m160 -90
c0 -12 -29 -75 -35 -75 -3 0 -3 11 1 25 5 21 3 25 -17 25 -37 0 -5 21 44 29 4
0 7 -1 7 -4z m107 -27 c-3 -7 -5 -2 -5 12 0 14 2 19 5 13 2 -7 2 -19 0 -25z
m-5 -67 c-4 -11 -8 -10 -19 5 -7 10 -13 24 -13 33 0 11 4 10 19 -5 10 -10 16
-25 13 -33z m-2 -55 c0 -3 -4 -8 -10 -11 -5 -3 -10 -1 -10 4 0 6 5 11 10 11 6
0 10 -2 10 -4z"/>
<path d="M220 2060 c-72 -61 -75 -65 -77 -121 l-2 -54 12 50 c10 40 22 60 60
94 l47 44 1 -64 c1 -89 10 -114 38 -114 53 0 53 73 1 100 -26 13 -30 21 -30
55 0 22 -3 40 -7 40 -5 0 -24 -14 -43 -30z m103 -110 c7 -26 -22 -58 -34 -38
-5 7 -9 28 -9 46 0 29 2 32 19 23 10 -6 21 -20 24 -31z"/>
<path d="M2792 1995 c-40 -14 -99 -38 -130 -54 -66 -33 -162 -44 -201 -22 -16
9 -39 11 -70 7 -25 -4 -53 -7 -61 -7 -8 0 -36 -5 -61 -10 -26 -6 -53 -12 -60
-13 -28 -6 -49 -18 -49 -30 0 -6 29 -26 65 -45 36 -18 65 -38 65 -43 0 -6 -24
-41 -53 -77 -125 -155 -128 -176 -8 -57 49 48 91 84 94 80 3 -5 8 -30 12 -56
10 -68 21 -59 17 13 l-4 61 39 -28 c54 -41 62 -54 63 -96 0 -21 4 -38 8 -38 4
0 6 16 4 35 -5 44 2 44 29 3 17 -28 19 -29 13 -8 -4 14 -17 41 -30 61 -12 20
-24 47 -27 60 l-4 24 -2 -24 c-1 -25 -1 -25 -36 9 -40 39 -42 50 -17 74 18 15
21 14 64 -24 25 -22 78 -82 117 -134 70 -93 71 -94 75 -162 3 -66 30 -154 43
-141 3 4 0 13 -6 21 -12 15 -35 145 -27 153 3 3 12 -9 21 -27 9 -18 19 -30 21
-27 3 3 -4 23 -15 46 -25 48 -26 67 -6 115 16 38 24 43 43 24 9 -9 7 -15 -6
-25 -15 -13 -14 -14 10 -10 30 5 64 -26 138 -125 43 -58 66 -79 36 -33 -9 14
-23 36 -32 50 -9 14 -13 25 -10 25 4 0 -7 20 -24 45 -30 43 -30 45 -10 45 12
0 46 -7 76 -16 30 -8 60 -14 67 -11 16 6 -118 47 -154 47 -19 0 -34 8 -44 24
-18 27 -79 70 -112 78 -28 7 -29 -2 -4 -34 17 -22 18 -28 6 -78 l-13 -55 -16
38 c-9 21 -21 58 -25 82 -4 23 -26 75 -49 114 l-41 71 35 0 c32 0 34 -2 24
-20 -13 -24 -2 -26 26 -5 27 20 51 18 112 -10 64 -30 59 -14 -6 19 l-47 24 75
35 c70 31 175 69 225 80 11 3 -5 5 -35 6 -34 0 -82 -9 -128 -24z m-486 -125
c0 -33 -3 -39 -15 -34 -9 4 -38 12 -66 19 -31 8 -44 15 -35 19 14 6 99 33 110
35 3 1 5 -17 6 -39z m139 28 c35 -31 45 -38 45 -31 0 4 9 -7 21 -26 11 -18 18
-40 15 -48 -3 -8 -1 -11 4 -8 9 6 14 -8 11 -27 0 -5 3 -8 8 -8 5 0 12 -7 15
-16 11 -29 -10 -10 -94 86 -9 10 -33 25 -54 34 -45 19 -49 19 -41 5 4 -6 0
-16 -8 -22 -9 -7 -17 -28 -19 -47 -2 -25 -8 -36 -22 -38 -12 -3 -17 1 -14 10
3 7 2 20 -3 29 -6 12 -4 18 10 22 9 2 26 22 37 44 16 32 25 39 46 39 15 -1 24
2 22 6 -8 12 6 9 21 -4z m-90 -18 c-3 -5 -11 -10 -16 -10 -6 0 -7 5 -4 10 3 6
11 10 16 10 6 0 7 -4 4 -10z m-28 -52 c-3 -8 -6 -5 -6 6 -1 11 2 17 5 13 3 -3
4 -12 1 -19z"/>
<path d="M2255 1875 c-16 -7 -23 -14 -14 -14 8 -1 24 6 35 14 24 18 18 18 -21
0z"/>
<path d="M810 2003 c0 -15 46 -66 56 -62 5 2 -6 19 -23 37 -18 19 -33 30 -33
25z"/>
<path d="M195 1980 c3 -5 10 -10 16 -10 5 0 9 5 9 10 0 6 -7 10 -16 10 -8 0
-12 -4 -9 -10z"/>
<path d="M2178 1935 c-21 -24 -38 -48 -38 -54 0 -6 -26 -27 -57 -47 -32 -20
-86 -58 -120 -85 -35 -27 -65 -49 -67 -49 -2 0 13 32 34 70 21 39 34 70 30 70
-5 0 -16 -12 -24 -27 -8 -16 -16 -26 -16 -23 -36 148 -54 174 -26 36 13 -61
13 -72 0 -99 -11 -21 -13 -32 -5 -40 12 -12 15 -47 5 -47 -3 0 -15 11 -26 25
-11 14 -29 25 -40 25 -17 0 -19 -5 -16 -42 3 -39 1 -42 -30 -55 l-33 -13 17
27 c16 27 16 27 -14 -4 -18 -17 -58 -46 -90 -63 -32 -17 -91 -55 -131 -86 -67
-50 -76 -54 -102 -45 -16 5 -66 13 -111 17 l-83 6 5 72 c3 49 9 70 18 69 15
-4 16 13 2 22 -26 16 -40 -18 -40 -91 l0 -74 -52 -1 -53 -1 55 -12 c50 -10 55
-13 56 -38 3 -132 5 -158 15 -158 8 0 9 29 4 96 l-8 96 69 -7 c38 -4 86 -11
108 -17 l39 -9 -34 -35 c-18 -19 -28 -34 -22 -34 7 0 38 29 69 65 51 58 62 65
95 65 43 0 58 -22 28 -43 -11 -8 -40 -33 -65 -57 -56 -53 -104 -75 -270 -129
-118 -38 -187 -71 -308 -150 -45 -29 -42 -37 5 -14 19 10 39 18 44 19 6 1 46
11 90 22 44 11 97 23 118 27 l39 6 -2 -48 c-4 -75 -1 -103 11 -103 6 0 8 11 5
28 -3 15 -1 34 4 42 8 11 9 7 4 -15 -7 -27 -6 -29 9 -16 10 7 17 20 17 28 0 8
4 12 9 9 5 -3 0 -23 -10 -43 -10 -21 -19 -44 -19 -52 0 -12 -3 -12 -17 1 -10
8 -42 32 -72 53 l-53 37 -27 -26 c-18 -18 -33 -24 -49 -19 -17 4 -22 1 -22
-13 -1 -19 -22 -54 -33 -54 -2 0 -8 12 -12 27 -4 16 -9 23 -12 16 -2 -7 0 -21
6 -31 14 -26 4 -33 -25 -20 -14 7 -23 17 -20 25 3 7 1 13 -4 13 -6 0 -10 -4
-10 -8 0 -4 -14 -16 -31 -26 -36 -21 -129 -32 -129 -15 0 16 -118 66 -207 88
-112 28 -133 32 -133 27 0 -5 130 -47 165 -53 10 -2 22 -7 25 -12 10 -15 52
-33 66 -27 8 3 14 1 14 -4 0 -5 7 -7 15 -4 11 5 13 2 9 -10 -3 -9 -17 -19 -30
-22 -13 -3 -28 -12 -35 -20 -9 -12 -5 -11 24 1 47 20 84 19 95 -1 8 -15 11
-15 36 1 44 29 40 10 -5 -20 -48 -34 -153 -146 -205 -218 -20 -29 -33 -49 -29
-45 4 4 55 52 114 106 58 55 138 127 177 160 l72 61 5 -27 c4 -19 -3 -47 -22
-84 -22 -47 -44 -70 -126 -136 -103 -81 -202 -169 -175 -156 8 5 70 52 136
106 67 54 124 98 127 98 3 0 1 -15 -5 -32 -5 -18 -10 -95 -10 -170 l1 -138
-85 -47 c-46 -26 -82 -48 -81 -50 5 -4 158 64 170 76 14 14 30 14 21 0 -4 -7
3 -6 17 2 13 7 27 13 31 14 3 0 9 3 13 7 4 4 14 4 23 1 10 -4 13 -2 8 5 -4 6
1 10 11 10 10 -1 30 1 44 5 21 5 27 2 37 -21 l12 -27 -6 28 c-4 23 -1 30 16
34 16 4 18 8 9 14 -8 4 -10 11 -6 15 3 4 13 2 21 -5 17 -14 60 0 69 23 4 9 11
16 17 16 6 0 8 -4 5 -10 -3 -5 -1 -10 5 -10 6 0 -19 -39 -55 -86 -36 -47 -65
-91 -65 -97 0 -7 8 0 18 16 9 15 20 27 25 27 4 0 5 -6 1 -12 -19 -31 136 116
181 172 28 35 62 77 77 94 l26 31 -8 -43 c-8 -46 -20 -65 -27 -44 -3 6 -9 12
-15 12 -6 0 -6 -6 2 -15 13 -16 22 -4 -140 -209 -38 -50 -70 -94 -70 -100 0
-5 -8 -19 -17 -30 -18 -21 -18 -21 5 -2 12 11 22 25 22 33 0 8 4 12 9 9 5 -3
15 2 22 11 12 14 12 16 0 8 -10 -5 -12 -4 -7 4 4 6 11 9 16 6 9 -5 181 133
195 156 9 14 22 11 22 -5 0 -26 26 -111 39 -126 7 -8 16 -28 19 -43 13 -50 15
-22 5 56 -5 43 -6 87 -1 99 6 17 3 28 -12 43 -15 15 -19 16 -14 4 3 -9 0 -16
-9 -16 -8 0 -14 4 -14 9 0 15 -42 8 -67 -12 -14 -11 -22 -20 -17 -20 8 0 -13
-20 -50 -50 -18 -14 -19 -14 -7 8 7 13 20 31 29 41 45 47 70 80 65 85 -4 3 -2
6 4 6 16 0 45 79 38 101 -4 11 -2 19 4 19 6 0 11 -6 11 -14 0 -7 7 -19 15 -26
10 -9 13 -24 9 -54 -5 -35 -2 -45 18 -65 18 -17 23 -31 20 -52 -2 -16 -8 -26
-13 -23 -5 3 -9 1 -9 -5 0 -5 7 -11 14 -13 23 -5 196 -288 196 -320 0 -25 3
-27 40 -26 22 0 43 4 46 9 3 5 -6 9 -20 9 -19 0 -26 5 -26 19 0 10 -21 45 -46
77 -91 117 -158 233 -148 258 3 9 10 13 15 10 14 -8 11 -26 -3 -18 -10 5 -10
3 0 -7 7 -8 18 -14 24 -14 6 0 12 -7 13 -16 2 -9 18 -38 37 -65 19 -27 56 -91
83 -141 39 -76 51 -91 62 -81 12 10 12 13 -2 21 -9 5 -34 45 -56 90 -22 45
-43 84 -48 87 -14 9 -32 50 -22 50 5 0 11 -6 14 -12 8 -21 148 -200 153 -195
8 8 -85 184 -130 245 -26 35 -45 69 -43 75 2 7 -4 31 -14 55 -10 23 -15 50
-12 59 4 11 3 14 -5 9 -7 -4 -12 -1 -12 8 0 36 31 8 90 -81 19 -28 38 -49 44
-46 5 3 6 1 2 -5 -4 -6 2 -20 14 -32 24 -24 24 -24 5 29 -20 57 -45 111 -67
142 l-17 26 31 -6 31 -6 58 -215 c31 -118 61 -236 64 -262 4 -27 11 -51 17
-54 13 -8 14 -5 22 39 5 27 4 37 -4 32 -6 -3 -3 12 6 34 15 39 15 41 -15 103
-28 59 -81 223 -81 254 0 7 -9 22 -21 33 -28 26 -9 35 36 16 19 -8 52 -22 73
-30 l37 -15 -39 35 c-22 19 -57 40 -77 45 -38 10 -73 45 -63 62 3 4 1 8 -4 8
-5 0 -13 10 -17 22 l-8 23 -4 -23 c-3 -13 0 -37 6 -54 9 -26 8 -29 -5 -24 -9
3 -24 6 -33 6 -10 0 -31 19 -48 43 -47 64 -81 94 -126 112 l-42 15 40 -6 c22
-3 54 -7 72 -9 62 -7 72 -13 64 -43 -10 -33 -4 -52 15 -52 8 0 14 -6 13 -12
-3 -24 1 -38 10 -38 6 0 11 19 13 42 2 34 8 44 32 57 16 9 28 20 26 25 -1 5 5
13 14 18 19 10 22 38 4 38 -6 0 -20 7 -30 17 -10 9 -18 11 -18 5 0 -6 5 -14
10 -17 15 -9 12 -27 -8 -52 -17 -22 -17 -22 -19 38 l-2 61 40 17 c58 24 47 34
-13 10 -29 -11 -56 -23 -60 -26 -5 -2 -7 8 -4 24 2 15 5 35 6 43 1 8 6 2 10
-15 7 -26 8 -23 8 20 0 28 -2 42 -6 33 -4 -10 -12 -14 -19 -10 -8 5 -5 25 12
75 26 77 26 77 77 -28 41 -84 75 -173 88 -235 7 -35 8 -24 4 49 -6 99 -15 158
-34 226 -6 22 -12 45 -13 50 -2 6 -11 23 -22 39 -19 29 -19 29 3 44 12 8 22
21 22 29 0 11 -7 9 -30 -7 -16 -12 -31 -18 -31 -13 -3 17 -4 153 -2 153 2 0
16 -14 32 -30 32 -34 78 -149 88 -216 10 -76 18 -39 13 59 l-6 95 -51 50 c-28
28 -48 53 -45 56 2 3 -7 10 -21 15 -14 5 -28 19 -32 30 -3 11 -24 36 -46 55
l-40 34 63 36 c34 19 64 33 66 31 7 -7 -30 -55 -39 -49 -5 3 -9 -5 -9 -18 0
-13 -5 -29 -12 -36 -7 -7 -8 -12 -2 -12 5 0 24 24 41 53 36 61 67 92 82 82 17
-10 13 -45 -5 -45 -14 0 -14 3 -4 18 7 9 -4 -1 -24 -23 -20 -22 -36 -44 -36
-50 1 -5 12 2 25 18 30 34 64 37 63 5 -3 -52 3 -98 12 -98 6 0 10 13 10 28 0
16 9 47 20 70 11 22 20 55 20 72 0 16 4 30 10 30 9 0 30 -61 30 -87 0 -7 4
-13 8 -13 5 0 6 19 2 43 -8 56 -4 67 26 67 68 0 143 -68 199 -180 40 -79 61
-100 40 -39 -8 23 -15 50 -15 61 0 31 -36 93 -75 127 -20 17 -64 44 -99 60
-69 31 -120 86 -95 101 7 5 17 6 22 3 10 -6 57 36 57 51 0 12 113 86 130 86 5
0 10 8 10 19 0 10 7 24 15 31 20 17 58 70 54 75 -2 2 -21 -16 -41 -40z m-323
-296 c-4 -5 1 -9 9 -9 18 0 31 -37 18 -53 -5 -7 -8 -20 -7 -29 4 -23 -9 -23
-30 -1 -13 12 -15 25 -10 52 4 20 8 41 8 48 0 7 4 10 9 7 5 -3 6 -10 3 -15z
m92 -15 c9 -23 -27 -51 -39 -30 -11 19 0 46 18 46 8 0 17 -7 21 -16z m-127
-54 c0 -5 -2 -10 -4 -10 -3 0 -8 5 -11 10 -3 6 -1 10 4 10 6 0 11 -4 11 -10z
m-35 -9 c-6 -5 -21 -11 -35 -15 -21 -5 -20 -3 5 9 35 17 42 18 30 6z m-135
-60 c0 -5 -7 -12 -16 -15 -24 -9 -28 -7 -14 9 14 17 30 20 30 6z m26 -118 c-3
-3 6 -17 20 -32 13 -14 22 -33 18 -41 -3 -8 -6 -44 -8 -80 -2 -53 2 -71 21
-100 13 -19 23 -43 23 -52 0 -10 4 -18 8 -18 5 0 13 -16 19 -35 16 -51 -1 -43
-33 14 -25 46 -54 73 -54 51 0 -6 -4 -10 -10 -10 -5 0 -10 15 -10 33 0 21 -8
41 -20 52 l-20 18 20 14 c22 15 27 48 9 58 -6 4 -8 22 -4 44 8 50 -13 70 -56
54 l-29 -11 30 30 c17 16 30 34 30 39 0 5 11 2 25 -7 14 -9 24 -19 21 -21z
m-36 -63 c0 -28 -2 -30 -27 -24 -38 9 -37 9 -12 33 31 28 39 26 39 -9z m-42
-46 c19 -9 20 -13 8 -17 -9 -4 -16 -11 -16 -18 0 -6 6 -9 13 -6 47 19 47 19
47 -2 0 -18 -4 -20 -27 -15 -16 4 -35 10 -44 15 -24 12 -93 -24 -149 -80 -28
-28 -53 -51 -56 -51 -2 0 -4 11 -4 25 0 19 -7 26 -32 33 -19 5 -40 5 -50 1 -9
-5 -32 -11 -51 -13 -30 -4 -126 -27 -174 -42 -48 -15 41 28 97 47 36 12 71 26
78 32 7 5 15 8 17 5 3 -3 36 6 73 19 37 14 79 27 94 30 15 3 33 11 39 19 6 8
17 14 23 14 6 0 24 14 40 31 l29 30 11 -23 c6 -12 22 -28 34 -34z m-19 -78
c14 -17 11 -88 -5 -93 -6 -2 -11 15 -13 39 -1 23 -5 45 -8 48 -3 3 -3 -21 -1
-53 l5 -58 -66 -47 c-36 -25 -88 -64 -114 -85 -26 -22 -49 -38 -51 -36 -2 2
-8 19 -14 38 -11 32 -10 36 26 76 20 24 40 44 45 44 4 1 23 19 43 41 33 36
118 100 134 100 4 0 13 -6 19 -14z m44 -22 c8 -8 -3 -34 -14 -34 -5 0 -9 9 -9
20 0 19 11 26 23 14z m18 -72 c-6 -2 -11 -8 -11 -13 0 -6 5 -7 12 -3 8 5 9 -6
3 -42 -5 -27 -9 -89 -9 -137 l-1 -89 -34 -14 -34 -14 7 87 c3 48 11 90 17 94
6 3 9 12 8 20 -2 8 8 48 21 89 18 56 25 69 28 50 2 -13 -1 -26 -7 -28z m-307
-6 c-14 -29 -20 -33 -32 -24 -10 9 -16 8 -23 -3 -7 -11 -9 -9 -10 9 -1 12 -2
28 -3 35 -1 9 69 28 82 21 2 -1 -5 -18 -14 -38z m259 -13 c-7 -2 -13 -12 -13
-20 0 -9 -3 -14 -6 -10 -10 10 4 37 18 36 10 0 10 -2 1 -6z m-33 -43 c0 -5 -5
-10 -11 -10 -5 0 -7 5 -4 10 3 6 8 10 11 10 2 0 4 -4 4 -10z m34 -5 c-4 -8 -9
-15 -13 -15 -4 0 -7 -8 -8 -17 -1 -10 -5 -62 -9 -115 -8 -108 -13 -114 -62
-73 -17 14 -36 25 -43 25 -21 1 -49 25 -49 43 0 22 -17 30 -24 12 -3 -8 -13
-15 -21 -15 -9 0 -13 -4 -10 -10 3 -5 14 -10 25 -10 10 0 21 -7 24 -16 3 -9 2
-12 -5 -9 -6 4 -13 -2 -16 -14 -3 -12 -10 -21 -16 -21 -6 0 -7 3 -4 6 4 4 -1
19 -10 34 -9 15 -14 34 -11 41 5 13 178 144 178 136 0 -2 -7 -18 -16 -36 -9
-18 -18 -50 -21 -72 -7 -48 -18 -50 -34 -4 -7 19 -17 35 -21 35 -12 0 -10 -7
12 -50 18 -34 23 -38 38 -29 10 6 26 33 35 58 9 26 30 66 47 89 31 43 44 53
34 27z m-407 -55 c29 -23 53 -45 53 -50 0 -6 19 -22 43 -37 28 -19 43 -36 45
-53 2 -24 2 -24 -12 -6 -9 10 -13 23 -10 27 3 5 0 9 -7 9 -7 0 -20 7 -30 16
-10 9 -26 14 -36 11 -14 -3 -11 -7 15 -17 26 -10 30 -15 21 -26 -7 -8 -9 -17
-5 -21 3 -3 6 -1 6 5 0 7 4 12 8 12 10 0 35 -51 28 -57 -12 -12 -80 50 -97 88
-21 46 -62 86 -97 95 -22 6 -22 7 -6 25 9 11 19 19 22 19 3 0 29 -18 59 -40z
m-62 -42 c32 -21 83 -103 71 -115 -3 -3 -1 -15 4 -27 5 -13 4 -30 -2 -40 -8
-14 -7 -17 1 -12 6 4 11 1 11 -7 0 -7 -7 -14 -15 -14 -8 0 -15 3 -15 6 0 3
-11 19 -25 35 -17 19 -22 33 -15 40 12 15 -34 114 -64 138 -18 15 -19 18 -3
18 9 0 33 -10 52 -22z m174 -28 c1 -12 -1 -12 -14 1 -10 10 -13 22 -9 34 7 18
8 18 15 -1 4 -10 8 -26 8 -34z m-229 -20 c-13 -8 -12 -10 2 -10 15 0 48 -45
48 -65 0 -17 -45 3 -63 27 -18 24 -19 31 -8 54 9 21 15 24 24 15 9 -9 8 -14
-3 -21z m-61 -67 c-7 -7 -6 -13 1 -18 5 -3 13 1 16 9 10 27 27 18 19 -11 -5
-23 -4 -25 9 -14 12 10 18 9 33 -6 10 -10 29 -25 41 -33 12 -8 31 -39 42 -67
l20 -53 -41 -26 c-22 -14 -54 -34 -71 -44 -18 -11 -25 -20 -19 -25 6 -3 8 -11
5 -17 -4 -7 -2 -8 5 -4 6 4 8 12 5 18 -4 7 -2 8 4 4 7 -4 35 5 62 20 28 15 52
25 55 23 2 -3 7 -23 10 -44 l7 -40 -59 -17 c-32 -9 -67 -20 -76 -24 -9 -3 -17
-1 -17 5 0 35 -49 131 -88 173 l-45 48 28 55 c16 30 31 55 34 55 7 0 36 -113
46 -177 7 -44 19 -61 30 -43 3 5 7 55 9 110 2 94 1 100 -17 94 -11 -4 -27 2
-40 14 -30 26 -53 24 -67 -7 -7 -14 -15 -21 -17 -14 -2 7 1 22 8 35 8 13 13
26 14 30 0 3 3 10 8 14 4 4 7 15 7 25 0 10 8 19 18 21 20 4 37 -49 21 -69z
m474 -27 c8 -21 -1 -26 -50 -26 -23 0 -43 -5 -43 -11 0 -5 -4 -8 -9 -4 -6 3
-6 17 1 36 11 31 16 32 62 13 14 -5 17 -4 12 4 -4 7 -14 12 -22 12 -8 0 -14 5
-14 10 0 14 56 -16 63 -34z m-233 7 c0 -9 3 -13 7 -10 4 4 20 -5 36 -20 27
-26 29 -26 23 -6 -11 34 11 36 23 2 10 -29 8 -34 -27 -70 -55 -57 -117 -64
-83 -10 8 12 15 13 34 4 21 -10 26 -9 31 3 4 10 1 14 -6 11 -16 -5 -48 10 -48
23 0 14 34 12 48 -2 6 -6 15 -8 19 -4 4 4 0 12 -10 17 -9 6 -14 15 -11 21 4 6
1 9 -7 6 -21 -8 -49 10 -49 32 0 11 5 20 10 20 6 0 10 -7 10 -17z m436 1 c-4
-9 -1 -23 5 -31 9 -10 9 -19 -1 -37 -7 -13 -10 -29 -6 -34 8 -14 -3 -42 -17
-42 -7 0 -7 4 1 12 17 17 15 31 -4 24 -12 -5 -15 -2 -9 11 11 27 11 73 0 70
-6 -1 -9 -9 -8 -19 2 -14 -2 -15 -27 -5 -17 6 -30 14 -30 17 0 7 77 46 94 49
4 0 5 -6 2 -15z m-456 -44 c0 -5 -4 -10 -10 -10 -5 0 -10 5 -10 10 0 6 5 10
10 10 6 0 10 -4 10 -10z m-171 -52 c-1 -29 -3 -44 -6 -33 -2 11 -8 35 -13 53
-7 25 -5 32 6 32 10 0 14 -13 13 -52z m-144 23 c-3 -6 -11 -11 -17 -11 -6 0
-6 6 2 15 14 17 26 13 15 -4z m495 -8 c0 -20 -3 -24 -11 -16 -7 7 -9 19 -6 27
10 24 17 19 17 -11z m117 -22 c12 -9 23 -21 23 -28 0 -6 10 -19 22 -27 12 -9
17 -16 11 -16 -6 0 -20 10 -30 23 -10 13 -30 31 -46 41 -26 18 -28 18 -47 1
-10 -9 -20 -33 -22 -53 -2 -29 -7 -36 -25 -37 -30 -2 -29 18 2 49 16 16 25 36
25 55 0 29 1 30 33 19 17 -6 42 -18 54 -27z m-147 -3 c0 -6 -6 -8 -14 -5 -8 3
-16 1 -18 -5 -3 -7 -10 -8 -18 -3 -10 6 -10 11 4 21 19 13 46 9 46 -8z m-470
-29 c0 -5 -4 -9 -10 -9 -5 0 -10 7 -10 16 0 8 5 12 10 9 6 -3 10 -10 10 -16z
m495 -7 c-8 -8 -25 10 -19 20 4 6 9 5 15 -3 4 -7 6 -15 4 -17z m135 -30 c7 -5
-49 -52 -61 -52 -5 0 -9 26 -9 57 l0 57 32 -30 c18 -16 35 -31 38 -32z m-195
28 c-3 -5 -13 -10 -21 -10 -8 0 -14 5 -14 10 0 6 9 10 21 10 11 0 17 -4 14
-10z m-288 -32 c-3 -8 -6 -5 -6 6 -1 11 2 17 5 13 3 -3 4 -12 1 -19z m-88 -38
c36 -53 55 -69 27 -22 -17 26 -16 26 8 -3 15 -17 21 -32 15 -35 -10 -7 -2 -40
10 -40 4 0 7 -10 9 -23 1 -20 -8 -26 -81 -49 -45 -14 -83 -25 -85 -23 -1 1 7
48 18 104 11 56 20 111 20 122 0 33 24 21 59 -31z m401 33 c0 -12 -125 -133
-137 -133 -9 0 -13 16 -13 53 0 48 3 55 25 65 33 15 35 15 35 -4 0 -8 -4 -13
-9 -9 -5 3 -13 0 -17 -6 -4 -8 -3 -9 4 -5 7 4 12 3 12 -2 0 -6 15 5 34 24 22
22 40 32 50 28 9 -3 16 -8 16 -11z m247 -20 c4 -10 14 -23 22 -30 9 -6 13 -14
10 -17 -7 -8 -49 28 -49 42 0 6 -6 13 -12 15 -8 3 -6 6 5 6 10 1 21 -7 24 -16z
m-41 -4 c3 -6 0 -15 -7 -20 -22 -14 -28 -11 -22 11 6 22 18 26 29 9z m-1 -53
c12 -8 16 -20 12 -35 -3 -11 -2 -21 2 -21 9 0 43 -81 37 -87 -8 -8 -96 132
-96 152 0 10 26 5 45 -9z m-50 -37 c0 -10 5 -19 10 -19 10 -1 29 -40 22 -46
-5 -5 -23 10 -41 36 l-18 25 7 -25 c6 -20 5 -23 -5 -13 -10 10 -10 18 0 43 13
32 25 32 25 -1z m-235 -6 c-19 -34 -80 -98 -80 -85 0 6 5 12 10 12 6 0 10 5
10 12 0 11 58 78 67 78 2 0 -1 -8 -7 -17z m-130 -43 c-8 -5 -19 -10 -25 -10
-5 0 -3 5 5 10 8 5 20 10 25 10 6 0 3 -5 -5 -10z m456 -95 l16 -40 -41 44
c-30 32 -38 47 -29 52 17 11 33 -7 54 -56z m-458 -25 c-7 -10 -14 -17 -17 -15
-4 4 18 35 25 35 2 0 -1 -9 -8 -20z m508 -17 c-7 -7 -26 7 -26 19 0 6 6 6 15
-2 9 -7 13 -15 11 -17z m-45 -10 c13 -16 12 -17 -3 -4 -17 13 -22 21 -14 21 2
0 10 -8 17 -17z m115 -85 c8 -16 12 -28 10 -28 -9 0 -76 93 -76 104 1 14 46
-39 66 -76z m137 -58 c-7 -28 -13 -25 -13 6 0 14 4 23 9 20 5 -3 7 -15 4 -26z"/>
<path d="M1250 726 c0 -2 7 -7 16 -10 8 -3 12 -2 9 4 -6 10 -25 14 -25 6z"/>
<path d="M180 1940 c0 -5 8 -10 18 -10 13 0 18 -10 20 -42 3 -49 10 -64 24
-50 6 6 6 17 -1 30 -6 11 -11 32 -11 45 0 14 -7 28 -16 31 -23 9 -34 7 -34 -4z"/>
<path d="M2166 1831 c-7 -10 12 -141 21 -141 2 0 3 29 2 64 -2 67 -11 97 -23
77z"/>
<path d="M2930 1759 c0 -5 5 -7 10 -4 6 3 10 8 10 11 0 2 -4 4 -10 4 -5 0 -10
-5 -10 -11z"/>
<path d="M1755 1720 c10 -11 20 -18 23 -15 7 6 -18 35 -31 35 -5 0 -2 -9 8
-20z"/>
<path d="M1290 1695 c-5 -14 -14 -25 -20 -25 -5 0 -10 -11 -10 -25 0 -14 5
-25 10 -25 6 0 10 3 9 8 -4 26 16 51 47 57 19 3 34 10 34 15 0 13 -17 13 -25
0 -10 -16 -28 -12 -21 5 3 8 1 15 -5 15 -5 0 -14 -11 -19 -25z"/>
<path d="M176 1701 c-3 -5 0 -11 8 -14 8 -3 17 1 20 9 6 15 -19 20 -28 5z"/>
<path d="M224 1701 c4 -5 0 -12 -6 -14 -8 -4 -7 -6 3 -6 9 -1 19 -8 23 -16 6
-17 36 -21 36 -5 0 6 -7 10 -16 10 -9 0 -18 9 -21 20 -3 11 -10 20 -15 20 -5
0 -7 -4 -4 -9z"/>
<path d="M173 1665 c4 -8 2 -17 -3 -20 -6 -4 -10 -12 -10 -18 1 -16 30 23 30
40 0 7 -5 13 -11 13 -6 0 -9 -7 -6 -15z"/>
<path d="M200 1638 c1 -30 2 -31 12 -13 18 29 18 45 2 45 -9 0 -14 -11 -14
-32z"/>
<path d="M1315 1620 c10 -11 20 -20 23 -20 3 0 -3 9 -13 20 -10 11 -20 20 -23
20 -3 0 3 -9 13 -20z"/>
<path d="M220 1620 c0 -5 5 -10 10 -10 6 0 10 5 10 10 0 6 -4 10 -10 10 -5 0
-10 -4 -10 -10z"/>
<path d="M205 1580 c-3 -5 -3 -10 2 -10 4 0 2 -4 -5 -9 -11 -6 -10 -11 3 -25
18 -18 35 -21 35 -6 0 6 -8 10 -17 11 -11 0 -13 3 -5 6 6 2 12 13 12 24 0 20
-15 26 -25 9z"/>
<path d="M1593 1574 c-3 -8 -1 -25 5 -37 10 -20 11 -18 10 16 -2 40 -5 45 -15
21z"/>
<path d="M1628 1567 c-3 -19 -2 -25 4 -19 6 6 8 18 6 28 -3 14 -5 12 -10 -9z"/>
<path d="M2230 1580 c0 -5 5 -10 10 -10 6 0 10 5 10 10 0 6 -4 10 -10 10 -5 0
-10 -4 -10 -10z"/>
<path d="M190 1485 c0 -8 5 -15 11 -15 8 0 7 -5 -1 -15 -11 -13 -10 -14 4 -9
37 14 12 -7 -31 -26 -25 -11 -44 -23 -40 -26 3 -3 15 0 27 6 27 15 38 5 22
-20 -17 -27 -15 -32 8 -25 18 6 20 2 20 -46 0 -66 10 -59 15 11 2 29 9 56 15
60 7 4 9 13 6 19 -5 8 -14 4 -26 -11 -11 -13 -19 -17 -20 -10 0 6 4 12 9 12 5
0 13 10 17 23 4 12 12 25 18 29 7 5 4 8 -8 8 -11 0 -16 5 -13 13 3 7 -4 19
-14 25 -16 10 -19 9 -19 -3z m20 -75 c0 -5 -2 -10 -4 -10 -3 0 -8 5 -11 10 -3
6 -1 10 4 10 6 0 11 -4 11 -10z"/>
<path d="M1732 1431 c-11 -7 -11 -15 2 -45 8 -20 21 -36 29 -36 7 0 24 -11 36
-24 13 -14 36 -30 52 -36 16 -7 29 -17 29 -22 0 -5 4 -7 8 -4 5 3 9 -1 9 -9 0
-8 -5 -11 -11 -8 -6 4 -19 8 -29 8 -13 1 -9 -5 15 -23 42 -32 199 -190 215
-217 6 -11 12 -15 12 -10 1 15 -88 164 -127 213 l-34 42 39 0 c21 0 56 -9 77
-21 21 -11 35 -15 31 -8 -13 20 -88 49 -130 49 -53 1 -114 39 -145 91 -29 48
-59 72 -78 60z m48 -53 c0 -18 -17 -7 -29 19 -13 28 -13 28 8 9 12 -11 21 -23
21 -28z m195 -195 c2 -8 -11 -2 -30 13 -19 14 -35 28 -35 31 0 9 60 -32 65
-44z"/>
<path d="M205 1231 c3 -6 -3 -14 -12 -20 -17 -10 -17 -10 0 -11 14 0 17 -5 12
-20 -3 -11 -2 -20 3 -20 11 0 22 48 15 67 -3 7 -9 13 -15 13 -5 0 -7 -4 -3 -9z"/>
<path d="M183 1163 c3 -13 1 -23 -4 -23 -5 0 -9 -5 -9 -11 0 -6 9 -8 20 -4 25
8 27 -15 4 -50 -9 -13 -14 -32 -11 -42 4 -14 5 -13 6 5 0 12 6 22 12 22 6 0 9
-7 5 -15 -3 -8 -1 -15 3 -15 8 0 21 23 21 36 0 2 -8 4 -17 4 -15 0 -15 1 2 13
10 8 15 19 11 26 -4 6 -2 18 4 26 10 12 9 15 -8 15 -12 0 -26 8 -32 18 -10 15
-11 14 -7 -5z"/>
<path d="M195 970 c3 -5 10 -10 16 -10 5 0 9 5 9 10 0 6 -7 10 -16 10 -8 0
-12 -4 -9 -10z"/>
<path d="M850 960 c8 -5 24 -9 35 -9 20 0 20 0 0 9 -11 5 -27 9 -35 9 -13 1
-13 0 0 -9z"/>
<path d="M200 935 c-18 -10 -20 -14 -8 -15 19 0 13 -40 -6 -40 -6 0 -3 -5 7
-11 9 -5 17 -17 17 -24 0 -8 5 -15 10 -15 6 0 9 3 8 8 -1 4 3 17 10 30 12 20
11 22 -10 22 -21 0 -20 2 10 20 17 11 32 24 32 30 0 15 -41 12 -70 -5z m45 -5
c-3 -5 -11 -10 -16 -10 -6 0 -7 5 -4 10 3 6 11 10 16 10 6 0 7 -4 4 -10z"/>
<path d="M150 915 c0 -14 4 -25 9 -25 4 0 6 11 3 25 -2 14 -6 25 -8 25 -2 0
-4 -11 -4 -25z"/>
<path d="M1880 908 c-19 -6 -30 -12 -25 -14 6 -2 33 3 60 10 29 8 40 14 25 14
-14 0 -41 -4 -60 -10z"/>
<path d="M232 786 c-6 -15 -19 -29 -28 -33 -12 -4 -13 -8 -3 -14 10 -6 10 -11
0 -23 -15 -18 -4 -21 19 -6 8 5 11 12 8 16 -4 3 0 20 8 36 8 16 14 34 12 40
-2 6 -9 -2 -16 -16z"/>
<path d="M180 780 c0 -5 7 -10 15 -10 8 0 15 5 15 10 0 6 -7 10 -15 10 -8 0
-15 -4 -15 -10z"/>
<path d="M233 737 c-4 -7 0 -8 13 -3 14 5 12 0 -10 -23 -17 -18 -25 -34 -21
-42 5 -7 4 -10 -2 -6 -6 4 -17 -1 -24 -10 -12 -14 -11 -15 8 -9 18 6 21 4 16
-16 -4 -16 -3 -20 5 -13 6 6 12 25 14 43 2 25 6 31 19 27 19 -6 23 -2 32 35 5
21 2 25 -19 26 -13 1 -27 -3 -31 -9z m29 -39 c-7 -7 -12 -8 -12 -2 0 14 12 26
19 19 2 -3 -1 -11 -7 -17z"/>
<path d="M1747 681 c-3 -12 -1 -24 5 -27 5 -3 7 -13 4 -21 -3 -8 -1 -11 4 -8
12 8 13 45 1 63 -6 10 -10 9 -14 -7z"/>
<path d="M242 639 c2 -7 10 -15 17 -17 8 -3 12 1 9 9 -2 7 -10 15 -17 17 -8 3
-12 -1 -9 -9z"/>
<path d="M183 623 c-15 -5 -17 -23 -4 -23 5 0 11 7 15 15 3 8 4 15 3 14 -1 0
-8 -3 -14 -6z"/>
<path d="M203 533 c-12 -2 -24 -12 -27 -21 -6 -22 -2 -79 7 -88 12 -12 67 -14
67 -3 0 5 -4 7 -10 4 -15 -9 -12 4 4 20 7 8 17 11 20 7 4 -3 4 1 1 10 -5 14
-10 12 -30 -8 -13 -13 -29 -24 -36 -24 -7 0 -1 9 12 21 16 13 23 29 21 45 -2
13 2 24 8 24 6 0 8 5 5 10 -3 6 -9 9 -13 9 -4 -1 -17 -4 -29 -6z m10 -34 c5
-3 2 -9 -7 -12 -12 -5 -16 0 -16 15 0 12 3 17 8 12 4 -5 11 -12 15 -15z m-6
-36 c-9 -9 -20 -13 -24 -9 -4 4 -1 11 7 16 25 16 35 11 17 -7z"/>
<path d="M265 517 c2 -12 6 -37 10 -54 5 -22 4 -33 -4 -33 -6 0 -11 -5 -11
-11 0 -8 5 -8 15 1 19 16 18 107 -1 114 -8 3 -11 -3 -9 -17z"/>
<path d="M1938 218 c21 -23 21 -26 7 -38 -17 -14 -45 -63 -45 -77 0 -4 7 1 15
11 8 11 15 18 16 15 0 -2 2 -12 5 -21 2 -10 6 -26 8 -35 3 -10 5 -19 6 -20 2
-2 3 -6 5 -10 7 -27 19 -43 31 -43 10 0 11 6 4 23 -5 12 -12 39 -15 61 -4 26
-12 40 -26 43 -26 7 -24 22 5 32 31 12 52 65 24 59 -7 -1 -24 4 -38 11 l-25
14 23 -25z"/>
<path d="M2955 210 c-3 -5 1 -10 10 -10 9 0 13 5 10 10 -3 6 -8 10 -10 10 -2
0 -7 -4 -10 -10z"/>
<path d="M560 189 c0 -5 5 -7 10 -4 6 3 10 8 10 11 0 2 -4 4 -10 4 -5 0 -10
-5 -10 -11z"/>
<path d="M398 153 c7 -3 16 -2 19 1 4 3 -2 6 -13 5 -11 0 -14 -3 -6 -6z"/>
<path d="M2170 151 c0 -6 4 -13 10 -16 6 -3 7 1 4 9 -7 18 -14 21 -14 7z"/>
<path d="M1911 65 c0 -32 22 -69 37 -64 6 2 0 24 -13 49 -23 44 -24 44 -24 15z"/>
<path d="M2010 81 c0 -5 7 -12 16 -15 14 -5 15 -4 4 9 -14 17 -20 19 -20 6z"/>
<path d="M1550 70 c0 -5 7 -10 16 -10 8 0 12 5 9 10 -3 6 -10 10 -16 10 -5 0
-9 -4 -9 -10z"/>
</g>
</svg>
