<?xml version="1.0" standalone="no"?>
<!DOCTYPE svg PUBLIC "-//W3C//DTD SVG 20010904//EN"
 "http://www.w3.org/TR/2001/REC-SVG-20010904/DTD/svg10.dtd">
<svg version="1.0" xmlns="http://www.w3.org/2000/svg"
 width="1130.000000pt" height="1200.000000pt" viewBox="0 0 1130.000000 1200.000000"
 preserveAspectRatio="xMidYMid meet">
<metadata>
Created by potrace 1.14, written by Peter Selinger 2001-2017
</metadata>
<g transform="translate(0.000000,1200.000000) scale(0.100000,-0.100000)"
fill="#000000" stroke="none">
<path d="M8660 11982 c-80 -41 -130 -74 -123 -84 3 -7 1 -8 -5 -4 -6 4 -51
-12 -99 -35 -222 -105 -374 -180 -448 -220 -82 -45 -199 -99 -216 -99 -22 0
-5 18 56 59 48 33 65 50 65 67 0 32 -36 28 -75 -6 -16 -15 -77 -58 -135 -96
-165 -107 -373 -258 -467 -339 -6 -5 -35 -29 -65 -52 -164 -130 -252 -203
-330 -275 -48 -43 -92 -76 -98 -73 -6 4 -3 16 9 31 11 13 17 33 14 44 -7 26
59 142 107 189 21 21 42 49 45 64 6 21 80 133 122 182 5 6 13 16 17 24 7 10 5
12 -4 6 -10 -6 -12 -4 -7 8 11 29 -11 18 -40 -19 -15 -20 -45 -55 -66 -78
l-39 -41 6 30 c15 87 16 162 2 205 l-14 45 -1 -53 c-1 -57 -20 -155 -53 -267
-18 -62 -126 -260 -151 -276 -5 -4 -7 -11 -3 -17 3 -6 2 -13 -4 -17 -16 -10
-11 -58 10 -93 l20 -33 33 17 c17 9 75 60 127 113 53 53 133 125 179 161 46
36 141 110 210 165 70 55 144 112 166 126 22 14 88 58 147 98 136 91 138 92
138 51 0 -31 1 -32 23 -18 12 8 45 22 72 32 61 22 359 176 363 188 2 4 9 8 15
8 6 0 112 50 234 110 123 61 227 110 232 110 15 0 139 59 146 70 10 17 -77 11
-115 -8z"/>
<path d="M865 11243 c11 -29 21 -97 17 -120 -2 -12 -13 -24 -25 -27 -26 -6
-94 -73 -84 -82 4 -4 27 -7 52 -6 25 0 47 -4 51 -9 10 -17 -6 -46 -31 -57 -32
-15 -32 -40 0 -52 23 -9 24 -12 14 -31 -6 -12 -31 -41 -55 -65 -36 -34 -44
-49 -44 -78 0 -31 3 -36 23 -36 13 0 32 9 42 20 22 25 40 26 30 3 -16 -40 -45
-177 -45 -211 0 -51 14 -72 29 -44 6 11 11 33 11 49 0 42 36 164 52 174 27 18
60 22 69 8 11 -18 10 -138 -1 -164 -10 -24 -9 -26 -24 55 -6 36 -15 65 -21 65
-19 0 -17 -85 3 -128 11 -23 22 -50 25 -59 22 -65 86 60 87 167 0 38 -16 95
-33 123 -11 17 -63 15 -81 -4 -15 -14 -16 -14 -16 0 0 9 9 25 20 36 11 11 20
23 20 28 0 4 17 18 37 32 50 34 73 57 73 75 0 23 -45 18 -90 -10 -51 -32 -57
-32 -25 2 28 31 34 73 10 73 -29 0 -17 51 20 87 33 32 34 34 17 53 -9 11 -27
20 -39 20 -21 0 -23 5 -23 48 0 42 -3 50 -29 65 -37 22 -45 21 -36 0z"/>
<path d="M5820 11174 c0 -3 34 -37 75 -76 41 -38 75 -74 75 -79 0 -5 -9 -9
-19 -9 -11 0 -33 -12 -51 -26 -33 -28 -29 -47 13 -60 12 -4 26 -13 32 -21 5
-7 34 -16 64 -20 50 -6 59 -11 124 -75 57 -55 67 -71 58 -82 -10 -12 -8 -13
10 -9 19 5 20 3 11 -14 -14 -26 1 -54 20 -35 10 10 24 -1 70 -50 74 -81 75
-56 3 51 -30 45 -55 85 -55 89 0 14 41 32 63 27 36 -8 49 6 34 38 -6 15 -15
27 -19 27 -4 0 -26 -19 -48 -42 -33 -35 -43 -40 -50 -28 -5 8 -20 30 -34 49
-35 47 -33 59 12 67 20 3 56 12 80 20 46 15 279 22 322 10 74 -22 -72 53 -170
87 -120 41 -167 46 -311 32 l-75 -7 -69 53 c-61 46 -165 99 -165 83z"/>
<path d="M5480 11064 c0 -9 12 -52 26 -96 22 -66 26 -92 22 -154 -4 -52 -10
-80 -23 -94 -10 -11 -21 -18 -25 -15 -4 2 -21 -6 -38 -19 -34 -25 -78 -76 -66
-76 12 0 -28 -35 -48 -43 -10 -3 -18 -12 -18 -18 0 -15 -26 -36 -70 -56 l-35
-16 28 -11 c32 -12 37 -30 5 -21 -17 5 -19 4 -8 -4 12 -8 12 -12 -3 -29 -41
-46 -6 -39 86 17 52 32 90 50 117 56 3 1 23 7 45 13 22 6 43 8 47 4 25 -25
-46 -148 -77 -135 -10 3 -15 -1 -15 -13 0 -11 -25 -39 -58 -66 -31 -26 -76
-64 -99 -85 -48 -45 -66 -57 -113 -79 -59 -27 -74 -33 -107 -39 -48 -9 -113
-47 -132 -75 -9 -13 -11 -21 -4 -17 7 4 16 0 22 -10 5 -10 12 -15 16 -12 9 10
80 -18 83 -33 4 -22 -216 -377 -240 -386 -30 -12 -161 -272 -137 -272 5 0 12
7 15 15 4 8 10 15 16 15 5 0 35 18 67 39 32 22 98 59 147 82 64 30 103 57 137
93 48 50 102 116 122 147 6 9 45 68 89 133 75 112 101 138 78 79 -12 -30 -37
-135 -46 -193 -9 -51 -112 -282 -362 -808 -30 -62 -54 -115 -54 -117 0 -3 -24
-55 -54 -117 -36 -75 -68 -126 -95 -153 -31 -30 -41 -47 -41 -71 0 -33 -16
-56 -51 -74 -27 -15 -24 -24 14 -43 17 -9 25 -16 15 -14 -15 2 -58 -37 -58
-54 0 -17 13 -39 23 -39 6 0 27 15 45 33 31 28 34 29 29 10 -3 -12 1 -39 8
-60 10 -30 11 -72 4 -188 -23 -389 -71 -863 -95 -934 -5 -14 -94 119 -94 140
0 18 -38 60 -44 50 -4 -5 -2 -29 4 -53 15 -64 24 -365 12 -417 -6 -24 -7 -51
-2 -60 4 -9 13 -38 19 -66 17 -71 26 -74 45 -17 17 51 62 118 119 180 22 23
26 32 15 32 -29 0 -31 51 -10 190 23 144 44 346 53 505 5 88 13 210 18 270 6
61 13 151 16 200 8 124 14 149 30 135 9 -8 12 -3 12 22 -3 100 2 125 28 136
28 13 51 7 82 -21 13 -11 26 -18 29 -14 4 4 1 35 -7 69 -9 43 -15 55 -17 38
-5 -34 -15 -42 -44 -35 l-24 6 13 67 c8 36 18 71 22 77 4 5 15 30 25 53 9 24
31 67 49 95 19 29 62 107 97 174 34 68 77 139 94 159 28 33 34 36 54 25 12 -6
22 -16 22 -21 0 -6 4 -10 9 -10 6 0 9 19 8 43 -2 38 1 42 23 45 13 2 30 11 37
20 12 15 16 14 41 -16 15 -18 31 -30 35 -26 15 15 6 52 -19 79 -20 22 -30 26
-52 20 -70 -17 -92 -18 -92 -1 0 13 7 15 39 10 55 -9 59 -3 324 363 56 78 107
142 114 143 6 0 15 -15 18 -32 4 -18 16 -50 26 -70 28 -55 12 -171 -30 -222
-8 -9 -9 -16 -3 -16 6 0 12 6 15 13 2 6 5 -5 5 -25 0 -21 -3 -36 -7 -33 -4 2
-8 -11 -9 -30 -2 -38 13 -45 33 -18 11 15 12 14 8 -11 -4 -20 -2 -27 5 -22 8
5 10 2 6 -8 -3 -9 -10 -16 -16 -16 -5 0 -6 5 -3 10 3 6 2 10 -3 10 -6 0 -12
-7 -16 -15 -3 -8 -1 -15 5 -15 6 0 8 -7 5 -17 -4 -9 4 -5 19 11 14 15 25 31
25 37 0 13 17 11 23 -3 4 -8 8 -4 12 9 14 44 58 41 90 -6 10 -16 23 -27 27
-25 4 3 8 -5 8 -17 0 -12 16 -36 35 -55 19 -18 35 -38 35 -44 0 -6 4 -8 10 -5
9 5 -13 51 -31 65 -15 11 -60 110 -55 119 3 5 -1 11 -8 14 -16 7 -12 80 4 85
6 2 10 12 10 23 0 10 5 19 10 19 6 0 10 7 10 15 0 8 5 15 10 15 6 0 10 6 10
13 0 8 11 19 25 25 14 6 25 17 25 23 0 6 7 9 15 5 29 -11 64 44 86 134 7 30
14 56 15 58 2 3 56 -26 113 -60 18 -12 45 -32 59 -45 26 -24 44 -24 23 0 -9
11 -8 17 4 27 12 10 20 9 42 -5 25 -17 26 -18 8 -31 -10 -8 -14 -14 -9 -14 6
0 15 5 21 11 9 9 16 8 28 -5 9 -9 29 -23 43 -30 15 -8 43 -33 62 -55 19 -23
38 -41 42 -41 11 0 136 -129 151 -156 36 -62 60 -93 68 -88 5 3 9 -2 9 -10 0
-9 7 -16 15 -16 8 0 15 -6 15 -12 0 -9 4 -8 10 2 8 12 10 10 10 -9 0 -16 4
-21 15 -18 20 8 29 -11 15 -28 -9 -11 -9 -15 -1 -15 6 0 11 5 11 11 0 5 5 7
11 3 17 -10 -8 33 -62 108 -59 82 -63 110 -7 48 22 -25 36 -35 29 -22 -7 12
-9 28 -5 34 4 6 3 8 -3 5 -6 -4 -19 3 -29 14 -9 11 -27 18 -38 17 -17 -3 -21
2 -21 30 0 21 -7 39 -18 47 -10 7 -17 16 -16 20 4 15 -116 141 -264 280 -47
44 -86 86 -86 93 -1 7 -8 15 -16 18 -8 4 -13 10 -10 14 5 8 -24 25 -37 22 -5
-1 -8 5 -8 14 0 8 -6 22 -12 29 -30 33 -34 41 -30 54 3 10 0 12 -12 8 -9 -4
-16 -2 -16 3 0 7 -62 40 -180 94 -20 10 -26 20 -28 57 -3 40 1 50 32 85 35 38
36 39 63 23 21 -12 27 -22 25 -42 -3 -25 0 -27 29 -23 18 2 55 -6 83 -16 54
-21 60 -22 91 -20 18 2 18 3 -3 18 -29 20 -28 44 1 45 12 0 33 2 47 4 14 3 42
7 62 10 21 3 52 12 70 19 49 21 70 29 98 33 13 2 28 9 31 15 4 6 16 8 27 5 12
-2 22 -1 24 4 2 6 20 11 40 12 21 2 43 8 50 15 7 7 17 12 23 12 5 0 3 -5 -5
-11 -11 -7 -2 -9 35 -8 28 0 55 0 60 -2 12 -2 38 -5 78 -7 16 -1 26 -6 23 -11
-3 -5 9 -11 27 -14 77 -14 146 -32 204 -53 34 -13 72 -24 85 -24 l23 1 -24 20
c-13 11 -30 18 -38 15 -7 -3 -13 -1 -13 5 0 5 -11 14 -25 19 -14 5 -25 16 -25
24 0 9 -17 20 -42 27 -24 6 -48 15 -55 21 -7 5 -17 7 -23 3 -6 -4 -16 -2 -23
3 -48 37 -281 41 -452 7 -11 -2 -74 -11 -140 -20 -66 -8 -140 -22 -165 -30
-71 -24 -142 -29 -165 -12 -19 14 -18 16 15 53 92 107 204 228 283 309 l89 90
18 -22 c10 -13 20 -23 23 -23 10 0 17 53 11 86 -5 30 -10 34 -36 34 -22 0 -33
-7 -46 -32 -24 -43 -105 -140 -221 -261 -54 -56 -117 -123 -141 -149 -45 -51
-55 -55 -95 -36 -29 13 -69 90 -62 119 6 23 -15 116 -47 209 -15 41 -31 103
-35 136 -10 72 -54 147 -129 221 -49 48 -70 62 -174 114 -67 34 -148 41 -148
13z m328 -781 c-2 -10 2 -22 9 -28 7 -5 17 -44 23 -85 6 -41 15 -87 20 -102 8
-26 7 -28 -19 -28 -15 0 -31 3 -34 7 -4 3 -35 8 -70 10 -150 8 -177 21 -117
56 34 20 44 55 11 37 -27 -14 -31 -13 -31 7 0 18 67 93 83 93 5 0 21 9 36 19
15 11 40 21 56 24 17 2 31 5 33 6 2 0 2 -7 0 -16z m-288 -209 c0 -4 -8 -23
-19 -43 -10 -20 -24 -48 -30 -63 -6 -16 -18 -28 -27 -28 -10 0 -14 -5 -10 -16
6 -15 -29 -93 -59 -129 -16 -20 -16 -20 -11 5 3 14 11 61 18 105 13 86 39 134
87 160 28 15 51 19 51 9z m17 -162 c14 -33 16 -35 28 -19 11 16 15 16 58 1 50
-17 53 -21 62 -110 7 -60 6 -63 -32 -111 -21 -28 -74 -97 -118 -154 -43 -57
-112 -144 -153 -194 -40 -49 -80 -98 -89 -109 -11 -14 -24 -17 -54 -13 -33 4
-42 1 -59 -20 -18 -23 -18 -26 -3 -49 15 -23 14 -26 -4 -47 -32 -35 -238 -387
-326 -557 -102 -197 -108 -206 -101 -154 4 21 53 133 110 247 57 114 104 213
104 220 0 29 75 201 245 562 28 61 66 143 85 183 21 47 39 72 49 72 27 0 90
72 97 110 7 38 41 144 56 173 12 23 27 13 45 -31z m353 -127 c13 -14 28 -25
34 -25 17 0 46 -59 46 -93 0 -20 -10 -43 -26 -62 -14 -16 -36 -41 -48 -55 -26
-31 -74 -62 -79 -52 -21 36 -26 257 -7 293 15 26 52 24 80 -6z"/>
<path d="M4760 11053 c0 -4 26 -16 58 -27 31 -10 69 -27 84 -37 14 -11 31 -19
36 -19 6 0 17 -6 25 -14 25 -26 167 -86 202 -86 19 0 35 -4 35 -9 0 -10 -48
-60 -115 -120 -48 -43 -87 -90 -54 -65 8 6 32 24 54 41 22 17 67 45 100 63 71
39 179 116 219 159 27 28 28 32 16 61 -15 36 -44 40 -61 8 -7 -13 -23 -31 -36
-41 -13 -10 -29 -25 -37 -32 -15 -15 -26 -10 -26 13 0 8 -11 25 -26 38 -52 49
-77 55 -243 59 -86 3 -173 7 -193 11 -21 3 -38 2 -38 -3z"/>
<path d="M1373 10548 c7 -3 64 -18 127 -32 207 -46 311 -77 570 -169 224 -80
347 -134 480 -211 25 -14 53 -29 62 -32 18 -6 41 -61 32 -75 -3 -5 -36 -25
-72 -44 -37 -19 -89 -48 -117 -64 -27 -16 -64 -37 -81 -46 -17 -9 -42 -28 -55
-42 l-24 -25 35 15 c19 8 78 32 130 54 149 64 179 69 301 51 57 -8 109 -11
115 -6 14 10 111 -38 125 -63 5 -10 15 -19 22 -19 7 0 21 -7 31 -15 18 -14 18
-15 -6 -47 -14 -18 -37 -55 -52 -83 -15 -27 -38 -68 -51 -90 -14 -22 -29 -49
-35 -60 -6 -11 -44 -78 -86 -150 -41 -71 -91 -163 -112 -203 -36 -71 -38 -73
-68 -67 -42 7 -56 -21 -19 -35 l25 -10 -25 -50 c-19 -37 -21 -48 -10 -43 12 4
10 -5 -8 -39 -13 -25 -31 -56 -40 -69 -24 -34 -20 -49 4 -19 56 67 117 137
148 167 29 28 39 32 66 27 38 -7 56 18 27 36 -13 9 -14 12 -4 17 8 3 36 25 63
49 27 24 53 44 58 44 4 0 19 10 33 23 14 12 37 31 52 41 14 10 52 50 84 89 31
39 68 82 82 97 84 88 129 139 150 170 38 55 120 152 146 172 12 10 26 29 30
41 3 12 22 57 42 100 l35 77 -22 58 c-20 49 -27 73 -30 104 -2 14 -91 98 -104
98 -6 0 -17 -4 -22 -8 -8 -5 -78 -90 -92 -111 -1 -2 -9 1 -16 8 -19 16 -104
26 -119 14 -22 -17 -160 -16 -183 1 -11 9 -27 15 -35 15 -8 0 -42 14 -75 30
-33 16 -80 38 -105 49 -25 11 -67 30 -95 42 -27 12 -75 30 -105 40 -69 22
-140 49 -162 61 -27 14 -175 53 -393 104 -95 22 -182 33 -295 34 -314 6 -368
5 -357 -1z"/>
<path d="M698 10268 c-12 -9 -29 -18 -35 -18 -7 0 -13 -8 -13 -17 0 -20 51
-53 81 -53 13 0 19 -7 19 -24 0 -22 -3 -24 -40 -19 -45 6 -52 -6 -24 -45 8
-12 11 -22 6 -22 -5 0 -21 27 -36 60 -15 33 -31 58 -36 55 -12 -8 -2 -92 15
-125 8 -16 15 -35 15 -42 0 -7 -38 -51 -85 -98 -47 -47 -85 -93 -85 -102 0
-23 11 -23 36 0 39 35 127 102 135 102 4 0 3 -14 -2 -32 -11 -38 2 -58 26 -38
13 11 15 6 15 -45 l0 -57 -29 7 c-37 8 -47 -7 -30 -46 9 -23 17 -29 32 -25 13
3 21 -1 24 -15 3 -10 9 -19 13 -19 8 0 30 46 30 63 0 7 13 20 29 30 18 10 40
39 55 72 36 74 33 102 -4 38 -26 -45 -54 -73 -74 -73 -15 0 -3 55 20 91 30 48
26 74 -11 67 -30 -6 -34 15 -7 37 9 7 28 23 42 34 21 18 23 22 10 31 -26 17
-65 1 -120 -51 -29 -27 -55 -48 -57 -45 -5 4 103 109 118 114 5 2 17 18 26 35
9 18 24 38 34 45 20 14 24 62 10 112 -9 34 -69 45 -103 18z"/>
<path d="M3760 9982 c0 -27 54 -64 125 -86 79 -24 131 -55 180 -107 50 -55
125 -166 125 -186 0 -9 3 -13 7 -10 19 20 -108 227 -186 305 -54 53 -136 93
-203 100 -43 4 -48 2 -48 -16z"/>
<path d="M3633 9902 c-18 -11 -28 -47 -48 -167 -10 -60 -20 -112 -22 -115 -2
-2 -37 -3 -78 -1 -61 2 -76 -1 -81 -13 -11 -27 5 -64 50 -119 66 -81 70 -92
70 -197 1 -165 -28 -230 -103 -232 -32 -1 -50 -26 -29 -40 7 -4 30 -8 51 -8
34 0 37 -2 37 -30 0 -37 12 -38 31 -2 20 39 29 43 79 36 75 -11 100 -29 100
-74 0 -29 -65 -82 -222 -183 -54 -34 -151 -100 -215 -147 -65 -47 -135 -97
-155 -110 -21 -14 -38 -28 -38 -32 0 -5 -7 -8 -15 -8 -8 0 -15 -4 -15 -8 0 -4
-12 -15 -27 -24 -38 -23 -105 -89 -98 -96 3 -3 12 3 21 14 14 18 15 18 10 1
-4 -12 -2 -17 6 -14 7 2 12 15 11 28 -2 21 -1 22 8 6 5 -9 7 -22 4 -27 -3 -6
-2 -10 4 -10 6 0 8 -7 5 -15 -4 -9 0 -15 9 -15 14 0 30 15 33 30 0 3 4 13 9
23 6 15 10 16 17 5 7 -9 8 -5 5 14 -2 16 1 29 9 32 9 3 11 0 7 -11 -5 -12 -2
-15 10 -10 10 4 20 0 26 -11 10 -16 10 -16 11 1 0 16 19 21 68 20 6 -1 12 3
12 8 0 5 -10 10 -22 10 -18 1 -16 3 7 8 20 4 30 12 29 24 -2 19 11 23 21 7 3
-5 11 -10 16 -10 5 0 1 12 -8 27 -10 15 -12 24 -5 20 7 -5 12 -3 12 3 0 6 7
18 15 26 13 14 15 13 15 -10 0 -23 4 -26 36 -26 21 0 33 4 29 10 -3 6 3 10 13
10 11 0 25 7 32 15 7 8 20 15 30 15 9 0 27 9 40 20 26 23 35 26 24 8 -8 -12
-5 -11 61 31 22 14 67 38 100 54 33 15 62 32 65 36 3 5 21 11 42 15 36 7 36 6
61 -46 30 -65 55 -151 66 -226 l8 -57 8 40 c4 21 16 47 25 58 10 10 28 61 40
114 12 53 28 109 34 125 12 27 13 27 27 11 36 -42 51 -77 51 -119 0 -24 -3
-48 -6 -53 -5 -8 -21 -83 -40 -188 -2 -11 -7 -29 -10 -40 -3 -10 -8 -34 -11
-53 -3 -19 -12 -53 -19 -75 -20 -56 -62 -210 -76 -275 -7 -30 -18 -74 -26 -98
-8 -23 -14 -53 -14 -65 1 -22 1 -22 15 -3 8 11 12 28 9 38 -3 11 -1 24 4 31 5
7 13 27 17 45 4 19 11 30 17 26 7 -4 8 -2 4 5 -4 6 -1 14 7 17 8 3 17 18 21
35 3 17 12 29 21 29 9 0 18 7 21 15 16 41 27 -2 14 -50 -5 -16 11 -45 25 -45
7 0 18 20 24 44 11 45 41 83 41 52 0 -9 5 -16 10 -16 6 0 10 -5 10 -11 0 -6
-7 -9 -15 -5 -17 6 -20 -11 -5 -34 7 -12 12 -8 25 20 9 19 27 55 42 80 46 80
53 95 53 108 0 6 5 12 10 12 6 0 10 6 10 13 0 17 23 67 31 67 23 0 88 -198 89
-267 0 -13 4 -23 9 -23 15 0 19 34 10 98 -6 45 -5 67 5 86 l13 26 27 -32 c24
-30 26 -37 22 -113 -2 -44 -5 -81 -5 -81 -1 -1 -10 -4 -21 -7 -24 -6 -25 -29
-6 -83 22 -64 44 -210 57 -381 6 -90 13 -163 15 -163 2 0 2 74 1 164 -1 90 -5
162 -8 160 -12 -7 -17 34 -6 45 6 6 7 11 2 11 -6 0 -9 36 -9 83 2 114 1 109
24 102 24 -8 25 -2 3 31 -15 24 -15 34 -3 113 13 86 16 138 19 264 0 38 5 66
9 63 15 -9 -10 129 -25 141 -15 12 -60 86 -70 116 -3 9 -9 17 -14 17 -5 0 -9
11 -9 24 0 14 -4 35 -9 48 -4 13 -11 44 -15 70 l-7 48 42 -15 c54 -19 59 -19
59 5 0 11 6 20 13 21 6 1 -17 8 -53 17 -60 16 -65 19 -68 47 -2 17 -8 34 -13
40 -5 5 -9 20 -9 32 0 33 -28 73 -51 73 -12 0 -24 -11 -30 -27 -20 -53 -53
-113 -79 -144 -24 -29 -29 -31 -69 -24 -45 8 -61 28 -43 54 7 9 16 25 21 37
13 30 102 107 164 142 58 33 96 67 117 107 20 37 4 48 -51 36 -24 -6 -59 -11
-78 -11 -19 0 -58 -8 -88 -17 l-53 -17 -34 40 c-20 21 -35 43 -36 47 -1 27
-138 174 -202 218 -87 60 -107 83 -104 121 2 18 4 43 5 56 2 41 18 23 42 -50
27 -83 35 -98 56 -98 18 0 18 -1 -30 128 -24 64 -31 92 -22 92 8 0 16 -6 18
-12 3 -7 6 -4 6 7 1 27 -19 55 -26 38 -11 -28 -23 -10 -23 35 0 49 -12 74 -58
125 -27 28 -39 32 -59 19z"/>
<path d="M696 9361 c-3 -5 -5 -35 -5 -67 2 -50 -2 -60 -22 -77 -61 -49 -119
-109 -114 -118 10 -15 48 -10 88 11 20 11 39 20 42 20 3 0 5 -25 5 -55 0 -61
-11 -85 -73 -152 -55 -59 -87 -104 -87 -122 0 -19 146 -154 158 -147 5 3 12
76 15 163 l7 158 46 88 c25 49 44 91 41 93 -2 2 -19 -17 -38 -42 l-34 -46 -3
42 c-4 58 1 68 43 76 19 3 38 10 41 15 11 18 -17 47 -51 53 -35 7 -35 7 -35
61 0 50 -10 69 -24 46z"/>
<path d="M927 9342 c-10 -10 -14 -21 -11 -25 3 -3 -10 -30 -30 -60 -46 -69
-46 -85 -2 -58 36 22 76 28 76 10 0 -5 -9 -30 -20 -53 -14 -32 -28 -47 -52
-55 -30 -11 -31 -13 -16 -25 16 -12 14 -17 -19 -67 -20 -30 -43 -60 -50 -67
-7 -7 -13 -21 -13 -30 1 -12 11 -6 34 21 32 35 47 46 45 30 -4 -23 3 -33 21
-33 11 0 20 -2 20 -4 0 -2 -9 -25 -20 -51 -24 -56 -25 -88 -5 -105 22 -18 83
-3 112 28 21 23 24 34 21 73 l-5 47 46 -2 c35 -1 46 3 49 16 2 12 -6 19 -31
23 -45 9 -73 -7 -81 -45 -6 -35 -56 -90 -80 -90 -22 0 -20 15 8 56 26 39 24
69 -5 85 -17 9 -18 12 -5 37 8 15 17 46 21 67 4 22 18 57 31 78 55 84 47 115
-23 95 -19 -5 -38 -7 -41 -4 -8 8 59 76 74 76 21 0 25 17 8 34 -20 21 -37 20
-57 -2z"/>
<path d="M9597 9079 c13 -13 -3 -59 -19 -59 -5 0 -6 5 -3 10 3 6 1 10 -4 10
-6 0 -11 -4 -11 -9 0 -5 -8 -7 -19 -4 -10 3 -22 0 -25 -6 -4 -6 -1 -11 6 -11
7 -1 1 -8 -14 -16 -16 -8 -28 -22 -28 -30 0 -8 -5 -12 -10 -9 -6 3 -13 -1 -16
-9 -3 -9 -10 -14 -14 -11 -4 3 -13 -2 -20 -10 -7 -8 -9 -15 -6 -15 4 0 2 -9
-4 -20 -6 -11 -16 -19 -22 -17 -7 1 -12 -2 -13 -8 -1 -20 -26 -55 -38 -55 -16
0 -40 -38 -32 -50 4 -6 1 -10 -4 -10 -6 0 -11 -6 -11 -14 0 -8 -4 -18 -10 -21
-6 -3 -7 1 -4 9 3 9 3 16 0 16 -4 0 -11 -12 -16 -26 -6 -14 -14 -22 -20 -19
-5 3 -10 2 -10 -3 0 -4 -8 -17 -17 -28 -24 -26 -73 -98 -73 -107 0 -4 -18 -33
-39 -65 -39 -57 -121 -213 -121 -230 0 -5 -11 -14 -25 -20 -14 -6 -25 -16 -25
-20 0 -5 -21 -15 -47 -22 -64 -18 -112 -48 -113 -71 0 -4 34 -12 76 -20 75
-13 76 -14 71 -42 -6 -41 7 -42 50 -5 55 48 90 65 161 77 34 6 90 16 125 22
34 6 79 11 100 10 20 0 37 1 37 4 0 12 -42 45 -50 40 -5 -3 -7 1 -4 9 4 11 -6
16 -43 21 -26 3 -57 10 -68 15 -11 5 -32 11 -47 14 -16 4 -28 13 -28 21 0 42
108 224 211 356 16 20 29 41 29 47 0 6 4 12 9 14 12 4 104 149 104 164 0 7 4
11 8 8 13 -7 42 44 35 61 -3 9 -2 14 3 11 5 -3 25 22 45 56 29 47 34 63 24 69
-19 13 -34 11 -21 -2z"/>
<path d="M5478 8789 c-10 -5 -18 -19 -18 -29 0 -11 -4 -20 -9 -20 -5 0 -13 -9
-16 -20 -3 -11 -13 -20 -21 -20 -8 0 -14 -4 -14 -10 0 -5 -8 -11 -17 -11 -10
-1 -4 -5 12 -9 17 -4 22 -8 13 -9 -10 0 -18 -5 -18 -11 0 -5 -7 -6 -17 -3 -11
4 -14 3 -9 -5 4 -7 1 -12 -8 -12 -9 0 -16 -4 -16 -10 0 -5 5 -10 10 -10 6 0
10 -4 10 -9 0 -5 -10 -7 -22 -5 -13 2 -17 2 -10 -2 6 -3 12 -12 12 -20 0 -9
-4 -13 -9 -10 -5 4 -7 -3 -4 -14 6 -24 26 -26 43 -5 7 8 19 15 26 15 8 0 16
11 20 25 3 13 15 27 26 31 11 3 17 12 14 20 -3 8 -2 14 3 14 8 0 18 25 48 118
12 35 4 41 -29 21z"/>
<path d="M1690 8562 c0 -7 8 -16 18 -20 118 -48 727 -444 757 -492 9 -15 -11
-37 -43 -45 -26 -6 -100 -38 -132 -56 -8 -5 -43 -23 -77 -40 -34 -18 -74 -43
-90 -57 l-28 -25 25 7 c75 22 291 75 330 81 54 9 126 7 153 -4 15 -6 32 -10
37 -8 8 2 78 -49 145 -105 40 -34 59 -36 50 -5 -14 44 -37 85 -61 108 -13 12
-24 26 -24 31 0 16 147 -10 192 -33 10 -5 26 -9 36 -9 11 0 27 -9 37 -20 10
-11 26 -22 36 -25 11 -4 24 -15 29 -25 9 -17 -2 -28 -94 -89 -103 -68 -196
-136 -491 -356 -80 -60 -163 -121 -184 -135 -20 -14 -69 -51 -108 -82 -40 -32
-75 -58 -78 -58 -3 0 -2 12 1 27 6 23 -5 16 -65 -45 -40 -39 -77 -72 -82 -72
-5 0 -9 -6 -9 -13 0 -7 -9 -23 -20 -35 -11 -12 -20 -28 -20 -36 0 -15 -55 -66
-71 -66 -5 0 -9 -4 -9 -9 0 -4 45 14 101 41 136 66 223 96 289 99 30 2 62 9
71 16 9 8 20 13 25 11 5 -1 18 3 29 9 11 6 36 13 56 17 21 4 42 13 49 21 7 8
23 15 36 15 15 0 24 6 24 15 0 16 16 21 22 6 2 -5 23 0 48 11 58 27 121 57
140 67 44 25 124 61 135 61 8 0 18 7 22 15 10 17 73 65 85 65 4 0 8 -7 8 -15
0 -15 32 -16 46 -2 11 11 44 8 44 -3 0 -6 7 -27 17 -48 9 -20 24 -64 33 -97
14 -53 15 -67 2 -123 -11 -52 -18 -65 -43 -78 -24 -12 -28 -18 -19 -29 8 -10
7 -16 -6 -23 -16 -9 -15 -10 4 -16 24 -8 24 -14 -6 -116 -8 -30 -14 -61 -13
-69 1 -7 -2 -11 -6 -8 -5 3 -14 -9 -21 -26 -10 -28 -10 -30 2 -14 10 13 15 15
18 5 3 -7 22 23 43 67 21 44 54 101 74 126 31 40 41 47 69 45 29 -1 33 -4 29
-23 -2 -12 -1 -20 3 -18 8 5 30 -62 30 -89 0 -9 8 -16 18 -17 12 0 13 -2 3 -6
-10 -4 -8 -9 10 -19 17 -9 19 -13 8 -14 -20 0 -22 -45 -3 -61 22 -18 47 -3 38
23 -6 23 -6 22 15 -2 21 -23 21 -25 5 -37 -16 -12 -16 -13 4 -13 23 0 31 -19
10 -21 -7 -1 -2 -4 12 -8 14 -4 24 -13 23 -18 -4 -21 29 -24 34 -3 3 11 9 18
13 15 5 -3 6 3 3 13 -2 10 -13 23 -24 30 -16 10 -19 9 -19 -5 0 -15 -2 -16
-10 -3 -11 17 6 31 28 23 11 -5 13 -1 7 16 -4 12 -2 28 5 36 6 8 9 19 6 24 -4
5 -7 33 -7 61 -1 28 -6 53 -10 56 -15 9 18 34 35 28 18 -7 22 26 7 54 -5 9
-11 40 -14 67 -7 59 -15 84 -35 107 -12 14 -12 20 -2 33 9 11 9 15 1 15 -7 0
-9 4 -6 10 3 5 -1 26 -11 45 -16 35 -13 96 6 120 4 6 16 42 25 82 15 64 16 82
5 153 -13 82 -31 109 -65 96 -16 -6 -95 -120 -95 -138 0 -7 -7 -22 -15 -32 -8
-11 -15 -28 -15 -38 0 -24 -21 -23 -43 3 -17 20 -17 22 -1 47 9 14 48 59 87
99 38 40 81 88 94 108 13 19 27 35 32 35 5 0 11 35 15 78 5 68 11 111 15 120
0 1 10 -2 20 -8 36 -19 32 8 -4 29 -19 11 -35 24 -35 29 0 5 -23 12 -51 15
-48 6 -52 5 -81 -29 -27 -31 -34 -34 -67 -28 -33 6 -107 47 -122 67 -3 5 -9 8
-13 8 -20 -3 -26 0 -20 10 5 8 -1 10 -19 5 -17 -4 -31 -1 -40 9 -9 9 -17 11
-19 4 -2 -5 -12 -7 -22 -3 -11 4 -14 9 -7 14 6 3 -18 6 -54 6 -44 -1 -68 3
-74 12 -5 9 -29 13 -77 12 -157 -4 -234 15 -324 80 -175 126 -407 259 -581
332 -98 42 -104 44 -94 27 5 -8 1 -7 -12 4 -11 9 -23 14 -26 10 -4 -3 -7 -1
-7 5 0 7 -8 12 -18 12 -10 0 -23 5 -30 12 -9 9 -12 9 -12 0z"/>
<path d="M915 8517 c-22 -17 -88 -71 -147 -120 -99 -80 -108 -85 -108 -62 0
41 -17 29 -46 -32 -15 -32 -43 -76 -61 -99 -38 -47 -41 -58 -13 -49 24 8 24
17 0 -129 -18 -113 -18 -170 1 -182 5 -3 9 1 10 8 0 7 2 37 4 65 1 29 6 70 11
90 4 21 7 41 6 45 -1 4 3 20 9 35 6 15 12 35 13 43 6 49 35 86 91 115 74 38
146 103 195 176 34 50 88 105 95 97 2 -2 6 -95 9 -208 15 -455 51 -546 191
-481 56 26 104 80 112 125 4 28 -1 55 -23 107 -36 91 -91 142 -171 160 -30 7
-57 18 -59 24 -3 6 -8 76 -12 155 l-7 145 -30 2 c-21 2 -42 -7 -70 -30z m191
-328 c79 -39 102 -73 111 -162 6 -63 5 -65 -31 -104 -37 -42 -81 -62 -98 -45
-27 27 -76 342 -53 342 4 0 36 -14 71 -31z"/>
<path d="M10515 8217 c-9 -4 -13 -12 -11 -16 3 -5 -5 -13 -19 -19 -18 -8 -25
-8 -28 1 -2 8 -9 6 -21 -6 -19 -19 -31 -23 -21 -7 8 14 2 13 -31 -5 -16 -8
-38 -15 -49 -15 -11 0 -29 -7 -39 -15 -11 -8 -27 -15 -35 -15 -9 0 -115 -50
-236 -111 l-220 -110 -65 5 c-61 5 -291 -14 -352 -30 -18 -4 -28 -2 -28 5 0 6
-5 11 -10 11 -6 0 -20 8 -31 18 -10 11 -32 25 -47 32 -15 7 -38 18 -52 25 -45
22 -131 26 -211 9 -41 -9 -99 -18 -129 -21 -30 -3 -64 -11 -75 -19 -22 -16
-55 -19 -55 -5 0 20 -44 18 -85 -3 -74 -40 -331 -99 -390 -90 -39 5 -45 3 -60
-20 -10 -14 -25 -26 -34 -26 -23 0 -41 -19 -41 -43 0 -13 5 -17 15 -13 8 3 15
1 15 -4 0 -6 -9 -10 -19 -10 -11 0 -26 -3 -35 -6 -13 -5 -16 1 -16 25 0 26 -4
31 -25 31 -15 0 -31 -10 -41 -25 -9 -14 -114 -90 -233 -170 -312 -207 -416
-280 -501 -350 -41 -34 -87 -70 -102 -80 -16 -9 -28 -23 -28 -30 0 -12 -21
-25 -41 -25 -18 0 4 55 63 163 33 60 77 146 98 192 21 46 50 101 64 122 29 42
32 53 14 53 -18 0 -59 -54 -100 -133 l-35 -68 -18 37 c-9 20 -21 64 -25 98 -4
34 -13 74 -19 89 -12 30 -54 213 -66 284 -8 51 -22 64 -31 29 -8 -34 12 -157
52 -316 19 -74 34 -158 34 -185 0 -28 6 -59 13 -69 13 -17 14 -17 30 -1 9 9
17 14 17 11 0 -4 -31 -69 -70 -146 -38 -77 -70 -144 -70 -150 0 -5 6 -10 13
-10 7 0 24 -36 38 -82 25 -78 25 -85 11 -110 -9 -16 -19 -28 -22 -28 -3 0 -14
15 -24 33 -64 109 -128 157 -223 165 l-63 5 0 -44 c0 -24 5 -89 11 -144 l10
-100 -37 -32 c-21 -18 -44 -33 -53 -33 -18 0 -94 -26 -123 -41 -29 -15 -22 3
27 77 68 101 52 114 -25 19 -96 -117 -116 -133 -224 -186 -55 -27 -120 -62
-145 -78 -25 -16 -75 -45 -111 -64 -80 -44 -307 -206 -373 -268 l-50 -46 44 2
c24 0 46 -3 49 -7 3 -4 30 -4 60 1 58 9 74 6 50 -9 -10 -7 1 -8 32 -4 45 6 48
5 60 -22 7 -16 18 -35 25 -42 17 -17 17 -33 1 -27 -7 3 -22 -8 -33 -24 -11
-17 -31 -36 -45 -43 -13 -7 -70 -58 -125 -114 -55 -55 -122 -118 -150 -139
-27 -22 -66 -54 -85 -72 -51 -47 -139 -103 -162 -103 -10 0 -36 -9 -56 -20
-20 -11 -64 -31 -97 -45 -33 -14 -73 -32 -90 -40 -16 -7 -46 -17 -65 -21 -19
-3 -39 -10 -45 -14 -5 -4 -37 -16 -70 -25 -33 -10 -117 -35 -187 -56 -69 -22
-129 -39 -132 -39 -3 0 -6 11 -6 25 0 14 -4 25 -9 25 -15 0 -41 -42 -34 -54 3
-6 3 -8 -2 -4 -4 4 -13 2 -19 -6 -6 -7 -53 -28 -105 -45 -139 -48 -358 -144
-511 -224 -130 -68 -301 -173 -308 -189 -2 -5 -10 -8 -17 -8 -7 0 -15 -7 -18
-14 -4 -11 -1 -13 11 -9 11 4 6 -6 -13 -26 l-30 -33 40 17 c22 9 46 19 53 22
6 3 12 1 12 -5 0 -6 -6 -13 -12 -16 -42 -20 93 11 224 51 26 8 64 16 86 18 37
4 126 26 227 58 84 26 140 36 143 26 4 -10 45 -2 76 14 11 5 54 11 97 13 l77
3 7 -95 c8 -97 -5 -206 -25 -212 -11 -4 -3 -51 11 -66 5 -6 9 -24 9 -40 1 -51
26 -141 38 -140 7 1 17 2 23 3 12 1 39 63 39 90 0 11 5 32 11 48 11 27 12 27
29 -35 l19 -63 -26 -72 c-13 -39 -27 -76 -30 -80 -3 -5 -24 9 -47 30 -66 63
-137 116 -144 109 -3 -4 -1 -10 5 -14 8 -5 7 -11 -3 -19 -18 -17 -28 1 -14 26
13 24 -14 45 -123 96 -41 19 -90 50 -108 67 -18 18 -27 24 -19 13 21 -29 63
-64 78 -65 7 0 11 -4 8 -9 -8 -13 111 -101 129 -95 10 4 15 0 15 -13 0 -23 30
-53 51 -53 12 0 12 2 0 9 -8 5 -9 11 -3 15 10 6 25 -8 28 -26 1 -5 2 -11 3
-15 1 -5 6 -1 11 7 5 8 10 11 10 5 0 -5 -5 -17 -10 -25 -5 -8 -10 -10 -10 -4
0 7 -7 15 -16 18 -8 3 4 -18 29 -47 64 -75 101 -137 85 -141 -7 -2 -38 -9 -69
-15 -31 -7 -64 -18 -74 -25 -16 -12 -9 -16 61 -40 43 -15 91 -28 106 -29 25
-2 68 -43 68 -66 0 -6 -11 -16 -24 -21 -28 -10 -41 -42 -28 -66 8 -14 12 -10
28 22 10 21 24 39 30 41 6 2 22 -17 35 -42 13 -25 27 -45 31 -45 5 0 8 -8 8
-17 0 -14 2 -15 9 -4 11 18 18 -7 19 -66 1 -32 -4 -46 -19 -57 -18 -12 -24
-11 -57 20 -20 19 -80 63 -133 99 -96 64 -96 65 -117 129 -12 36 -33 89 -47
118 -14 28 -25 57 -25 63 0 14 -146 170 -159 170 -5 0 -18 9 -28 21 -23 27
-129 94 -148 94 -7 0 -16 4 -20 9 -3 5 -19 13 -37 16 -28 7 -30 8 -12 18 23
12 39 34 78 102 l28 50 -49 -53 c-38 -42 -56 -53 -80 -54 -29 -1 -31 -3 -22
-26 11 -27 12 -27 -104 -1 -42 10 -63 10 -75 3 -21 -13 -28 -60 -12 -79 10
-12 7 -21 -14 -46 -14 -17 -26 -34 -26 -37 0 -12 -75 -92 -86 -92 -7 0 -14 12
-17 28 -6 29 -66 126 -74 118 -2 -2 4 -21 15 -43 11 -21 25 -55 31 -75 7 -21
17 -38 22 -38 22 0 6 -19 -31 -38 -38 -19 -40 -19 -56 -1 -10 11 -24 19 -32
19 -9 0 -24 7 -33 16 -10 9 -30 16 -45 16 -26 1 -26 2 -20 50 4 27 4 53 1 58
-3 5 -27 -12 -53 -38 -26 -26 -96 -80 -155 -119 -83 -56 -109 -69 -113 -58 -8
20 -63 19 -176 0 -83 -15 -90 -15 -160 6 -121 35 -150 35 -185 2 -17 -15 -41
-36 -54 -46 l-24 -18 30 6 c17 3 52 11 80 16 27 6 63 8 79 5 47 -10 101 -50
120 -90 9 -20 24 -36 33 -36 8 0 38 16 64 35 27 19 52 35 55 35 4 0 33 16 66
36 32 20 61 34 64 31 3 -2 -45 -45 -105 -95 -131 -109 -363 -325 -481 -448
-85 -90 -180 -207 -180 -223 0 -5 -6 -11 -13 -14 -16 -6 -102 -116 -96 -122 3
-2 20 15 39 39 19 24 38 42 43 39 4 -2 6 -1 5 4 -2 4 6 18 17 29 11 12 33 40
49 63 27 37 30 39 43 23 13 -15 13 -15 3 5 -9 19 -7 25 14 39 14 8 31 12 37 8
7 -4 9 -3 6 2 -3 5 3 21 14 34 l19 25 0 -22 c0 -13 -4 -23 -9 -23 -5 0 -15
-16 -23 -36 -10 -29 -14 -32 -19 -17 -6 14 -8 12 -8 -9 -1 -18 -6 -28 -16 -28
-8 0 -15 -5 -15 -11 0 -6 -6 -9 -14 -6 -8 3 -17 0 -20 -8 -3 -10 0 -12 12 -8
14 5 14 3 -3 -18 -11 -13 -24 -27 -30 -31 -6 -4 -2 -8 8 -8 11 0 21 9 24 20 3
11 12 20 19 20 8 0 14 7 14 15 0 8 4 15 9 15 4 0 23 15 42 33 19 17 54 49 79
71 25 21 68 59 95 85 66 61 178 158 366 316 200 168 221 187 301 267 37 38 69
68 72 68 3 0 2 -15 -1 -34 -4 -27 2 -48 26 -92 30 -55 39 -99 24 -106 -20 -8
-142 -255 -175 -353 -7 -22 -29 -54 -48 -72 -19 -18 -54 -50 -76 -70 -33 -30
-40 -43 -35 -61 l6 -22 43 21 c24 12 45 20 47 17 2 -2 -2 -25 -10 -50 -7 -26
-24 -107 -37 -180 -20 -117 -22 -167 -22 -418 0 -281 10 -649 18 -657 2 -2 13
8 25 23 15 19 18 30 10 34 -7 5 -8 25 -5 56 18 144 30 212 61 344 19 80 44
195 55 255 61 313 66 329 97 303 9 -7 18 -7 29 3 28 23 74 11 74 -20 0 -6 4
-11 8 -11 15 0 112 -100 112 -115 0 -7 8 -16 18 -20 11 -3 24 -17 31 -31 9
-21 14 -24 26 -14 12 10 10 19 -17 57 -17 25 -39 48 -50 51 -10 2 -25 17 -34
33 -8 16 -18 29 -22 29 -11 0 -93 78 -119 113 -14 19 -23 45 -23 68 0 48 55
194 90 239 15 19 42 63 60 98 40 75 57 92 66 66 3 -11 14 -41 24 -69 55 -152
107 -344 120 -450 6 -49 15 -101 20 -115 5 -14 11 -45 14 -70 2 -25 12 -58 21
-75 l17 -30 -7 45 c-3 25 -8 94 -11 154 -2 60 -9 115 -14 121 -6 7 -3 17 10
28 21 18 26 37 11 37 -5 0 -12 -8 -14 -17 -4 -16 -5 -16 -6 -1 0 9 8 23 19 31
11 8 17 17 14 20 -4 3 -8 35 -9 71 -2 36 -6 70 -10 75 -3 6 -1 11 5 11 6 0 8
5 3 13 -15 24 -14 50 2 43 10 -3 15 1 15 13 0 14 5 18 19 14 15 -4 25 8 51 61
28 57 36 66 54 60 38 -12 77 -35 82 -49 3 -8 19 -17 35 -20 16 -4 29 -13 29
-21 0 -8 8 -14 19 -14 26 0 68 -36 85 -73 46 -100 84 -207 110 -307 21 -81 28
-74 -211 -224 -214 -133 -273 -172 -273 -180 0 -4 11 -1 25 8 34 22 38 20 19
-9 -16 -24 -15 -25 4 -25 11 0 25 7 32 15 13 15 40 21 40 8 0 -3 -26 -31 -57
-61 -32 -30 -49 -48 -38 -40 35 27 284 158 385 202 14 6 27 13 30 17 6 7 71
36 89 41 25 6 60 -151 67 -299 6 -119 5 -133 -11 -150 -18 -17 -18 -18 13 -21
l33 -3 -43 -52 c-23 -29 -45 -54 -48 -57 -3 -3 -41 -52 -84 -110 -43 -58 -93
-121 -111 -140 -44 -48 -103 -146 -105 -172 -1 -21 64 31 92 73 26 41 34 47
45 36 14 -13 6 -56 -19 -101 -12 -23 95 58 139 105 31 33 88 85 168 151 66 55
150 150 147 165 -2 8 3 13 11 11 8 -2 31 17 52 42 20 25 67 79 105 120 38 41
89 101 115 132 25 32 50 58 55 58 13 0 90 -77 90 -90 0 -11 -29 -60 -41 -70
-3 -3 -17 -21 -30 -41 -40 -60 -130 -167 -208 -248 -40 -42 -89 -101 -109
-131 -20 -30 -39 -59 -44 -65 -56 -71 -109 -138 -175 -227 -45 -59 -83 -105
-86 -102 -2 3 -7 -7 -11 -21 -4 -14 -13 -25 -21 -25 -8 0 -15 -5 -15 -10 0 -6
-12 -29 -27 -53 -29 -45 -53 -87 -53 -93 0 -2 6 -4 14 -4 13 0 77 63 109 109
9 14 19 22 23 19 6 -7 -37 -88 -65 -123 -26 -32 209 163 250 207 9 10 21 18
26 18 5 0 29 18 53 40 24 22 46 40 50 40 3 0 31 23 62 50 31 28 60 50 65 50 6
0 26 17 46 38 19 20 60 57 91 82 30 25 56 51 56 58 0 6 6 12 14 12 8 0 35 20
62 45 26 25 51 45 55 45 4 0 11 9 14 20 13 41 34 21 55 -52 44 -154 133 -419
143 -425 6 -4 8 12 4 43 -5 43 -5 46 5 22 7 -16 15 -28 20 -28 4 0 8 -11 8
-24 0 -35 10 -56 26 -56 8 0 21 -15 29 -32 15 -32 15 -31 9 37 -3 39 -7 95 -9
125 -1 30 -5 105 -10 165 l-7 110 31 -48 c31 -48 48 -56 68 -36 19 19 55 -29
174 -231 29 -48 232 -369 348 -550 99 -154 144 -230 178 -300 33 -69 36 -81
34 -151 -3 -77 13 -138 39 -154 7 -5 25 -8 39 -9 21 -1 28 -9 41 -46 9 -26 23
-46 33 -48 9 -2 17 0 17 5 1 4 7 30 14 57 15 58 2 71 107 -109 35 -60 92 -155
127 -210 86 -133 86 -134 123 -202 36 -67 45 -75 78 -68 33 8 47 25 53 65 6
42 -18 82 -64 106 -48 25 -298 428 -298 481 0 12 -4 25 -10 28 -16 10 -12 30
14 67 l24 36 -57 6 c-31 4 -70 4 -86 0 l-31 -6 -1 52 c-2 30 -10 64 -20 80
-50 79 -98 143 -115 153 -10 7 -18 16 -18 20 0 11 -48 75 -85 112 -38 39 -193
245 -231 307 -81 131 -111 179 -150 238 -41 64 -94 169 -94 189 0 5 -12 33
-27 63 -15 29 -28 66 -29 81 l-2 29 29 -28 29 -28 0 25 c0 13 -7 35 -16 47 -8
12 -12 22 -9 22 13 0 65 -34 65 -43 0 -5 19 -28 43 -51 100 -101 177 -196 177
-218 0 -4 -29 21 -66 57 -62 62 -84 76 -84 56 0 -12 29 -41 41 -41 5 0 9 -7 9
-16 0 -8 22 -41 49 -72 26 -31 61 -79 76 -107 15 -27 35 -61 44 -75 8 -14 16
-27 16 -30 0 -3 6 -14 12 -25 11 -18 12 -14 12 25 1 25 -6 74 -13 110 -8 36
-13 66 -11 68 4 4 86 -95 151 -183 32 -44 62 -84 67 -90 4 -5 21 -28 37 -50
93 -127 267 -345 284 -357 16 -11 20 10 6 28 -7 8 -10 17 -7 20 5 5 17 -6 42
-41 14 -19 -26 93 -45 128 -6 9 -21 45 -34 80 -26 66 -59 132 -125 245 -22 39
-41 73 -41 76 0 7 -62 109 -70 116 -4 3 -26 34 -50 70 -24 36 -49 70 -56 75
-17 15 -164 233 -164 244 0 5 -9 15 -20 22 -20 14 -20 15 -4 56 17 42 16 43
-16 132 -17 49 -39 92 -47 95 -10 4 -14 15 -10 31 2 14 2 23 -1 20 -7 -6 -38
62 -47 104 -3 17 -11 31 -17 31 -6 0 -9 3 -6 6 3 3 15 0 26 -7 11 -7 27 -9 36
-6 29 12 17 107 -15 107 -3 0 -4 -11 -1 -25 7 -37 -5 -60 -22 -46 -16 14 -49
101 -38 101 4 0 25 -5 47 -11 42 -12 131 -96 183 -174 15 -22 34 -46 42 -53
11 -10 12 -15 3 -18 -9 -4 -7 -11 7 -26 26 -29 171 -243 206 -305 16 -29 32
-53 37 -53 10 0 9 18 -3 25 -5 3 -10 14 -10 23 0 12 6 7 20 -13 11 -16 20 -24
20 -17 0 31 22 4 69 -88 28 -56 51 -96 51 -90 0 6 -7 25 -16 41 -8 17 -29 74
-45 127 -17 54 -41 124 -54 157 -13 33 -31 83 -40 111 -8 28 -32 78 -51 110
-20 33 -42 76 -50 97 -15 43 -45 99 -57 108 -5 3 -7 19 -5 35 2 21 9 30 26 32
12 2 20 7 17 12 -3 5 7 12 22 16 15 3 34 7 41 10 19 6 52 -18 52 -39 0 -10 4
-26 10 -36 5 -10 12 -32 15 -50 13 -74 77 -336 110 -451 20 -69 48 -168 61
-220 14 -52 45 -165 69 -250 24 -85 51 -184 60 -220 9 -36 22 -85 30 -110 7
-25 21 -74 30 -110 9 -36 21 -78 27 -95 12 -32 17 -70 23 -151 1 -28 15 -80
29 -115 14 -36 21 -65 16 -67 -16 -6 -12 -40 10 -82 26 -51 37 -56 68 -33 22
17 26 26 24 69 -1 36 7 71 33 134 19 47 32 69 28 50 -19 -88 -3 -160 53 -246
25 -38 79 -136 120 -219 42 -82 91 -177 110 -210 18 -33 41 -76 49 -95 9 -19
25 -55 37 -79 18 -37 19 -49 9 -76 -15 -42 -14 -87 2 -109 20 -28 98 -19 114
13 6 13 19 28 27 33 9 5 16 15 16 22 0 7 13 25 30 41 33 31 55 85 46 112 -3
10 -7 39 -7 66 -2 42 -8 54 -55 105 -29 32 -63 78 -75 103 -12 24 -28 51 -35
59 -17 20 -66 109 -105 190 -38 79 -69 174 -69 214 0 16 -5 59 -11 94 -13 75
-52 125 -89 115 -14 -4 -20 -1 -20 11 0 9 -6 16 -12 16 -7 0 -22 7 -32 15 -19
14 -18 16 8 55 23 35 30 40 64 38 21 0 47 4 59 10 24 13 63 107 63 153 0 33
-22 48 -44 30 -11 -10 -27 -5 -73 19 -32 17 -71 43 -86 56 -16 14 -32 23 -35
19 -3 -3 33 -44 81 -90 48 -47 87 -87 87 -90 0 -3 -12 -5 -27 -5 -35 0 -125
-92 -173 -178 -50 -89 -83 -140 -74 -117 3 11 17 52 31 90 13 39 29 80 35 93
9 16 8 28 0 47 -7 14 -17 36 -24 50 -6 13 -19 33 -28 42 -17 19 -40 60 -58
103 -42 103 -84 207 -87 220 -9 31 -34 96 -49 125 -9 17 -16 40 -16 53 0 12
-5 21 -12 20 -7 -2 -13 5 -13 14 0 9 -4 20 -8 24 -4 4 -7 17 -7 28 0 12 -9 26
-19 33 -18 11 -31 64 -32 125 0 19 -5 28 -17 29 -9 0 -12 3 -5 5 14 6 7 28
-18 64 -10 14 -21 42 -25 63 -5 32 -4 37 12 38 16 0 15 2 -3 9 -13 5 -23 16
-23 25 0 8 -4 15 -9 15 -5 0 -11 9 -14 20 -3 11 -2 20 2 20 4 0 5 16 3 36 -3
24 -8 34 -18 30 -8 -3 -11 0 -7 10 3 8 -2 23 -11 33 -9 10 -14 25 -11 33 4 9
0 22 -8 29 -7 8 -12 20 -9 28 2 7 0 16 -6 20 -38 23 67 99 112 81 12 -5 15 -9
8 -9 -7 -1 -10 -6 -7 -11 4 -6 10 -8 15 -5 9 6 66 -14 135 -46 22 -10 55 -24
73 -31 17 -7 32 -17 32 -23 0 -5 4 -4 9 4 8 12 12 12 25 2 9 -8 23 -10 33 -6
15 6 11 10 -17 20 -20 7 -37 20 -39 31 -2 10 -13 27 -24 37 -36 30 -161 84
-212 90 -27 4 -53 11 -59 17 -5 5 -22 10 -37 10 -18 0 -35 10 -50 30 -13 16
-30 30 -36 30 -7 0 -13 7 -13 15 0 8 -4 15 -8 15 -13 0 -42 100 -35 118 4 10
11 20 17 24 8 6 8 10 0 15 -6 5 -10 18 -9 31 1 13 -5 27 -14 32 -14 8 -14 10
-1 11 42 5 66 3 72 -6 15 -20 7 37 -8 60 -12 18 -22 23 -42 19 -15 -2 -35 2
-46 10 -26 21 -15 54 34 111 22 25 40 47 40 48 0 1 -4 16 -9 34 -9 30 -8 31
35 48 47 18 64 39 64 79 0 36 -27 59 -62 52 -39 -8 -61 5 -137 78 -70 67 -69
66 1 -43 26 -40 48 -78 48 -83 0 -6 -33 -51 -72 -101 -59 -74 -74 -87 -76 -70
-2 12 4 35 12 52 9 16 16 41 16 53 0 32 -29 141 -40 152 -12 12 -6 -85 7 -109
12 -23 7 -40 -23 -78 -27 -33 -54 -34 -121 -3 l-51 24 9 43 c6 23 13 47 16 52
3 6 1 7 -5 3 -6 -3 -13 -2 -17 4 -10 17 -25 11 -25 -10 0 -13 5 -18 15 -14 8
4 15 1 15 -5 0 -6 -4 -11 -9 -11 -6 0 -11 -15 -13 -32 -3 -29 -6 -33 -28 -29
-14 1 -27 6 -30 10 -3 4 -40 25 -83 47 -42 21 -76 43 -74 49 4 10 109 64 245
125 39 18 72 36 72 40 0 3 15 13 33 22 17 9 49 29 69 46 l38 30 -30 5 c-16 4
-44 0 -64 -8 -20 -8 -44 -15 -54 -15 -11 0 -25 -7 -32 -15 -8 -10 -17 -12 -29
-5 -13 6 -21 3 -32 -12 -8 -12 -22 -28 -31 -36 -9 -9 -15 -19 -12 -23 2 -4 -4
-5 -14 -2 -11 2 -27 -3 -36 -12 -9 -10 -19 -15 -22 -12 -3 2 -35 -6 -72 -19
-105 -37 -101 -39 -104 74 -5 163 10 348 37 468 23 97 28 111 44 107 27 -7 39
72 15 98 -37 41 -84 6 -84 -61 0 -20 -4 -61 -10 -91 -10 -53 -33 -322 -45
-533 l-7 -108 -37 5 c-59 10 -64 12 -108 34 -41 22 -55 32 -127 98 -21 20 -44
34 -50 32 -11 -4 -151 63 -198 95 -20 14 -28 30 -33 69 -4 32 -16 59 -31 75
-23 26 -44 25 -44 -2 0 -8 -12 -27 -26 -41 -24 -23 -29 -25 -62 -15 -21 7 -46
13 -56 14 -24 4 -34 28 -12 28 9 0 16 6 17 13 0 12 73 70 173 137 29 19 88 62
131 95 108 81 292 204 298 199 3 -3 -11 -44 -29 -92 -19 -48 -41 -114 -50
-147 -8 -33 -19 -78 -25 -100 -13 -49 -17 -135 -6 -135 4 0 7 8 7 18 0 22 35
57 57 57 8 0 22 21 33 52 10 28 25 64 33 80 9 15 30 57 47 93 37 75 41 81 97
144 41 47 42 47 67 31 17 -11 35 -15 54 -10 25 5 33 16 51 61 11 31 21 69 21
85 0 27 24 89 34 89 6 0 28 -92 28 -117 0 -13 6 -23 14 -23 7 0 19 -10 26 -22
16 -29 18 -148 3 -141 -20 7 -36 -44 -23 -72 8 -19 14 -22 20 -13 5 8 8 -2 9
-27 0 -22 2 -65 4 -95 1 -30 -2 -60 -7 -67 -5 -7 -5 -14 2 -18 5 -3 10 -1 10
5 0 6 10 15 23 21 17 8 22 19 22 49 1 24 7 45 17 52 8 7 21 35 27 63 7 27 16
54 20 60 11 13 68 208 84 283 10 52 14 59 27 49 14 -11 62 -79 86 -122 6 -11
26 -45 44 -75 56 -94 165 -321 199 -415 18 -49 37 -99 42 -110 58 -134 144
-398 175 -535 21 -94 23 -99 21 -50 -1 30 1 60 4 65 7 11 -13 202 -30 295 -9
49 -13 87 -26 255 -1 22 -8 76 -15 120 -6 44 -13 107 -15 139 -2 33 -8 69 -13
80 -29 63 -35 86 -38 140 -2 34 -12 76 -24 99 -12 22 -19 45 -16 52 2 7 -4 22
-14 33 -10 11 -17 28 -14 38 3 12 -12 44 -40 84 -25 36 -50 75 -56 88 -5 12
-14 22 -19 22 -5 0 -11 9 -14 20 -4 16 10 33 64 77 39 32 72 67 75 79 6 25
-11 64 -28 64 -6 0 -38 -24 -72 -53 -90 -79 -97 -82 -131 -47 -25 26 -27 34
-21 77 3 26 15 64 25 84 14 27 19 52 16 95 -4 74 -14 147 -25 199 -13 57 4
109 24 76 3 -5 17 -12 30 -15 30 -7 116 -88 116 -108 0 -8 13 -27 29 -42 15
-15 33 -45 40 -66 6 -22 16 -40 21 -40 6 0 10 -6 10 -12 0 -7 11 -35 24 -63
27 -55 126 -329 126 -348 0 -22 16 -38 33 -31 9 3 14 10 11 15 -3 5 2 9 10 9
17 0 19 8 20 87 1 35 -3 54 -12 58 -7 3 -11 9 -8 14 12 20 18 141 8 172 -6 19
-14 59 -18 89 -7 54 -7 55 13 38 11 -10 23 -18 27 -18 21 0 363 -278 397 -322
3 -5 44 -47 91 -95 171 -175 189 -186 182 -112 -4 48 -33 101 -51 95 -13 -5
-15 0 -17 39 -2 25 -67 155 -78 155 -4 0 -8 6 -8 13 0 7 -16 32 -35 54 -19 23
-35 46 -35 51 0 6 -17 31 -37 55 -63 74 -73 87 -73 94 0 4 -11 16 -25 28 -14
11 -26 31 -27 45 -3 25 -2 25 87 30 76 4 90 8 93 23 2 9 -1 17 -5 17 -201 7
-271 20 -348 65 -48 29 -184 95 -195 95 -17 0 -91 92 -97 121 -3 17 -12 33
-19 36 -7 2 -16 18 -19 35 -4 17 -20 52 -36 77 -33 52 -130 147 -160 156 -10
4 -19 10 -19 15 0 4 24 39 53 76 28 38 60 81 70 97 15 23 24 27 67 27 27 0 61
5 76 10 15 6 28 9 30 8 1 -2 6 -28 9 -58 5 -40 4 -51 -4 -40 -9 12 -11 10 -11
-11 0 -26 38 -222 61 -313 l12 -48 12 38 c7 22 15 68 18 103 3 35 10 68 16 74
6 6 11 20 11 30 0 10 9 31 19 46 11 15 25 50 32 77 7 27 23 72 37 99 31 63 51
153 52 228 0 53 7 67 24 50 4 -4 15 -8 24 -8 17 0 38 -56 98 -258 14 -49 27
-87 28 -85 2 2 -2 65 -7 141 -13 170 -1 242 41 259 15 5 58 8 96 5 107 -7 296
-107 427 -225 41 -37 147 -179 185 -247 6 -11 43 -75 83 -142 39 -67 71 -126
71 -131 0 -4 11 -19 25 -32 22 -21 25 -21 31 -6 4 9 4 20 0 23 -3 4 -6 -2 -6
-12 0 -13 -3 -16 -10 -9 -12 12 -3 44 11 44 12 0 12 43 0 56 -5 5 -12 47 -16
93 -4 60 -13 100 -30 137 -14 29 -25 57 -25 62 0 26 -83 153 -140 214 -59 64
-199 167 -290 213 -69 35 -226 97 -258 102 -19 3 -36 12 -39 19 -3 8 -11 14
-18 14 -7 0 -27 14 -45 30 -18 17 -35 30 -39 30 -11 0 -35 34 -65 93 -29 58
-76 107 -102 107 -26 0 -14 14 52 63 56 42 65 45 71 30 4 -10 11 -21 16 -25
25 -16 119 50 178 125 44 55 48 74 18 79 -27 4 43 55 288 209 l178 112 75 4
c92 4 135 -6 135 -33 0 -14 19 -26 80 -51 44 -18 101 -43 127 -57 75 -40 177
-118 184 -138 6 -19 -86 -167 -127 -204 -11 -9 -19 -22 -19 -29 0 -6 -14 -24
-30 -40 -40 -38 -123 -162 -127 -188 -2 -12 -10 -29 -19 -38 -14 -16 -14 -18
3 -29 16 -10 16 -10 -4 -5 -12 3 -24 1 -28 -5 -3 -5 0 -10 7 -10 10 0 9 -3 -2
-9 -8 -6 -18 -7 -24 -4 -5 4 -7 -1 -3 -11 4 -9 3 -15 -2 -11 -5 3 -12 -1 -15
-7 -4 -7 -4 -3 -2 10 2 13 0 20 -6 16 -5 -3 -8 -15 -5 -25 3 -10 1 -22 -4 -25
-12 -7 8 -34 25 -34 7 0 7 3 1 8 -16 12 -16 32 1 32 8 0 12 -4 9 -10 -3 -5 -2
-10 3 -10 6 0 13 11 16 25 4 15 18 30 34 36 15 6 37 20 49 32 12 12 40 35 62
51 23 17 41 36 41 43 0 7 7 13 14 13 8 0 52 39 98 87 153 159 150 157 167 146
16 -10 49 -95 50 -131 1 -15 5 -21 13 -16 7 4 8 3 4 -5 -8 -13 10 -106 26
-131 6 -10 7 3 2 35 -7 58 -7 161 2 223 8 52 19 53 102 12 33 -16 68 -27 76
-24 9 3 16 1 16 -5 0 -6 5 -11 11 -11 6 0 9 6 6 14 -3 8 1 13 11 12 10 -1 16
5 13 14 -2 8 -4 21 -4 27 0 10 -4 10 -14 1 -11 -8 -12 -7 -7 6 4 11 -8 30 -40
62 -25 24 -46 48 -46 51 0 3 -6 11 -14 17 -19 15 -23 56 -8 83 7 13 33 44 57
69 25 25 45 51 45 58 0 33 22 32 60 -3 22 -20 56 -49 76 -66 20 -16 55 -49 78
-72 23 -24 47 -43 53 -43 6 0 26 -19 44 -42 18 -24 49 -60 69 -82 19 -21 42
-46 50 -55 8 -9 22 -28 31 -41 9 -14 43 -55 75 -92 33 -36 69 -81 81 -100 13
-18 58 -80 100 -137 169 -225 197 -267 203 -301 3 -24 11 -36 25 -39 25 -4 36
-19 86 -112 22 -43 49 -85 59 -94 18 -16 18 -16 13 7 -3 12 -33 82 -68 153
-71 146 -79 168 -83 219 -1 12 -7 16 -17 12 -11 -4 -25 14 -51 65 -75 150
-112 271 -133 439 -9 65 -31 120 -66 162 -14 16 -25 36 -25 45 0 8 -13 34 -28
57 -15 22 -38 66 -51 96 -13 30 -32 64 -42 76 -10 11 -19 28 -19 37 0 10 -7
20 -15 23 -8 4 -15 14 -15 24 0 10 -7 23 -15 30 -8 7 -15 18 -15 26 0 7 -9 18
-20 24 -11 6 -20 18 -20 26 0 13 15 15 93 13 75 -2 139 -12 155 -24 1 -1 -9
-22 -23 -46 -13 -24 -25 -51 -25 -60 0 -14 4 -14 49 1 28 9 56 21 63 27 42 34
86 46 156 44 43 -1 72 3 72 9 0 5 6 10 14 10 21 0 27 28 8 39 -15 9 -15 11 -2
24 19 19 170 97 187 97 6 0 15 5 19 12 5 8 0 9 -14 6 -13 -4 -20 -2 -16 4 3 5
15 7 26 5 23 -6 88 19 88 34 0 20 39 52 56 45 10 -4 21 -1 26 6 6 9 10 10 16
2 10 -16 56 2 46 17 -5 8 1 10 19 7 15 -3 24 -1 21 4 -3 4 2 15 10 24 15 14
16 14 16 0 0 -20 16 -21 24 -1 3 8 13 15 21 15 9 0 13 5 10 10 -3 6 -1 10 5
10 6 0 8 5 4 11 -5 8 -1 8 14 0 26 -14 35 -14 27 -1 -6 10 7 14 32 11 16 -2
36 36 23 44 -5 3 -10 2 -10 -3 0 -6 -7 -13 -16 -16 -8 -3 -13 -2 -10 3 3 5 -8
11 -24 13 -17 3 -30 1 -30 -4 0 -4 -4 -8 -10 -8 -5 0 -7 6 -4 13 5 15 -28 17
-51 4z m-1810 -337 c-3 -5 -12 -10 -18 -10 -7 0 -23 -10 -37 -23 -14 -12 -41
-32 -60 -45 -47 -29 -32 -28 32 3 28 14 54 25 56 25 2 0 1 -12 -3 -27 -3 -15
-6 -63 -6 -106 l0 -78 -32 6 c-17 4 -67 18 -110 31 -43 13 -86 24 -95 24 -9 0
-24 5 -32 10 -12 7 -8 11 18 16 17 4 32 13 32 20 0 17 6 17 -81 -1 -78 -17
-164 -12 -154 9 3 6 8 19 11 28 4 11 44 28 118 51 198 62 378 95 361 67z
m-1855 -1376 c0 -8 -31 -52 -68 -97 -38 -45 -104 -129 -148 -187 -88 -118 -91
-120 -120 -120 -40 0 -46 -21 -23 -90 11 -34 18 -64 15 -67 -6 -7 40 -100 52
-105 5 -1 11 -16 15 -33 5 -27 3 -30 -23 -31 -23 -1 -33 8 -61 53 -19 30 -53
79 -76 108 -42 54 -52 72 -34 60 5 -3 12 -1 16 5 3 5 15 10 26 10 13 0 19 7
19 24 0 80 256 445 333 476 37 15 77 12 77 -6z m-258 -115 c-26 -41 -66 -103
-88 -138 l-39 -64 -7 43 c-12 72 -18 70 -12 -5 5 -69 5 -71 -34 -131 -22 -34
-46 -65 -52 -69 -8 -5 -32 13 -67 48 -29 30 -68 63 -86 72 -86 44 -84 37 -18
84 33 23 75 49 93 57 18 8 56 28 83 45 28 16 74 40 104 54 30 14 61 31 69 38
15 12 94 45 100 42 1 -2 -19 -36 -46 -76z m-674 -1154 c7 -14 23 -30 37 -35
19 -7 25 -17 25 -39 0 -16 4 -32 8 -35 5 -3 7 -49 6 -102 l-4 -97 -45 -49
c-26 -26 -50 -46 -56 -43 -12 8 -11 49 2 62 8 8 7 17 -5 35 -23 35 -45 290
-27 312 20 24 46 19 59 -9z m-75 -220 c3 -60 9 -136 13 -167 6 -55 5 -59 -22
-83 -16 -13 -47 -41 -69 -60 -22 -20 -94 -73 -160 -117 -132 -90 -358 -259
-509 -382 -53 -43 -98 -77 -100 -75 -1 2 -17 45 -36 94 -18 50 -42 107 -52
128 l-19 38 65 82 c76 97 249 277 266 277 7 0 10 -7 6 -15 -3 -8 -3 -15 1 -15
7 0 23 20 70 88 20 30 71 84 114 122 43 38 87 77 97 87 10 10 43 39 73 65 30
26 64 57 77 68 12 11 25 20 27 20 2 0 28 11 57 24 84 39 82 39 90 -18 3 -28 8
-100 11 -161z m-763 -48 c0 -7 -18 -44 -41 -82 -23 -39 -52 -95 -66 -125 -21
-45 -26 -51 -32 -36 -5 12 -19 21 -37 23 -16 3 -43 15 -61 29 -27 20 -31 21
-26 7 3 -10 11 -24 17 -32 8 -10 5 -17 -9 -27 -11 -8 -24 -13 -30 -11 -5 2
-17 52 -26 111 -14 92 -14 109 -2 113 13 5 254 39 296 42 9 0 17 -5 17 -12z
m-1031 -838 c12 -23 21 -43 19 -44 -17 -14 -49 -23 -66 -18 -12 3 -22 1 -22
-4 0 -14 95 -54 112 -48 10 4 30 -27 71 -112 32 -65 57 -124 57 -131 0 -9 -16
-11 -67 -7 -38 4 -79 9 -93 11 -33 7 -77 55 -85 95 -4 17 -22 60 -41 95 l-35
63 21 21 c11 11 19 23 19 28 -1 4 -1 12 0 19 1 17 72 84 81 78 4 -3 18 -23 29
-46z m1361 -274 c6 -8 18 -11 26 -8 8 3 14 0 14 -6 0 -6 6 -11 14 -11 8 0 16
-7 20 -15 3 -8 12 -15 21 -15 8 0 15 -4 15 -9 0 -5 14 -14 30 -21 33 -14 34
-17 20 -56 -9 -22 -7 -31 10 -49 l22 -23 -40 -7 c-22 -3 -49 -15 -61 -27 -14
-12 -28 -17 -39 -13 -9 4 -53 11 -96 16 -70 7 -84 6 -118 -12 -39 -20 -40 -21
-22 -41 18 -19 18 -20 -1 -34 -10 -8 -23 -10 -27 -6 -4 4 -13 46 -19 92 l-10
83 34 31 c19 17 38 44 41 59 5 22 11 27 26 22 12 -4 26 0 35 9 14 13 13 16 -2
25 -17 10 -17 10 0 11 9 0 17 4 17 8 0 14 78 12 90 -3z m-728 -72 c31 -26 33
-30 23 -58 -5 -16 -17 -35 -25 -42 -13 -10 -10 -12 18 -13 27 0 35 5 46 30
l12 30 44 -45 44 -45 -22 -23 c-30 -32 -29 -48 3 -34 14 7 25 18 25 25 0 23
19 12 63 -39 28 -32 43 -58 40 -68 -8 -29 -86 -6 -131 39 -20 20 -53 42 -72
49 -47 16 -112 60 -105 71 3 5 -4 18 -15 28 -20 19 -21 21 -5 58 8 21 13 44
11 51 -8 21 8 15 46 -14z m937 -223 c96 -17 206 -34 213 -32 4 1 12 -7 18 -18
13 -25 29 -25 45 -3 12 16 19 16 121 -1 133 -23 190 -39 187 -54 -3 -14 14
-16 19 -3 2 6 21 6 48 0 25 -5 51 -10 58 -11 16 -2 16 -4 -10 -38 -12 -17 -30
-30 -40 -30 -11 0 -17 -4 -13 -9 3 -6 -3 -15 -14 -21 -14 -7 -22 -7 -27 1 -5
9 -11 6 -21 -6 -10 -14 -13 -15 -13 -4 -1 8 -8 -4 -17 -26 -18 -46 -18 -124 0
-142 6 -7 31 -14 55 -15 l43 -3 -7 -52 c-11 -91 26 -155 67 -117 14 12 19 31
19 68 0 28 4 66 10 85 6 22 6 40 -1 52 -8 15 -3 33 22 79 17 33 35 60 39 60 4
0 5 -33 2 -74 -3 -52 0 -88 12 -122 20 -63 55 -195 56 -212 0 -8 -8 -11 -22
-7 -13 2 -41 7 -63 11 -61 9 -68 10 -101 18 -35 9 -84 47 -84 66 0 12 -20 40
-75 108 -17 20 -42 55 -57 77 -14 22 -54 69 -87 104 -34 35 -61 67 -61 71 0 4
-12 13 -27 21 -16 7 -60 35 -99 61 -39 27 -77 48 -83 48 -7 0 -26 7 -44 17
-18 9 -44 18 -60 19 -27 4 -87 30 -87 39 0 7 18 6 79 -5z m-901 -209 c88 -43
122 -68 122 -90 0 -28 -50 -59 -130 -80 -47 -13 -93 -27 -102 -32 -16 -9 -18
-4 -18 44 0 31 6 61 15 73 8 10 15 26 15 36 0 17 47 57 68 58 7 0 20 -4 30 -9z
m924 -130 c40 -32 93 -80 118 -106 l45 -47 -57 -52 c-32 -29 -74 -61 -95 -72
-21 -10 -39 -22 -41 -26 -2 -5 -17 -8 -33 -8 -28 0 -29 2 -29 38 1 20 -3 64
-9 97 -8 51 -9 93 -2 218 2 29 27 19 103 -42z m-543 -142 c11 -11 25 -19 31
-19 5 0 10 -4 10 -10 0 -16 -117 -146 -333 -367 l-119 -123 -49 0 -49 0 0 194
0 195 28 19 c15 10 43 25 62 32 19 7 40 17 45 21 6 4 27 10 48 14 l38 7 -32
-53 c-17 -30 -36 -60 -41 -66 -6 -7 -8 -13 -4 -13 3 0 23 26 43 57 l38 57 3
-32 c2 -18 8 -32 14 -32 6 0 32 18 58 40 26 22 52 40 58 40 5 0 12 7 16 15 6
17 61 42 93 42 12 0 31 -8 42 -18z m192 -191 c16 -30 7 -165 -13 -181 -8 -7
-21 -27 -28 -44 -7 -18 -18 -33 -25 -33 -22 0 -38 28 -31 55 4 14 2 25 -4 25
-5 0 -10 -7 -10 -15 0 -20 -10 -18 -38 5 l-23 19 59 79 c93 125 94 126 113 90z
m559 -83 c8 -7 36 -16 63 -19 40 -6 47 -11 47 -29 0 -12 6 -40 14 -62 26 -77
27 -93 9 -91 -10 0 -19 -7 -21 -18 -3 -15 1 -18 21 -14 24 5 27 -1 82 -164 32
-93 55 -172 51 -175 -4 -4 -16 6 -29 22 -12 16 -36 45 -53 64 -103 120 -291
458 -273 492 7 14 17 17 42 12 17 -3 39 -11 47 -18z m-94 -148 c23 -58 22 -72
-2 -40 -20 28 -26 10 -18 -56 5 -49 10 -61 23 -59 11 2 17 16 19 48 l3 45 20
-43 c11 -23 24 -40 29 -37 4 3 6 -5 2 -17 -4 -16 -2 -19 8 -13 10 6 12 4 7 -8
-4 -10 -2 -29 3 -43 6 -14 8 -30 5 -34 -11 -18 -67 14 -98 57 -18 24 -51 68
-74 97 l-42 53 22 56 c19 50 25 56 47 54 19 -3 29 -15 46 -60z"/>
<path d="M695 8011 c5 -10 45 -24 99 -36 27 -6 28 -8 22 -43 -9 -58 24 -279
46 -307 16 -20 21 -22 43 -12 35 17 40 41 16 84 -40 76 -71 182 -71 247 0 58
-2 64 -22 70 -36 9 -140 7 -133 -3z"/>
<path d="M3490 7795 c0 -20 68 -95 86 -95 8 0 14 -5 14 -11 0 -6 11 -20 25
-30 13 -11 22 -26 19 -33 -3 -8 4 -23 16 -34 27 -25 11 -39 -49 -44 -35 -2
-46 -8 -52 -26 -6 -15 -5 -21 1 -17 6 3 10 0 10 -8 0 -17 42 -17 53 1 4 6 18
11 30 11 17 -1 18 -2 5 -6 -24 -6 -23 -23 2 -23 11 0 20 -4 20 -10 0 -14 27
-12 33 3 4 10 6 10 6 0 1 -7 8 -13 16 -13 26 0 45 -43 39 -87 -4 -32 -2 -44
13 -54 10 -8 18 -20 19 -26 2 -29 5 -33 24 -33 11 0 23 6 26 14 3 8 15 17 28
20 18 4 22 12 21 42 -1 20 3 56 8 80 9 40 13 44 41 44 l31 1 -22 18 c-14 11
-18 22 -13 31 5 7 3 21 -3 31 -8 14 -8 22 -1 29 8 8 13 4 18 -14 3 -14 12 -26
18 -26 9 0 9 3 0 12 -17 17 -15 45 3 52 8 3 15 10 15 16 0 5 -7 10 -15 10 -8
0 -15 -7 -15 -15 0 -8 -3 -15 -6 -15 -9 0 -34 28 -34 38 0 6 -13 13 -30 17
-27 6 -35 15 -31 38 0 4 -3 7 -7 7 -5 0 -14 -18 -21 -40 -6 -22 -16 -40 -21
-40 -10 0 -50 54 -50 68 0 18 -81 83 -135 107 -62 29 -135 34 -135 10z"/>
<path d="M8173 7618 c-11 -13 -23 -36 -26 -53 -8 -38 13 -196 25 -189 4 3 6 9
3 14 -3 4 6 3 19 -3 14 -7 20 -15 14 -18 -5 -4 -3 -9 6 -12 13 -5 15 4 11 66
-4 62 -12 163 -17 205 -2 18 -12 15 -35 -10z"/>
<path d="M9900 7300 c0 -20 60 -114 102 -159 45 -49 46 -51 37 -92 -6 -23 -13
-47 -16 -52 -9 -15 -4 -90 7 -101 7 -7 10 -5 10 6 0 11 7 14 23 11 20 -4 27 2
46 46 22 51 22 51 49 37 34 -19 132 -105 132 -117 0 -5 -6 -9 -12 -9 -7 0 -31
-5 -53 -12 -38 -11 -39 -12 -15 -19 14 -4 49 -7 79 -8 57 -1 86 -17 159 -85
18 -17 38 -31 45 -32 38 -3 42 -5 24 -13 -17 -6 -17 -8 1 -25 15 -13 22 -14
28 -5 4 7 3 10 -4 5 -6 -3 -13 -2 -16 3 -4 5 2 11 11 13 21 4 26 68 6 68 -7 0
-13 11 -13 25 0 16 6 25 16 25 13 0 14 3 4 15 -10 12 -8 16 15 25 14 5 32 10
38 10 8 0 7 3 -2 9 -7 5 -10 14 -7 20 5 7 -6 11 -31 12 -64 1 -77 7 -113 50
-88 106 -153 173 -202 206 -29 19 -62 43 -73 53 -27 23 -112 66 -155 79 -47
13 -120 20 -120 11z"/>
<path d="M9100 7189 c0 -5 12 -22 28 -36 l27 -26 -27 7 c-30 7 -37 -4 -14 -23
9 -8 15 -8 18 -2 2 7 8 7 18 1 13 -8 12 -10 -2 -10 -23 0 -24 0 17 -61 19 -30
40 -69 46 -88 11 -32 13 -33 25 -16 7 10 11 22 8 26 -3 5 1 9 8 9 23 0 15 93
-10 125 -12 15 -22 40 -22 56 0 15 -4 31 -10 34 -5 3 -10 -3 -10 -14 0 -16 -6
-21 -24 -21 -36 0 -55 10 -50 25 3 7 -2 15 -10 18 -9 4 -16 2 -16 -4z"/>
<path d="M840 7120 c0 -32 9 -37 28 -18 15 15 24 6 16 -16 -4 -10 -18 -16 -38
-16 -17 0 -38 -5 -46 -10 -12 -8 -9 -10 13 -10 37 0 34 -13 -13 -51 -38 -31
-54 -69 -28 -69 6 0 4 -7 -5 -18 -19 -20 -23 -57 -7 -67 6 -4 6 -15 -1 -32 -5
-14 -8 -28 -5 -30 10 -10 46 24 52 50 3 17 15 32 29 37 31 12 41 40 15 47 -20
5 -20 6 1 35 l21 29 -21 6 c-26 7 -27 15 -1 31 17 10 24 8 52 -24 55 -60 103
-78 132 -48 25 25 19 34 -22 34 -30 0 -48 8 -80 36 -41 35 -42 36 -27 64 16
31 16 31 -34 57 -31 17 -31 17 -31 -17z"/>
<path d="M6430 7050 c-14 -4 -50 -16 -80 -25 -30 -9 -81 -30 -112 -45 l-57
-29 -26 21 c-28 21 -46 20 -20 -2 30 -25 14 -41 -95 -89 -24 -11 -24 -11 5 -6
17 4 42 12 56 19 30 15 71 14 76 -1 2 -6 -17 -12 -45 -15 -96 -9 -176 -69
-262 -196 -19 -29 -39 -52 -43 -52 -5 0 -6 4 -3 9 9 15 -20 45 -38 38 -22 -9
-24 -178 -1 -197 21 -17 53 -3 60 28 7 35 153 250 186 274 34 25 103 35 134
18 33 -17 75 9 75 46 0 31 52 84 83 84 16 0 14 -4 -13 -22 -35 -24 -58 -53
-49 -63 18 -17 133 49 143 82 4 14 33 24 113 41 60 13 110 26 112 28 3 3 -7
17 -22 32 -24 23 -36 27 -90 28 -34 1 -73 -2 -87 -6z"/>
<path d="M4990 6980 c0 -12 52 -60 65 -60 8 0 57 -22 109 -49 52 -26 134 -61
183 -76 48 -16 96 -35 105 -42 28 -25 61 -12 72 27 11 43 15 48 24 34 4 -6 43
-51 87 -99 44 -48 82 -91 83 -96 2 -5 10 -9 18 -9 19 0 18 30 -3 59 -15 22
-15 25 0 36 24 17 21 22 -15 23 -21 0 -38 9 -54 29 -29 35 -30 62 -2 109 l21
36 -31 -16 c-17 -9 -34 -20 -37 -26 -12 -20 -32 -9 -53 29 -14 25 -31 40 -47
43 -22 5 -25 2 -25 -26 0 -17 4 -37 9 -44 4 -7 6 -25 3 -38 -3 -19 -9 -23 -21
-18 -9 3 -54 14 -101 24 -131 28 -245 75 -289 121 -29 31 -43 38 -69 36 -17
-1 -32 -4 -32 -7z"/>
<path d="M783 6668 c-33 -16 -28 -26 12 -30 35 -3 35 -4 20 -25 -12 -16 -26
-23 -51 -23 -32 0 -34 -2 -28 -27 13 -61 27 -84 62 -98 51 -22 92 -20 92 5 0
19 -4 21 -77 36 -34 7 -28 19 17 37 42 16 55 47 20 47 -18 0 -18 1 -2 29 14
24 14 31 3 45 -15 18 -36 19 -68 4z"/>
<path d="M3358 6588 c-4 -10 -3 -20 2 -23 6 -4 10 -16 10 -28 0 -18 -2 -19
-10 -7 -14 22 -12 3 2 -23 7 -12 12 -26 13 -32 1 -22 31 -75 42 -75 16 0 17
12 2 27 -8 8 -8 13 0 17 6 4 11 1 11 -7 0 -9 8 -14 18 -12 9 1 11 0 5 -2 -7
-3 -13 -14 -13 -26 0 -20 1 -20 13 -2 13 16 14 15 9 -13 -2 -20 0 -32 7 -32 6
0 11 -7 11 -15 0 -24 19 -17 26 10 3 14 10 22 16 19 6 -4 8 6 5 25 -4 24 -2
31 11 31 15 1 15 3 -2 15 -10 8 -23 12 -27 9 -5 -3 -9 3 -9 13 0 15 -8 18 -44
17 -44 -2 -44 -1 -56 42 -7 24 -16 44 -21 44 -4 0 -9 10 -11 23 -3 19 -4 19
-10 5z"/>
<path d="M724 6315 c-8 -56 0 -80 24 -70 64 26 69 10 17 -58 -44 -58 -45 -71
-2 -29 36 35 47 33 47 -7 0 -20 -8 -30 -32 -40 -18 -8 -64 -33 -103 -55 -38
-22 -95 -50 -125 -64 l-55 -23 50 5 c28 4 88 24 134 46 46 22 86 39 88 37 2
-3 -11 -19 -28 -38 -23 -25 -32 -43 -32 -70 0 -25 -8 -46 -28 -69 -16 -18 -27
-35 -25 -39 1 -3 6 -14 9 -23 5 -16 12 -14 69 11 78 36 89 32 82 -23 -5 -32
-2 -45 11 -56 16 -13 17 -11 15 20 -7 89 -2 104 40 128 51 29 52 55 5 122 -19
27 -35 57 -35 66 0 9 17 23 40 32 51 22 55 47 6 39 -27 -4 -38 -1 -57 19 -22
24 -22 25 -6 60 21 43 16 54 -28 54 -29 0 -35 4 -45 35 -16 47 -27 44 -36 -10z"/>
<path d="M5596 6040 c-45 -44 -88 -80 -96 -80 -7 0 -27 9 -44 19 -95 58 -286
89 -579 94 -120 3 -220 7 -223 10 -3 2 -22 1 -42 -4 -20 -5 -64 -9 -97 -9 -42
0 -56 -3 -45 -10 8 -5 29 -10 46 -10 17 0 46 -7 64 -17 30 -15 50 -17 105 -14
40 2 423 -37 515 -53 52 -9 118 -24 145 -33 28 -8 68 -18 89 -22 l39 -6 -69
-85 c-92 -112 -95 -118 -38 -76 80 58 233 230 259 291 7 17 27 43 44 58 18 15
27 27 21 27 -7 0 -49 -36 -94 -80z"/>
<path d="M780 5327 c0 -43 -2 -46 -32 -53 -18 -4 -37 -7 -41 -6 -13 4 -20 -29
-8 -41 6 -6 27 -10 46 -9 l35 3 -6 -93 c-4 -51 -8 -94 -9 -96 -7 -9 -37 55
-38 81 -1 21 -8 33 -18 35 -13 2 -18 -8 -24 -43 -5 -39 -3 -49 12 -60 17 -13
17 -15 -9 -42 -51 -53 -27 -67 68 -38 27 8 50 15 52 15 7 0 0 -29 -13 -54 -17
-32 -20 -66 -5 -66 24 0 6 -43 -41 -97 -79 -89 -97 -144 -58 -179 26 -24 40
-5 31 45 -9 59 -8 66 8 62 8 -3 27 -5 43 -5 15 -1 27 -5 27 -11 0 -21 -19 -38
-34 -32 -19 7 -21 -9 -6 -47 8 -22 12 -24 32 -15 23 10 39 35 63 101 12 31 12
38 -1 49 -13 11 -34 10 -99 -7 -27 -7 -28 -6 -13 14 8 12 32 35 53 52 21 17
45 40 53 51 13 18 12 23 -8 44 l-21 23 21 41 c11 23 32 47 45 53 29 13 33 37
8 39 -33 2 -58 -3 -61 -12 -2 -5 -8 -9 -13 -9 -11 0 -12 71 -3 159 6 50 10 61
25 61 26 0 25 37 0 45 -14 4 -21 17 -23 43 -2 26 -8 38 -20 40 -15 3 -18 -4
-18 -41z"/>
<path d="M890 4275 c-25 -7 -55 -16 -67 -20 -16 -5 -25 -3 -29 9 -8 21 -23 11
-17 -12 3 -13 -8 -25 -44 -46 -40 -23 -43 -26 -18 -21 17 3 38 8 48 11 12 4
17 0 17 -16 0 -32 -18 -60 -46 -70 -13 -5 -24 -16 -24 -25 0 -14 3 -13 26 1
l25 17 -7 -29 c-3 -16 -18 -41 -32 -56 -35 -38 -22 -45 39 -19 51 21 90 27
102 15 7 -8 -13 -64 -23 -64 -4 0 -10 7 -14 15 -3 10 -19 15 -42 15 -31 0 -35
-2 -24 -15 7 -8 19 -15 27 -15 11 0 12 -10 7 -49 -6 -43 -4 -50 17 -64 17 -12
26 -14 36 -5 19 16 16 34 -9 51 l-23 16 34 27 c32 26 76 108 66 124 -10 17
-45 17 -96 -1 -29 -11 -55 -19 -57 -19 -1 0 23 25 55 55 36 34 67 54 82 55 28
0 122 96 114 116 -2 7 -15 15 -28 18 -13 3 -29 8 -37 10 -7 3 -33 -1 -58 -9z"/>
<path d="M914 3732 c3 -5 -8 -36 -24 -69 -22 -44 -46 -73 -90 -107 -33 -26
-60 -49 -60 -52 0 -6 37 14 72 37 32 23 39 24 32 4 -4 -8 -14 -15 -24 -15 -18
0 -30 -19 -30 -48 0 -9 -12 -40 -27 -69 -22 -41 -25 -55 -15 -65 9 -9 18 -6
40 15 34 32 43 33 60 7 14 -22 5 -36 -100 -161 -71 -84 -62 -120 17 -73 l46
26 -7 -66 c-6 -56 -4 -66 9 -66 22 0 26 10 36 90 7 50 16 79 30 94 27 28 26
34 -1 38 -28 4 -34 27 -14 53 13 17 18 18 33 7 69 -48 112 -47 130 5 26 73 31
94 26 113 -3 11 2 32 12 46 42 64 -29 39 -114 -41 l-68 -65 -19 21 c-18 20
-18 21 40 72 32 29 54 55 50 60 -4 4 -27 7 -51 7 -48 0 -53 8 -22 36 18 16 19
20 5 30 -14 10 -11 17 24 60 42 51 47 76 16 82 -10 2 -16 0 -12 -6z"/>
<path d="M838 2635 c-1 -103 2 -139 13 -146 5 -3 7 -13 4 -22 -5 -12 -16 -15
-46 -11 -21 3 -39 1 -39 -5 0 -13 19 -18 60 -15 61 4 66 5 53 11 -7 2 -13 14
-13 25 0 14 5 18 15 14 8 -3 15 -2 15 3 0 5 11 9 25 9 30 0 34 -27 7 -44 -22
-14 -29 -66 -7 -58 8 4 15 14 15 24 0 11 5 22 10 25 13 8 43 -22 35 -35 -4 -6
5 -10 22 -9 15 0 22 3 16 6 -19 7 -16 20 7 26 24 6 31 -3 23 -31 -3 -14 -15
-22 -37 -25 -26 -3 -24 -4 12 -5 58 -3 53 -22 -5 -23 l-48 -1 50 -9 c27 -4 51
-6 53 -5 4 5 5 67 2 151 l-2 70 -10 -51 c-8 -47 -12 -52 -39 -58 -33 -6 -59
11 -59 38 0 22 17 20 24 -1 3 -11 4 -7 3 7 -2 23 -5 25 -49 23 -48 -3 -48 -3
-49 30 l-1 32 -7 -29 c-3 -16 -11 -31 -18 -33 -8 -3 -11 19 -10 79 l2 83 30 6
c25 6 26 7 6 8 -16 1 -21 5 -17 16 4 11 -1 14 -19 13 -24 -2 -25 -5 -27 -83z"/>
<path d="M6259 1594 c-10 -12 -10 -20 -1 -32 20 -30 339 -676 348 -707 7 -23
15 -30 34 -30 19 0 26 7 33 32 5 17 18 33 28 36 30 8 22 23 -30 55 -47 29 -52
38 -164 260 -69 137 -118 248 -122 274 -9 59 -16 69 -56 78 l-34 7 25 11 25
10 -28 11 c-37 14 -42 14 -58 -5z"/>
</g>
</svg>
