<?xml version="1.0" standalone="no"?>
<!DOCTYPE svg PUBLIC "-//W3C//DTD SVG 20010904//EN"
 "http://www.w3.org/TR/2001/REC-SVG-20010904/DTD/svg10.dtd">
<svg version="1.0" xmlns="http://www.w3.org/2000/svg"
 width="182.000000pt" height="250.000000pt" viewBox="0 0 182.000000 250.000000"
 preserveAspectRatio="xMidYMid meet">
<metadata>
Created by potrace 1.10, written by Peter Selinger 2001-2011
</metadata>
<g transform="translate(0.000000,250.000000) scale(0.100000,-0.100000)"
fill="#000000" stroke="none">
<path d="M805 2360 c-189 -29 -288 -88 -363 -215 -90 -156 -130 -361 -83 -440
16 -27 17 -40 10 -81 -8 -44 -6 -60 25 -144 19 -52 37 -108 40 -124 4 -16 15
-30 26 -33 11 -3 22 -18 26 -37 7 -35 43 -105 79 -155 39 -53 33 -78 -32 -143
-51 -50 -71 -62 -168 -98 -60 -23 -141 -48 -180 -56 -106 -21 -185 -55 -185
-77 0 -16 5 -18 22 -12 13 4 34 7 47 7 18 0 20 2 10 9 -10 6 -3 9 23 9 20 0
39 4 43 9 3 6 27 13 53 17 25 4 62 13 80 21 18 7 37 11 42 8 6 -4 10 -1 10 6
0 6 8 9 20 6 13 -3 18 -1 13 6 -4 6 2 8 16 4 13 -3 20 -3 17 0 -3 3 20 18 52
33 31 15 68 39 81 54 14 14 28 26 32 26 3 0 10 -25 14 -56 3 -30 13 -70 20
-87 7 -18 15 -45 18 -62 7 -43 17 -86 27 -115 5 -14 12 -51 15 -83 5 -45 3
-57 -6 -51 -8 4 -10 3 -5 -5 4 -6 11 -9 16 -6 8 5 25 -24 21 -39 -4 -15 34
-156 41 -156 4 0 5 -7 2 -15 -3 -8 2 -37 11 -66 15 -43 15 -53 4 -61 -11 -7
-9 -8 5 -6 15 2 22 -6 31 -34 5 -20 15 -42 22 -49 6 -6 9 -19 6 -28 -5 -14 -4
-14 10 -1 9 8 18 29 22 45 5 27 4 28 -5 7 -5 -13 -14 -20 -20 -17 -6 4 -8 11
-5 16 4 5 2 9 -4 9 -5 0 -12 15 -16 32 -24 115 -136 575 -176 719 -17 59 -20
90 -15 133 4 31 12 54 17 51 5 -3 6 0 3 8 -7 19 12 32 22 16 5 -8 3 -9 -7 -4
-11 6 -12 5 -2 -5 22 -23 25 -4 6 32 -10 19 -33 53 -51 76 -18 23 -35 53 -38
68 -3 14 -11 33 -19 41 -8 8 -15 20 -15 26 0 7 4 6 10 -3 5 -8 10 -11 10 -7 0
4 -7 19 -16 32 -9 14 -16 40 -16 60 0 19 -4 38 -9 41 -5 3 -9 -2 -9 -11 0 -12
-6 -9 -24 10 -18 19 -27 43 -31 83 -8 71 -13 86 -15 47 -1 -26 -3 -27 -10 -10
-10 24 -11 94 -2 115 4 8 17 16 30 18 16 2 22 -2 22 -17 0 -11 -4 -22 -9 -25
-10 -7 -2 -54 10 -62 5 -3 9 -14 9 -25 0 -11 4 -18 9 -15 5 3 8 21 7 38 -1 18
1 50 5 71 5 30 4 37 -7 33 -8 -3 -14 -1 -14 4 0 6 7 10 15 10 8 0 14 3 13 8
-2 9 23 60 45 94 18 26 16 48 -4 48 -6 0 -8 -8 -4 -19 4 -14 -1 -20 -22 -26
-20 -6 -23 -9 -11 -12 15 -4 14 -8 -5 -38 -12 -19 -27 -34 -34 -35 -6 0 -13
-6 -16 -12 -3 -8 -8 -6 -13 7 -10 25 -36 45 -49 38 -5 -4 -7 -3 -3 2 4 4 3 14
-2 20 -7 9 -2 28 16 64 15 28 30 49 33 46 10 -6 7 42 -3 52 -5 5 -6 3 -2 -5 6
-10 -28 -82 -39 -82 -6 0 18 85 28 98 6 8 6 12 -2 12 -7 0 -2 17 12 43 13 23
22 48 20 55 -3 6 0 12 6 12 6 0 8 7 5 15 -5 11 -2 13 10 9 9 -3 16 -2 17 2 3
34 13 59 39 100 16 27 30 45 30 41 0 -4 6 -3 13 3 49 42 62 50 73 46 6 -2 22
5 34 16 12 12 29 18 41 15 10 -3 17 -1 13 4 -3 5 13 9 36 9 23 0 39 4 36 8 -2
4 25 9 62 10 37 1 84 5 106 8 30 5 37 3 31 -6 -6 -10 -2 -12 15 -7 21 5 58 -8
71 -27 4 -5 18 -7 31 -4 16 3 25 0 25 -8 0 -7 -5 -10 -10 -7 -6 3 -7 1 -3 -6
4 -7 13 -10 19 -8 14 4 37 -17 37 -33 0 -7 7 -9 16 -6 13 5 15 2 11 -14 -3
-13 0 -20 9 -20 16 0 33 -30 27 -47 -3 -9 7 -13 31 -13 19 0 38 -5 41 -10 4
-6 11 -7 17 -4 6 4 8 2 5 -3 -4 -6 2 -18 13 -28 11 -10 20 -23 20 -30 0 -7 9
-20 20 -30 11 -10 17 -21 15 -26 -3 -4 2 -14 10 -22 8 -9 15 -27 15 -42 0 -14
5 -47 11 -72 10 -37 9 -47 -2 -54 -11 -7 -11 -11 -2 -17 9 -6 7 -20 -11 -55
-12 -26 -26 -44 -31 -40 -4 5 -5 0 -2 -9 6 -17 -9 -35 -20 -24 -4 3 -7 20 -8
36 -1 16 -4 32 -7 35 -3 3 -4 24 -2 48 3 31 1 37 -6 22 -7 -17 -9 -15 -9 12
-1 17 4 33 10 35 14 5 2 68 -12 68 -12 0 -12 -17 1 -25 6 -3 10 -13 10 -21 0
-30 -20 -2 -26 37 -4 21 -10 39 -14 39 -5 0 -16 3 -25 6 -14 6 -14 2 1 -37 10
-24 23 -47 30 -51 13 -8 8 -44 -9 -65 -6 -9 -3 -23 10 -46 14 -24 22 -61 27
-137 8 -129 18 -149 30 -60 4 31 1 54 -9 74 -10 19 -11 25 -3 18 23 -18 75 -2
88 26 7 15 20 41 28 58 9 18 12 44 9 65 -30 196 -42 230 -103 304 -23 26 -56
52 -81 62 -35 14 -48 27 -63 60 -21 48 -78 90 -167 123 -57 21 -159 25 -258
10z"/>
<path d="M876 2262 c-3 -5 12 -16 32 -26 27 -12 32 -13 17 -2 -11 9 -25 20
-32 26 -7 5 -14 6 -17 2z"/>
<path d="M685 2220 c-15 -6 -11 -7 17 -7 23 1 33 4 25 9 -14 9 -16 9 -42 -2z"/>
<path d="M760 2175 c24 -8 46 -13 48 -11 5 5 -59 26 -77 25 -9 0 4 -7 29 -14z"/>
<path d="M1162 2164 c7 -15 14 -21 16 -15 5 16 -5 41 -17 41 -7 0 -6 -10 1
-26z"/>
<path d="M799 2125 c18 -8 36 -15 40 -15 13 1 -45 29 -59 29 -8 0 0 -6 19 -14z"/>
<path d="M736 2121 c5 -5 20 -12 34 -15 l25 -7 -25 15 c-28 17 -50 21 -34 7z"/>
<path d="M1007 2108 c11 -13 23 -30 26 -38 5 -13 5 -13 6 0 0 16 -32 60 -45
60 -4 0 2 -10 13 -22z"/>
<path d="M860 2102 c-13 -14 -12 -15 3 -9 11 4 26 -3 44 -21 15 -15 27 -29 26
-32 -1 -3 11 -5 27 -6 25 -1 27 1 17 17 -8 13 -15 15 -24 8 -9 -8 -11 -6 -8
11 3 18 2 20 -10 10 -10 -8 -18 -6 -37 14 -21 22 -24 23 -38 8z"/>
<path d="M711 2074 l34 -26 -38 5 c-33 5 -37 4 -26 -9 6 -8 17 -13 23 -11 6 2
21 0 34 -4 32 -12 75 -1 68 18 -4 8 3 17 17 23 l22 9 -23 0 c-12 1 -25 -6 -28
-14 -8 -21 -19 -19 -62 10 -49 33 -65 32 -21 -1z"/>
<path d="M750 2087 c14 -8 27 -12 30 -10 7 6 -23 23 -40 23 -8 0 -4 -6 10 -13z"/>
<path d="M1150 2075 c0 -8 5 -15 10 -15 6 0 10 7 10 15 0 8 -4 15 -10 15 -5 0
-10 -7 -10 -15z"/>
<path d="M1181 2062 c-8 -18 -11 -35 -7 -39 3 -3 6 1 6 10 0 8 5 17 11 19 6 2
10 13 7 23 -3 16 -6 14 -17 -13z"/>
<path d="M1241 2076 c-8 -10 -9 -16 -1 -21 5 -3 10 1 10 9 0 8 8 17 18 19 14
4 14 5 1 6 -9 0 -22 -5 -28 -13z"/>
<path d="M860 2077 c0 -2 14 -16 32 -33 l31 -29 -23 33 c-20 27 -40 42 -40 29z"/>
<path d="M990 2070 c0 -6 5 -8 10 -5 6 3 10 -1 10 -9 0 -8 4 -18 10 -21 6 -4
7 2 1 16 -9 25 -31 38 -31 19z"/>
<path d="M1050 2065 c0 -8 5 -15 10 -15 6 0 10 7 10 15 0 8 -4 15 -10 15 -5 0
-10 -7 -10 -15z"/>
<path d="M830 2044 c0 -12 35 -33 55 -34 16 0 13 4 -13 20 -35 21 -42 24 -42
14z"/>
<path d="M595 2020 c-27 -6 -24 -7 20 -11 49 -5 134 6 90 11 -48 6 -82 6 -110
0z"/>
<path d="M1202 2018 c-11 -4 -4 -7 20 -7 20 -1 39 2 41 7 6 9 -38 9 -61 0z"/>
<path d="M455 1889 c3 -9 -1 -22 -10 -29 -8 -7 -15 -17 -15 -23 0 -5 10 2 21
17 17 21 19 30 10 39 -9 9 -11 8 -6 -4z"/>
<path d="M460 1830 c-14 -20 -26 -27 -38 -23 -15 6 -15 5 -3 -10 12 -15 15
-15 34 11 11 15 25 33 30 40 5 6 7 12 4 12 -3 0 -15 -13 -27 -30z"/>
<path d="M396 1773 c-6 -15 -8 -15 -16 -3 -6 8 -10 10 -10 4 0 -6 6 -17 14
-23 11 -9 15 -7 19 11 8 27 2 35 -7 11z"/>
<path d="M700 1769 c-55 -11 -173 -71 -158 -80 6 -4 19 2 29 12 11 11 33 19
52 19 18 0 38 5 43 10 12 12 135 17 152 6 6 -4 10 2 9 14 -1 11 -6 20 -13 20
-6 0 -24 2 -40 4 -16 3 -49 0 -74 -5z"/>
<path d="M1020 1750 c0 -7 7 -10 15 -6 9 3 15 0 15 -10 0 -8 -4 -13 -8 -10 -4
2 -19 -4 -32 -14 -25 -19 -25 -19 24 -5 58 18 146 20 146 4 0 -6 7 -8 16 -5
14 5 15 4 4 -9 -10 -12 -10 -15 3 -15 9 0 21 -8 27 -17 11 -17 11 -17 6 0 -3
10 -6 26 -6 36 0 24 -70 52 -146 59 -47 3 -64 1 -64 -8z"/>
<path d="M761 1720 c26 -4 56 -13 69 -20 12 -6 24 -9 27 -6 10 10 -70 36 -106
35 -35 -1 -34 -2 10 -9z"/>
<path d="M586 1689 c-14 -11 -26 -28 -26 -37 1 -14 4 -13 20 6 11 13 24 21 30
17 6 -4 18 -1 26 6 12 10 12 14 2 20 -19 12 -22 11 -52 -12z"/>
<path d="M520 1665 c7 -8 16 -12 21 -9 13 8 1 24 -18 24 -13 0 -13 -3 -3 -15z"/>
<path d="M909 1666 c-30 -7 -44 -15 -42 -24 7 -18 -19 -102 -29 -96 -4 3 -8
-2 -8 -10 0 -9 7 -16 15 -16 16 0 37 33 34 53 -2 6 1 27 5 45 7 30 11 34 37
30 16 -3 31 0 33 6 2 6 5 -8 5 -31 1 -31 5 -43 16 -43 8 0 15 5 15 10 0 6 -4
10 -10 10 -5 0 -10 12 -10 28 0 44 -9 50 -61 38z"/>
<path d="M1263 1670 c9 -6 17 -20 17 -30 0 -19 1 -19 20 -3 25 21 25 29 3 29
-10 1 -27 4 -38 8 -18 7 -18 6 -2 -4z"/>
<path d="M707 1659 c-19 -11 -12 -39 11 -39 8 0 24 7 34 17 10 9 21 13 25 10
4 -4 -2 -14 -13 -22 -18 -14 -17 -15 14 -13 35 2 38 6 20 31 -15 20 -67 29
-91 16z"/>
<path d="M1058 1643 c-34 -17 -36 -30 -4 -30 18 0 23 4 19 16 -5 13 -3 14 8 4
18 -17 56 -16 62 1 3 8 3 17 0 20 -11 10 -57 5 -85 -11z"/>
<path d="M1156 1631 c-3 -5 5 -11 19 -13 20 -4 23 -3 14 8 -13 16 -25 18 -33
5z"/>
<path d="M1425 1598 c4 -48 -3 -90 -15 -83 -5 3 -6 -4 -3 -15 3 -11 0 -20 -6
-20 -6 0 -11 -9 -11 -20 0 -21 -19 -60 -34 -71 -4 -4 -5 -16 -1 -28 4 -12 2
-21 -4 -21 -11 0 -15 33 -13 110 1 40 0 42 -10 20 -5 -14 -7 -46 -4 -72 3 -27
2 -48 -2 -48 -4 0 -13 -15 -20 -32 -7 -18 -27 -61 -43 -95 -29 -61 -38 -110
-19 -98 6 3 10 -3 10 -14 0 -12 9 -26 20 -33 12 -8 27 -36 36 -66 19 -64 13
-132 -21 -272 -30 -120 -66 -310 -71 -375 -2 -27 -8 -61 -13 -75 -5 -14 -15
-64 -22 -113 -7 -48 -16 -87 -20 -87 -13 0 -20 -32 -9 -45 6 -7 8 -20 4 -29
-3 -9 -2 -16 4 -16 12 0 22 24 22 55 0 13 4 26 9 30 6 3 9 13 9 23 0 9 7 45
16 79 9 33 16 65 15 70 -1 4 -1 26 0 48 1 30 4 36 11 25 8 -11 9 -8 4 12 -3
16 0 39 9 58 9 17 11 28 6 24 -11 -6 -2 40 13 69 5 10 7 21 5 24 -3 2 -1 18 3
34 6 21 5 27 -2 23 -8 -5 -9 -1 -3 12 4 10 13 41 19 67 6 27 16 44 20 40 5 -4
6 -3 3 4 -7 11 12 113 22 123 9 8 9 80 0 74 -4 -2 -2 7 4 20 l12 25 29 -30
c16 -16 39 -32 52 -35 13 -3 24 -10 24 -15 0 -5 9 -9 19 -9 11 0 22 -4 25 -9
3 -5 16 -7 29 -4 18 4 19 3 7 -7 -12 -9 -11 -10 7 -5 12 3 24 1 28 -5 3 -5 14
-10 23 -10 10 0 34 -8 55 -19 20 -10 34 -15 31 -10 -3 5 2 6 10 3 8 -3 17 -12
20 -20 4 -11 13 -13 27 -9 14 5 19 4 15 -4 -4 -7 -1 -9 7 -5 8 3 18 1 22 -5
10 -17 35 -13 35 7 0 10 -13 22 -32 30 -18 7 -46 20 -63 27 -16 8 -57 24 -90
34 -175 58 -199 69 -238 113 -79 90 -127 159 -127 182 0 13 14 56 30 94 17 39
30 78 30 87 0 12 4 14 19 5 28 -15 31 -13 31 19 0 15 18 67 40 114 44 94 44
96 29 150 -14 50 -30 47 -24 -5z"/>
<path d="M640 1620 c0 -5 9 -10 21 -10 11 0 17 5 14 10 -3 6 -13 10 -21 10 -8
0 -14 -4 -14 -10z"/>
<path d="M452 1468 c1 -15 8 -30 15 -32 16 -7 16 -5 -2 30 l-15 29 2 -27z"/>
<path d="M851 1473 c0 -7 -19 -17 -40 -23 -34 -9 -71 -44 -71 -67 0 -4 11 -13
25 -20 20 -9 25 -8 25 3 0 8 -4 14 -9 14 -19 0 2 38 26 49 21 9 28 9 34 -1 12
-19 21 -3 16 29 -2 15 -5 23 -6 16z"/>
<path d="M966 1451 c-4 -5 3 -7 14 -4 11 3 20 0 20 -6 0 -6 6 -11 14 -11 16 0
29 -27 20 -41 -3 -6 -19 -7 -35 -4 -15 4 -36 2 -46 -4 -10 -6 -16 -11 -13 -11
55 -10 88 -4 104 18 10 13 16 24 14 26 -1 1 -16 12 -32 24 -31 23 -51 28 -60
13z"/>
<path d="M820 1380 c-13 -8 -13 -10 2 -10 9 0 29 -8 46 -17 19 -11 35 -14 48
-8 17 8 16 9 -8 12 -14 3 -32 11 -38 19 -14 16 -29 18 -50 4z"/>
<path d="M875 1248 c-49 -4 -102 -8 -117 -8 -16 -1 -28 -5 -28 -10 0 -10 55
-42 79 -46 8 -2 18 -9 22 -16 7 -10 9 -8 9 5 0 11 -9 21 -20 24 -11 3 -20 10
-20 15 0 5 -4 6 -10 3 -5 -3 -10 -2 -10 4 0 6 39 10 103 10 56 -1 108 1 116 2
7 2 16 -2 18 -8 3 -7 -2 -13 -10 -13 -14 0 -33 -47 -23 -57 3 -3 8 7 12 21 5
21 11 25 26 20 13 -4 18 -2 14 4 -3 6 9 16 29 23 41 15 47 34 8 26 -16 -3 -46
-2 -68 1 -22 4 -80 4 -130 0z"/>
<path d="M770 1182 c0 -6 -2 -16 -5 -24 -4 -9 6 -13 32 -14 21 -1 31 1 23 4
-8 3 -23 14 -32 25 -10 11 -18 15 -18 9z"/>
<path d="M850 1180 c0 -5 7 -10 16 -10 9 0 12 -5 8 -12 -5 -7 -3 -8 7 -2 8 4
25 7 38 5 22 -3 23 -2 8 13 -17 17 -77 22 -77 6z"/>
<path d="M958 1115 c-3 -3 -22 -6 -42 -7 -20 -1 -36 -6 -36 -11 0 -12 81 0 95
14 5 6 5 9 -1 9 -6 0 -13 -2 -16 -5z"/>
<path d="M1159 1072 c-13 -11 -18 -21 -12 -25 5 -4 20 5 31 18 26 29 14 33
-19 7z"/>
<path d="M680 1029 c0 -18 30 -49 48 -49 6 0 15 -6 19 -14 12 -20 73 -43 137
-51 46 -6 66 -3 128 21 40 15 75 31 77 36 1 5 15 20 29 33 14 13 23 27 20 30
-3 4 -23 -10 -43 -29 -53 -52 -157 -82 -230 -68 -30 6 -73 24 -96 39 -23 15
-49 33 -58 38 -9 6 -19 15 -23 20 -5 6 -8 3 -8 -6z"/>
<path d="M640 939 c0 -4 5 -11 10 -14 6 -4 8 -10 5 -15 -3 -5 4 -11 15 -15 11
-4 17 -11 14 -17 -4 -7 -2 -8 5 -4 6 4 14 0 17 -8 3 -9 10 -16 16 -16 5 0 19
-10 31 -23 12 -13 38 -33 57 -46 21 -13 11 -1 -25 31 -33 29 -79 72 -102 94
-24 23 -43 38 -43 33z"/>
<path d="M1154 841 c-21 -21 -43 -45 -49 -53 -5 -7 -16 -21 -24 -31 -9 -12
-10 -17 -2 -17 6 0 21 16 33 36 l21 35 27 -26 c16 -16 30 -22 34 -17 4 6 2 13
-4 17 -6 4 -8 10 -5 15 3 4 -3 7 -12 5 -34 -5 -34 7 -1 35 18 15 30 31 27 34
-3 3 -23 -12 -45 -33z"/>
<path d="M824 728 c-13 -16 -14 -19 -2 -10 11 9 18 10 23 2 9 -15 25 -2 18 15
-7 21 -17 19 -39 -7z"/>
<path d="M1034 715 c-10 -8 -14 -15 -8 -15 5 0 19 7 30 15 10 8 14 15 8 15 -5
0 -19 -7 -30 -15z"/>
<path d="M763 697 c1 -7 -3 -11 -9 -10 -6 1 -11 -4 -11 -11 0 -17 19 -15 41 3
18 15 14 24 -9 27 -8 1 -13 -3 -12 -9z"/>
<path d="M823 675 c0 -7 6 -12 14 -11 19 3 21 19 2 21 -9 2 -16 -3 -16 -10z"/>
<path d="M880 638 c-44 -50 -80 -108 -80 -128 0 -9 9 -16 23 -17 12 0 16 1 10
4 -21 8 -16 42 6 40 11 0 19 -4 19 -7 0 -3 0 -16 1 -29 1 -19 4 -21 16 -11 8
6 19 9 24 6 5 -4 12 -2 15 3 8 12 -21 34 -33 26 -7 -3 -8 0 -5 9 9 23 40 29
103 20 62 -8 59 -8 85 2 16 6 18 4 13 -9 -3 -9 -2 -17 2 -17 13 0 22 30 14 44
-5 7 -24 31 -43 54 -34 39 -38 40 -74 32 -49 -11 -70 -30 -35 -31 13 0 32 -2
42 -4 9 -2 15 1 11 6 -3 5 -10 6 -16 3 -7 -4 -8 -2 -4 4 8 13 39 1 52 -20 4
-7 3 -8 -4 -4 -7 4 -12 2 -12 -3 0 -6 7 -11 15 -11 8 0 15 6 15 13 0 8 3 8 9
-2 6 -9 6 -22 0 -33 -12 -22 -29 -23 -29 -2 0 14 -3 14 -15 4 -13 -11 -18 -11
-28 0 -9 9 -9 11 0 6 6 -3 14 -2 18 3 3 6 -12 9 -40 8 -25 -1 -45 -5 -45 -9 0
-5 -7 -8 -16 -8 -9 0 -12 -5 -8 -12 4 -6 3 -8 -4 -4 -5 3 -12 1 -14 -6 -3 -7
-7 -5 -11 6 -5 13 -1 19 13 23 16 4 18 8 9 19 -6 8 -7 14 -2 14 6 0 22 11 37
24 20 16 24 25 14 28 -7 3 -28 -12 -48 -34z"/>
<path d="M850 645 c-7 -8 -16 -13 -20 -10 -5 3 -11 1 -14 -4 -14 -22 13 -18
34 4 13 14 21 25 18 25 -3 0 -11 -7 -18 -15z"/>
<path d="M1108 634 c6 -3 10 -9 7 -14 -3 -5 3 -7 12 -6 27 4 22 19 -7 22 -14
1 -19 0 -12 -2z"/>
<path d="M1096 535 c-10 -26 -7 -33 13 -40 10 -3 30 -31 44 -63 14 -31 26 -50
26 -41 1 9 -11 43 -26 75 -15 33 -27 63 -27 68 -2 17 -23 17 -30 1z"/>
<path d="M982 515 c-6 -14 -7 -25 -2 -25 9 0 25 39 18 46 -3 2 -10 -7 -16 -21z"/>
<path d="M1015 509 c-10 -30 0 -33 13 -4 6 14 7 25 2 25 -5 0 -12 -9 -15 -21z"/>
<path d="M783 455 c1 -21 4 -30 9 -22 10 16 10 45 -1 51 -5 3 -9 -10 -8 -29z"/>
<path d="M901 445 c-7 -22 -21 -56 -31 -75 -23 -44 -60 -169 -60 -203 0 -14 7
-28 16 -31 12 -5 15 -2 10 10 -4 9 -4 32 0 51 5 26 9 31 19 23 10 -8 15 -8 20
1 6 8 9 8 15 -1 9 -15 40 -6 40 11 0 9 -3 9 -14 0 -16 -13 -26 4 -26 45 0 14
-4 22 -10 19 -15 -9 -12 11 3 23 7 6 14 23 15 38 3 44 20 51 30 13 9 -31 10
-27 11 34 1 39 -3 66 -8 63 -5 -4 -11 0 -14 6 -2 7 -9 -5 -16 -27z"/>
<path d="M991 473 c-1 -6 -10 -9 -21 -6 -11 3 -20 1 -20 -5 0 -6 10 -12 23
-14 18 -2 23 -10 25 -41 2 -26 13 -49 33 -69 31 -33 37 -54 17 -60 -6 -2 -12
-12 -14 -21 -2 -12 5 -17 25 -17 15 0 30 3 34 6 8 8 -3 35 -13 29 -4 -2 -5 7
-2 22 l5 25 13 -32 c8 -18 14 -36 14 -40 0 -17 21 -63 26 -58 2 3 1 16 -5 29
-5 13 -17 46 -26 72 -16 45 -18 47 -32 30 -14 -17 -14 -17 -9 0 3 10 2 16 -2
14 -10 -7 -26 14 -30 38 -1 11 -7 29 -11 40 -5 11 -13 31 -19 45 -6 14 -11 20
-11 13z"/>
<path d="M1103 435 c0 -22 2 -30 4 -17 2 12 2 30 0 40 -3 9 -5 -1 -4 -23z"/>
<path d="M957 433 c-4 -3 -7 -13 -7 -22 0 -14 2 -14 10 -1 7 11 10 0 10 -38 0
-29 4 -51 8 -48 7 4 8 33 3 99 -1 17 -12 22 -24 10z"/>
<path d="M845 389 c-6 -19 0 -38 9 -28 10 12 16 49 7 49 -5 0 -13 -9 -16 -21z"/>
<path d="M1125 374 c8 -45 35 -78 35 -44 0 12 -4 18 -11 15 -6 -4 -10 -1 -8 6
4 31 -2 59 -12 59 -7 0 -9 -12 -4 -36z"/>
<path d="M913 347 c4 -10 0 -20 -9 -25 -18 -10 -9 -42 12 -42 8 0 14 -9 14
-20 0 -12 11 -31 25 -44 15 -14 25 -34 25 -52 0 -66 2 -74 21 -84 20 -11 26
-1 9 16 -6 6 -12 32 -14 60 -2 27 -2 45 0 39 2 -5 24 -10 49 -9 45 1 70 -21
43 -37 -10 -7 -10 -13 -1 -27 10 -17 8 -21 -10 -31 -20 -9 -19 -10 7 -4 19 4
27 2 22 -5 -3 -6 0 -13 6 -15 10 -4 10 -8 -1 -15 -11 -8 -11 -10 0 -15 8 -3 1
-6 -16 -6 -16 0 -37 3 -45 9 -9 6 -17 5 -22 -3 -6 -9 -8 -8 -8 3 0 13 -1 13
-10 0 -18 -27 -11 -31 53 -28 l62 3 -2 80 c-3 106 -8 125 -36 124 -12 0 -48 0
-79 1 l-58 1 -2 42 c0 23 -1 47 -1 52 -1 6 -10 19 -21 29 -16 16 -18 16 -13 3z"/>
<path d="M961 268 c-1 -21 4 -38 9 -38 11 0 11 14 0 50 -7 22 -8 21 -9 -12z"/>
<path d="M1020 160 c-16 -30 -3 -62 23 -58 29 4 33 39 8 62 -19 17 -20 17 -31
-4z"/>
<path d="M872 57 c14 -7 36 -21 47 -31 12 -11 24 -16 28 -13 3 4 1 7 -5 7 -7
0 -12 9 -12 21 0 11 -4 17 -10 14 -5 -3 -16 -3 -22 2 -7 4 -22 8 -33 10 -15 1
-13 -1 7 -10z"/>
<path d="M975 47 c-16 -20 -16 -37 0 -31 8 4 15 15 15 25 0 22 -1 23 -15 6z"/>
</g>
</svg>
