<?xml version="1.0" encoding="UTF-8"?>
<!DOCTYPE svg PUBLIC "-//W3C//DTD SVG 1.1//EN" "http://www.w3.org/Graphics/SVG/1.1/DTD/svg11.dtd">
<!-- Creator: CorelDRAW X6 -->
<svg xmlns="http://www.w3.org/2000/svg" xml:space="preserve" width="930px" height="1290px" version="1.1" style="shape-rendering:geometricPrecision; text-rendering:geometricPrecision; image-rendering:optimizeQuality; fill-rule:evenodd; clip-rule:evenodd"
viewBox="0 0 930 1290"
 xmlns:xlink="http://www.w3.org/1999/xlink"
 enable-background="new 0 0 174.596 52.951">
 <defs>
  <style type="text/css">
   <![CDATA[
    .fil0 {fill:#040506}
    .fil1 {fill:white}
   ]]>
  </style>
 </defs>
 <g id="Layer_x0020_1">
  <metadata id="CorelCorpID_0Corel-Layer"/>
  <g id="_194922552">
   <path class="fil0" d="M909 714c8,-14 -2,-41 -21,-62 -17,-21 -39,-27 -41,-37 23,-45 -2,-85 -37,-101 2,-21 -6,-43 -25,-58 8,-19 19,-70 -21,-101 17,-64 -50,-101 -85,-103 -17,-12 -39,-21 -70,-23 23,-33 17,-76 -10,-101 2,-35 -23,-68 -58,-81 -12,-29 -78,-25 -85,2 -39,14 -62,56 -58,95 -23,25 -23,66 0,95 -21,-2 -50,4 -68,12l0 0 -2 0c-17,-8 -33,-12 -52,-8 -4,-4 -17,-8 -25,-10 -6,-10 -14,-19 -27,-25 -4,-19 -19,-33 -33,-39 2,-14 -4,-31 -8,-39 -8,-12 -6,-33 -4,-37 10,-10 2,-21 -2,-25 -21,-21 -41,-10 -47,0 -21,-37 -43,-45 -56,-41 -19,-14 -45,-4 -45,12 -12,8 -21,12 -2,45 -4,68 4,89 50,126 -14,14 -21,43 -8,66 -4,33 14,66 37,83 6,47 52,74 83,81 21,31 50,45 78,47 2,14 6,27 14,39 -6,27 -6,52 2,74 -21,23 -29,58 -19,93 -25,29 -33,76 -17,116 0,0 -6,10 -10,21 -17,8 -33,27 -41,52 -8,19 -4,43 0,64 -27,23 -43,81 4,126 -10,33 -33,62 -60,97 -19,25 -23,37 0,66 17,23 47,41 74,41 50,2 85,-8 89,-45 4,-21 -10,-64 -10,-74 -2,-10 2,-27 12,-54 45,-10 68,-43 72,-76 33,-19 58,-58 45,-101 6,-6 8,-12 12,-23 0,19 12,31 19,43 -19,47 6,91 35,109 -50,72 4,107 19,122 19,17 21,47 50,58 25,8 103,0 118,-33 4,-8 8,-19 4,-25 0,-25 -14,-41 -41,-58 -31,-17 -31,-12 -45,-58 47,-23 56,-76 54,-97 33,-41 31,-76 12,-99 6,-19 4,-33 0,-47 29,-25 41,-62 31,-101 17,-25 21,-52 14,-83 14,23 37,31 62,31 0,0 2,6 4,10 -8,14 -4,31 14,43 2,8 6,12 10,17 0,6 17,33 35,19 2,0 23,-14 23,-14 19,15 60,2 56,-25l0 0z"/>
   <path class="fil1" d="M717 577c52,-4 101,-62 54,-107 -6,10 -21,21 -31,25 -2,23 -17,41 -25,52 0,8 2,29 2,31l0 0z"/>
   <path class="fil1" d="M802 534c-12,33 -45,52 -85,58 -6,27 29,68 83,43 39,-17 54,-78 2,-101l0 0z"/>
   <path class="fil1" d="M787 681c-4,4 -4,14 2,21 0,-2 4,-14 6,-19 -2,-4 -6,-4 -8,-2l0 0z"/>
   <path class="fil1" d="M820 705c-2,-6 0,-14 -10,-17 -10,-4 -10,29 -4,27 4,-4 8,-8 14,-10l0 0z"/>
   <path class="fil1" d="M835 710c-14,4 -25,14 -19,23 2,4 4,4 12,-2 4,-2 12,-8 14,-10 -2,-6 -8,-10 -8,-10l0 0z"/>
   <path class="fil1" d="M847 646c-4,-2 -12,-8 -17,-14 -10,10 -33,23 -43,25 2,0 4,10 6,14 4,0 8,4 12,8 4,-2 19,0 23,14 6,4 19,10 23,14 17,21 29,19 33,14 14,-10 -6,-21 -17,-35 -6,-6 -23,-29 -23,-35 0,-2 4,0 8,4 0,2 23,29 35,39 -10,-35 -41,-49 -41,-49l0 0z"/>
   <path class="fil1" d="M521 598c196,-2 221,-118 194,-163 -60,62 -260,97 -359,19 -19,21 -43,27 -64,31 6,58 111,116 229,114l0 0z"/>
   <path class="fil1" d="M389 352c4,39 -12,74 -21,87 19,14 56,41 140,43 128,2 264,-60 188,-165 -33,43 -196,80 -308,35l0 0z"/>
   <path class="fil1" d="M220 340c31,-29 33,-66 19,-93 -4,-4 -8,-10 -14,-14 -6,54 -83,95 -132,60 19,76 95,78 128,47l0 0z"/>
   <path class="fil1" d="M282 392c45,-52 0,-130 -21,-134 14,76 -62,136 -130,107 17,47 97,87 151,27l0 0z"/>
   <path class="fil1" d="M220 439c39,41 144,39 151,-58 4,-66 -25,-103 -70,-116 54,101 -10,171 -81,173l0 0z"/>
   <path class="fil1" d="M302 542c-19,111 130,147 219,144 151,-6 184,-78 175,-122 -95,74 -297,66 -394,-23l0 0z"/>
   <path class="fil1" d="M379 778c81,17 144,-21 144,-74 -39,0 -165,-2 -225,-85 -41,58 8,138 80,159l0 0z"/>
   <path class="fil1" d="M488 780c-72,37 -171,10 -208,-66 -54,85 35,161 101,157 80,-4 103,-56 107,-91l0 0z"/>
   <path class="fil1" d="M265 825c-25,45 6,95 39,107 70,27 118,-19 114,-52 -56,12 -114,-4 -153,-56l0 0z"/>
   <path class="fil1" d="M209 963c-33,27 -10,99 39,116 70,25 101,-23 105,-47 -19,4 -99,21 -144,-68l0 0z"/>
   <path class="fil1" d="M300 945c-37,-19 -60,-47 -62,-87 -54,54 -8,138 41,155 99,35 134,-50 126,-74 -39,27 -87,17 -105,6l0 0z"/>
   <path class="fil1" d="M655 1191l4 2c-8,17 -68,31 -93,21 -29,-14 -23,-31 -41,-47 -41,-39 -35,-56 -29,-76 2,-10 6,-17 14,-27 29,10 41,8 66,2 0,2 0,8 2,10 -19,2 -35,6 -35,6l6 14c0,0 14,-4 33,-6 0,0 2,10 4,14 -17,0 -31,6 -31,6l4 12c0,0 23,-6 39,-4 17,14 83,31 50,66 -12,12 -43,17 -68,17l0 4c4,6 50,8 74,-14l0 0z"/>
   <path class="fil1" d="M624 978c-17,12 -41,23 -70,21 -35,0 -60,-14 -81,-37 -12,62 27,91 70,93 78,4 81,-68 81,-76l0 0z"/>
   <path class="fil1" d="M552 984c85,2 109,-68 93,-99 -47,58 -157,45 -180,-27 -29,52 19,126 87,126l0 0z"/>
   <path class="fil1" d="M564 908c41,0 87,-29 76,-81 -47,31 -107,29 -149,-2 -4,6 -10,17 -14,21 6,39 45,62 87,62l0 0z"/>
   <path class="fil1" d="M513 763c-2,2 -4,4 -6,4 0,14 -4,33 -8,45 58,50 180,19 171,-83 -41,41 -107,52 -157,33l0 0z"/>
   <path class="fil1" d="M540 703c0,19 -6,35 -17,50 74,23 167,-17 163,-105 -25,23 -70,52 -147,56l0 0z"/>
   <path class="fil1" d="M166 284c56,-25 52,-83 19,-97 -8,8 -6,27 -6,31 0,8 -14,14 -17,10 -4,-6 8,-12 2,-27 -4,-12 10,-19 10,-39 0,-12 -10,-31 -10,-35 -6,-12 -6,-35 2,-45 -6,-6 -14,-12 -21,0 -10,14 -6,33 0,47 0,2 -10,0 -14,17l-4 6 -4 0c-2,-12 2,-19 6,-27 -2,-2 -6,-12 -6,-31 -8,-25 -27,-47 -39,-50 10,17 29,52 31,56 4,10 -4,12 -4,12 -14,-29 -29,-56 -41,-68 -8,-6 -17,-10 -21,-4 4,0 8,4 12,8 12,17 39,70 39,70 0,0 -2,2 -6,2 -4,0 -8,-8 -14,-23 -8,-12 -21,-33 -27,-39 -6,-8 -10,-6 -14,-2 4,6 8,14 8,21 10,-4 23,6 25,17 0,8 4,35 10,43 -2,0 -8,4 -8,4 -6,-6 -10,-35 -12,-45 0,-4 -2,-8 -8,-10 -4,0 -4,2 -4,4 -4,58 0,72 52,111 4,2 8,10 12,19 4,6 10,17 23,14l4 4c-10,10 -27,4 -31,0 -2,-4 -10,-16 -10,-16 -37,37 12,89 68,62l0 0z"/>
   <path class="fil1" d="M224 1083c-21,45 -41,66 -64,99 -17,21 -10,31 0,45 21,23 56,35 83,27l0 -2c-33,2 -60,-10 -74,-31l2 -2c37,29 87,21 105,10 6,-2 8,-8 8,-14 -2,-17 -10,-43 -12,-58 -2,-10 2,-33 12,-58 -17,2 -50,-2 -60,-17l0 0z"/>
   <path class="fil1" d="M705 299c27,19 31,56 31,70 27,-52 -12,-83 -33,-89 4,8 4,17 2,19l0 0z"/>
   <path class="fil1" d="M744 468c52,-29 19,-91 10,-95 -2,6 -8,23 -27,43 10,12 17,31 17,52l0 0z"/>
   <path class="fil1" d="M385 334c37,17 76,23 116,23 107,0 182,-31 188,-62 4,-27 -45,-43 -97,-47 -8,8 -19,12 -23,12 -2,0 -6,-2 -2,-4 8,-4 17,-12 8,-27 6,0 25,-8 27,-41 0,-27 -12,-43 -25,-52 0,0 -4,-4 0,-4 4,-33 -19,-60 -58,-68l0 -4c2,0 2,-2 2,-2 -2,-8 -31,-12 -43,-2 -2,2 6,6 8,6 4,0 6,4 2,4 -25,-2 -66,19 -66,74 2,0 14,-2 19,-2 4,2 2,6 0,6 -39,2 -54,70 -2,93 0,0 4,2 0,4 -6,4 -10,12 -2,19 4,0 6,4 4,6 0,4 -6,4 -10,0 -27,-12 -58,-6 -83,2 19,14 31,39 37,66l0 0z"/>
   <path class="fil0" d="M116 160c-2,2 -8,-4 -14,-8 -6,-2 -14,-2 -14,-4 0,0 6,-2 12,-2 4,0 8,2 12,2 2,4 6,10 4,12l0 0z"/>
   <path class="fil0" d="M253 1157c-12,-4 -31,-6 -41,-6l0 -14c12,2 31,4 45,8l-4 12 0 0z"/>
   <path class="fil0" d="M261 1131c-19,-6 -23,-6 -43,-8l0 -12c23,0 29,0 47,6l-4 14 0 0z"/>
   <path class="fil0" d="M554 189c-2,0 -4,0 -6,2 -37,-6 -47,2 -68,2 0,-2 0,-6 -4,-6 0,2 -2,4 -2,4 -6,8 -8,12 -6,14 2,2 6,-2 8,-4 2,0 10,0 19,4 6,4 19,21 31,14 10,-4 19,-21 25,-21 4,0 8,2 8,0 2,0 -2,-12 -4,-10l0 0zm-29 25c-12,4 -19,-10 -29,-14 10,-2 29,-4 45,-2 -4,2 -14,14 -17,17l0 0z"/>
   <path class="fil0" d="M540 94c-12,2 -21,19 -21,39 2,12 6,25 14,31 4,2 8,4 12,4 12,-2 23,-19 21,-39 0,-12 -6,-25 -12,-29 -4,-4 -8,-6 -14,-6l0 0z"/>
   <path class="fil1" d="M556 152l0 0 0 0c2,-4 4,-12 4,-23 -2,-10 -4,-19 -10,-25 -2,-2 -6,-2 -8,-2 -10,0 -17,14 -14,31 0,2 0,2 0,4l0 0 0 0c2,-10 6,-19 14,-21 8,0 14,10 14,23 0,4 0,8 0,12l0 0z"/>
   <path class="fil0" d="M482 96c-12,2 -23,19 -23,39 0,12 4,23 12,31 4,2 8,4 14,4 12,0 23,-19 23,-39 0,-12 -4,-23 -12,-29 -4,-4 -8,-6 -14,-6l0 0z"/>
   <path class="fil1" d="M498 150l0 0 0 0c2,-6 4,-12 4,-19 -2,-10 -4,-19 -10,-25 -2,-2 -6,-4 -10,-2 -8,0 -17,14 -17,31 0,6 2,12 6,17 0,2 0,2 0,2l0 -2c-2,-2 -2,-4 -2,-8 0,-12 6,-23 14,-23 8,0 14,10 14,23 0,2 0,4 0,6l0 0z"/>
  </g>
 </g>
</svg>
